<svg xmlns="http://www.w3.org/2000/svg" width="640" height="400" viewBox="0 0 640 400" role="img" aria-hidden="true">
  <title>Tellus Hub original composition</title>
  <rect width="640" height="400" fill="#2A5A5C"/>
  <rect x="40" y="40" width="560" height="320" rx="18" fill="#3F8487"/>
  <!-- plaza -->
  <ellipse cx="320" cy="300" rx="220" ry="48" fill="#ECE0CC" opacity="0.35"/>
  <!-- buildings -->
  <rect x="90" y="150" width="70" height="150" rx="8" fill="#1F3536"/>
  <rect x="175" y="110" width="84" height="190" rx="8" fill="#1F3536"/>
  <rect x="275" y="80" width="96" height="220" rx="10" fill="#ECE0CC"/>
  <rect x="390" y="128" width="78" height="172" rx="8" fill="#1F3536"/>
  <rect x="484" y="168" width="66" height="132" rx="8" fill="#1F3536"/>
  <!-- windows -->
  <g fill="#3F8487">
    <rect x="104" y="170" width="14" height="14" rx="2"/>
    <rect x="132" y="170" width="14" height="14" rx="2"/>
    <rect x="104" y="198" width="14" height="14" rx="2"/>
    <rect x="132" y="198" width="14" height="14" rx="2"/>
    <rect x="193" y="132" width="16" height="16" rx="2"/>
    <rect x="221" y="132" width="16" height="16" rx="2"/>
    <rect x="193" y="164" width="16" height="16" rx="2"/>
    <rect x="221" y="164" width="16" height="16" rx="2"/>
    <rect x="406" y="150" width="14" height="14" rx="2"/>
    <rect x="434" y="150" width="14" height="14" rx="2"/>
    <rect x="406" y="178" width="14" height="14" rx="2"/>
    <rect x="434" y="178" width="14" height="14" rx="2"/>
  </g>
  <g fill="#C75A2A">
    <rect x="296" y="110" width="16" height="16" rx="2"/>
    <rect x="328" y="110" width="16" height="16" rx="2"/>
    <rect x="296" y="142" width="16" height="16" rx="2"/>
    <rect x="328" y="142" width="16" height="16" rx="2"/>
    <rect x="296" y="174" width="16" height="16" rx="2"/>
    <rect x="328" y="174" width="16" height="16" rx="2"/>
  </g>
  <!-- clay sun / brand disc -->
  <circle cx="520" cy="86" r="36" fill="#C75A2A"/>
  <path d="M520 68c12 12 12 28 0 40-12-12-12-28 0-40Z" fill="#ECE0CC"/>
</svg>
