<svg width="390" height="194" viewBox="0 0 390 194" fill="none" xmlns="http://www.w3.org/2000/svg">
<path d="M3.3207 34V9.27136H7.10065L17.9106 27.3233H15.9323L26.5656 9.27136H30.3456L30.3809 34H26.0357L26.0004 16.0894H26.9189L17.8753 31.1739H15.8263L6.64141 16.0894H7.70121V34H3.3207ZM48.6475 34.3533C46.7163 34.3533 44.9382 34.0353 43.3132 33.3994C41.6882 32.7636 40.2751 31.8804 39.074 30.7499C37.8729 29.5959 36.9426 28.2535 36.2832 26.7227C35.6238 25.1683 35.2941 23.4727 35.2941 21.6357C35.2941 19.7987 35.6238 18.1148 36.2832 16.584C36.9426 15.0296 37.8729 13.6872 39.074 12.5567C40.2751 11.4027 41.6882 10.5078 43.3132 9.87191C44.9382 9.23603 46.7046 8.91809 48.6122 8.91809C50.5434 8.91809 52.3097 9.23603 53.9112 9.87191C55.5362 10.5078 56.9493 11.4027 58.1504 12.5567C59.3515 13.6872 60.2818 15.0296 60.9412 16.584C61.6006 18.1148 61.9303 19.7987 61.9303 21.6357C61.9303 23.4727 61.6006 25.1683 60.9412 26.7227C60.2818 28.2771 59.3515 29.6195 58.1504 30.7499C56.9493 31.8804 55.5362 32.7636 53.9112 33.3994C52.3097 34.0353 50.5552 34.3533 48.6475 34.3533ZM48.6122 30.326C49.8604 30.326 51.0144 30.1141 52.0742 29.6902C53.134 29.2662 54.0525 28.6657 54.8297 27.8885C55.6069 27.0878 56.2074 26.1693 56.6313 25.133C57.0788 24.0732 57.3026 22.9074 57.3026 21.6357C57.3026 20.3639 57.0788 19.2099 56.6313 18.1737C56.2074 17.1139 55.6069 16.1954 54.8297 15.4182C54.0525 14.6175 53.134 14.0051 52.0742 13.5812C51.0144 13.1573 49.8604 12.9453 48.6122 12.9453C47.364 12.9453 46.21 13.1573 45.1502 13.5812C44.1139 14.0051 43.1955 14.6175 42.3947 15.4182C41.6175 16.1954 41.0052 17.1139 40.5577 18.1737C40.1338 19.2099 39.9219 20.3639 39.9219 21.6357C39.9219 22.8839 40.1338 24.0379 40.5577 25.0977C41.0052 26.1575 41.6175 27.0878 42.3947 27.8885C43.1719 28.6657 44.0904 29.2662 45.1502 29.6902C46.21 30.1141 47.364 30.326 48.6122 30.326ZM66.7982 34V9.27136H70.5782L86.0866 28.3124H84.2143V9.27136H88.7714V34H84.9915L69.4831 14.9589H71.3554V34H66.7982ZM100.414 34V13.1573H92.2182V9.27136H113.202V13.1573H105.006V34H100.414ZM124.073 34.3533C122.142 34.3533 120.293 34.0824 118.527 33.5408C116.761 32.9755 115.359 32.2572 114.323 31.3858L115.913 27.8178C116.902 28.595 118.127 29.2427 119.587 29.7608C121.047 30.2789 122.542 30.538 124.073 30.538C125.369 30.538 126.417 30.3967 127.217 30.1141C128.018 29.8315 128.607 29.4546 128.984 28.9836C129.36 28.489 129.549 27.9356 129.549 27.3233C129.549 26.5696 129.278 25.9691 128.736 25.5216C128.195 25.0506 127.488 24.6855 126.617 24.4265C125.769 24.1439 124.815 23.8848 123.755 23.6493C122.719 23.4138 121.671 23.1429 120.611 22.8368C119.575 22.5071 118.621 22.0949 117.75 21.6004C116.902 21.0822 116.207 20.3992 115.665 19.5514C115.124 18.7036 114.853 17.6202 114.853 16.3014C114.853 14.9589 115.206 13.7343 115.913 12.6274C116.643 11.4969 117.738 10.602 119.198 9.94256C120.682 9.25958 122.554 8.91809 124.815 8.91809C126.299 8.91809 127.771 9.1065 129.231 9.48332C130.691 9.86014 131.963 10.4018 133.046 11.1083L131.598 14.6763C130.491 14.0169 129.349 13.5341 128.171 13.2279C126.994 12.8982 125.863 12.7334 124.78 12.7334C123.508 12.7334 122.472 12.8864 121.671 13.1926C120.894 13.4988 120.317 13.8991 119.94 14.3937C119.587 14.8883 119.41 15.4535 119.41 16.0894C119.41 16.843 119.669 17.4554 120.187 17.9264C120.729 18.3739 121.424 18.7271 122.272 18.9862C123.143 19.2452 124.109 19.5043 125.168 19.7634C126.228 19.9989 127.276 20.2697 128.312 20.5759C129.372 20.882 130.326 21.2824 131.174 21.777C132.045 22.2716 132.74 22.9428 133.258 23.7906C133.8 24.6384 134.071 25.71 134.071 27.0053C134.071 28.3242 133.706 29.5488 132.976 30.6793C132.269 31.7862 131.174 32.6811 129.69 33.3641C128.206 34.0236 126.334 34.3533 124.073 34.3533ZM142.864 19.5514H155.157V23.3314H142.864V19.5514ZM143.217 30.1494H157.171V34H138.624V9.27136H156.676V13.122H143.217V30.1494ZM162.291 34V9.27136H172.465C174.655 9.27136 176.527 9.62462 178.082 10.3312C179.659 11.0377 180.872 12.0504 181.72 13.3692C182.568 14.6881 182.992 16.2543 182.992 18.0677C182.992 19.8811 182.568 21.4473 181.72 22.7661C180.872 24.0614 179.659 25.0624 178.082 25.7689C176.527 26.4519 174.655 26.7934 172.465 26.7934H164.834L166.883 24.7091V34H162.291ZM178.47 34L172.217 25.027H177.128L183.416 34H178.47ZM166.883 25.2037L164.834 23.0134H172.253C174.278 23.0134 175.797 22.5777 176.81 21.7063C177.846 20.8349 178.364 19.6221 178.364 18.0677C178.364 16.4898 177.846 15.2769 176.81 14.429C175.797 13.5812 174.278 13.1573 172.253 13.1573H164.834L166.883 10.8964V25.2037ZM188.13 34V9.27136H198.304C200.494 9.27136 202.367 9.62462 203.921 10.3312C205.499 11.0377 206.712 12.0504 207.56 13.3692C208.408 14.6881 208.831 16.2543 208.831 18.0677C208.831 19.8811 208.408 21.4473 207.56 22.7661C206.712 24.0614 205.499 25.0624 203.921 25.7689C202.367 26.4519 200.494 26.7934 198.304 26.7934H190.674L192.722 24.7091V34H188.13ZM204.31 34L198.057 25.027H202.967L209.255 34H204.31ZM192.722 25.2037L190.674 23.0134H198.092C200.118 23.0134 201.637 22.5777 202.649 21.7063C203.686 20.8349 204.204 19.6221 204.204 18.0677C204.204 16.4898 203.686 15.2769 202.649 14.429C201.637 13.5812 200.118 13.1573 198.092 13.1573H190.674L192.722 10.8964V25.2037ZM210.472 34L221.6 9.27136H226.122L237.285 34H232.481L222.907 11.7089H224.744L215.206 34H210.472ZM215.595 28.2771L216.831 24.6738H230.184L231.421 28.2771H215.595ZM244.204 34V13.1573H236.009V9.27136H256.993V13.1573H248.797V34H244.204Z" fill="black"/>
<path d="M5.5438 68.1083C4.60478 68.1083 3.70188 67.9579 2.8351 67.6569C1.98036 67.3439 1.31823 66.9466 0.848725 66.4651L1.37241 65.4358C1.81784 65.8692 2.41375 66.2363 3.16014 66.5373C3.91858 66.8262 4.71313 66.9707 5.5438 66.9707C6.33835 66.9707 6.98241 66.8744 7.476 66.6818C7.98162 66.4771 8.3488 66.2062 8.57754 65.8692C8.81831 65.5321 8.93869 65.1589 8.93869 64.7496C8.93869 64.256 8.79423 63.8587 8.5053 63.5577C8.22841 63.2568 7.86124 63.022 7.40377 62.8535C6.9463 62.6729 6.44068 62.5164 5.8869 62.384C5.33312 62.2515 4.77934 62.1131 4.22556 61.9686C3.67179 61.8121 3.16014 61.6075 2.69064 61.3547C2.23317 61.1019 1.85997 60.7708 1.57104 60.3615C1.29415 59.9401 1.15571 59.3924 1.15571 58.7182C1.15571 58.0922 1.31823 57.5204 1.64328 57.0027C1.98036 56.473 2.492 56.0516 3.1782 55.7386C3.86441 55.4136 4.74323 55.2511 5.81467 55.2511C6.52495 55.2511 7.22921 55.3534 7.92745 55.5581C8.62569 55.7507 9.22762 56.0215 9.73325 56.3707L9.2818 57.4361C8.74006 57.0749 8.1622 56.8101 7.54823 56.6415C6.9463 56.473 6.36242 56.3887 5.79661 56.3887C5.03817 56.3887 4.41216 56.4911 3.91858 56.6957C3.42499 56.9004 3.05782 57.1773 2.81704 57.5264C2.58831 57.8635 2.47394 58.2487 2.47394 58.6821C2.47394 59.1757 2.61239 59.5729 2.88928 59.8739C3.1782 60.1749 3.5514 60.4096 4.00887 60.5782C4.47838 60.7467 4.99002 60.8972 5.5438 61.0296C6.09757 61.162 6.64533 61.3065 7.18707 61.463C7.74085 61.6195 8.24647 61.8242 8.70394 62.077C9.17345 62.3178 9.54665 62.6428 9.82354 63.0521C10.1125 63.4614 10.2569 63.9972 10.2569 64.6593C10.2569 65.2732 10.0884 65.8451 9.7513 66.3748C9.41422 66.8924 8.89656 67.3138 8.19832 67.6388C7.51212 67.9518 6.62727 68.1083 5.5438 68.1083ZM16.9245 68.0903C15.9374 68.0903 15.0706 67.8856 14.3242 67.4763C13.5778 67.055 12.9939 66.4831 12.5726 65.7608C12.1512 65.0265 11.9405 64.1898 11.9405 63.2508C11.9405 62.3117 12.1392 61.4811 12.5365 60.7588C12.9458 60.0364 13.4996 59.4706 14.1978 59.0613C14.9081 58.64 15.7026 58.4293 16.5814 58.4293C17.4723 58.4293 18.2608 58.6339 18.947 59.0432C19.6453 59.4405 20.193 60.0063 20.5903 60.7407C20.9876 61.463 21.1862 62.2997 21.1862 63.2508C21.1862 63.3109 21.1802 63.3772 21.1682 63.4494C21.1682 63.5096 21.1682 63.5758 21.1682 63.648H12.9157V62.691H20.482L19.9763 63.0702C19.9763 62.384 19.8259 61.776 19.5249 61.2463C19.236 60.7046 18.8387 60.2832 18.3331 59.9823C17.8274 59.6813 17.2436 59.5308 16.5814 59.5308C15.9314 59.5308 15.3475 59.6813 14.8298 59.9823C14.3122 60.2832 13.9089 60.7046 13.6199 61.2463C13.331 61.7881 13.1865 62.408 13.1865 63.1063V63.3049C13.1865 64.0272 13.3431 64.6653 13.6561 65.2191C13.9811 65.7608 14.4265 66.1882 14.9923 66.5012C15.5702 66.8022 16.2263 66.9526 16.9607 66.9526C17.5385 66.9526 18.0742 66.8503 18.5678 66.6457C19.0734 66.441 19.5068 66.128 19.868 65.7066L20.5903 66.5373C20.169 67.0429 19.6393 67.4282 19.0012 67.693C18.3752 67.9579 17.683 68.0903 16.9245 68.0903ZM35.6419 58.4293C36.4124 58.4293 37.0805 58.5798 37.6463 58.8807C38.2242 59.1697 38.6696 59.6151 38.9826 60.217C39.3077 60.8189 39.4702 61.5774 39.4702 62.4923V68H38.1881V62.6187C38.1881 61.6195 37.9473 60.8671 37.4658 60.3615C36.9963 59.8438 36.3281 59.585 35.4613 59.585C34.8112 59.585 34.2454 59.7234 33.7639 60.0003C33.2944 60.2652 32.9272 60.6564 32.6623 61.1741C32.4095 61.6797 32.2831 62.2937 32.2831 63.016V68H31.001V62.6187C31.001 61.6195 30.7602 60.8671 30.2787 60.3615C29.7972 59.8438 29.123 59.585 28.2562 59.585C27.6182 59.585 27.0584 59.7234 26.5768 60.0003C26.0953 60.2652 25.7221 60.6564 25.4572 61.1741C25.2044 61.6797 25.078 62.2937 25.078 63.016V68H23.7959V58.5196H25.0238V61.0838L24.8252 60.6323C25.1141 59.9461 25.5776 59.4104 26.2157 59.0252C26.8657 58.6279 27.6302 58.4293 28.509 58.4293C29.436 58.4293 30.2245 58.664 30.8746 59.1335C31.5247 59.591 31.9461 60.2832 32.1387 61.2102L31.633 61.0116C31.9099 60.2411 32.3975 59.6211 33.0957 59.1516C33.806 58.67 34.6547 58.4293 35.6419 58.4293ZM42.9472 68V58.5196H44.2293V68H42.9472ZM43.5973 56.4248C43.3324 56.4248 43.1097 56.3346 42.9292 56.154C42.7486 55.9734 42.6583 55.7567 42.6583 55.5039C42.6583 55.2511 42.7486 55.0404 42.9292 54.8719C43.1097 54.6913 43.3324 54.601 43.5973 54.601C43.8621 54.601 44.0849 54.6853 44.2654 54.8538C44.446 55.0223 44.5363 55.233 44.5363 55.4858C44.5363 55.7507 44.446 55.9734 44.2654 56.154C44.0969 56.3346 43.8742 56.4248 43.5973 56.4248ZM48.0676 68V55.3594H53.5211C54.9297 55.3594 56.0192 55.6423 56.7896 56.2081C57.5721 56.774 57.9634 57.5745 57.9634 58.6099C57.9634 59.2961 57.8009 59.8739 57.4758 60.3434C57.1628 60.8129 56.7294 61.1681 56.1757 61.4088C55.6339 61.6496 55.038 61.77 54.3879 61.77L54.6949 61.3366C55.5015 61.3366 56.1937 61.463 56.7716 61.7158C57.3615 61.9566 57.8189 62.3238 58.144 62.8174C58.469 63.2989 58.6315 63.9008 58.6315 64.6232C58.6315 65.6946 58.2343 66.5253 57.4397 67.1152C56.6572 67.7051 55.4714 68 53.8823 68H48.0676ZM49.4039 66.8985H53.8642C54.9718 66.8985 55.8205 66.7119 56.4104 66.3387C57.0003 65.9534 57.2953 65.3455 57.2953 64.5148C57.2953 63.6962 57.0003 63.1003 56.4104 62.7271C55.8205 62.3418 54.9718 62.1492 53.8642 62.1492H49.2595V61.0477H53.4308C54.4421 61.0477 55.2246 60.8551 55.7784 60.4698C56.3442 60.0846 56.6271 59.5128 56.6271 58.7543C56.6271 57.9838 56.3442 57.412 55.7784 57.0388C55.2246 56.6536 54.4421 56.461 53.4308 56.461H49.4039V66.8985ZM65.2752 68.0903C64.3602 68.0903 63.5356 67.8856 62.8012 67.4763C62.0789 67.055 61.5071 66.4831 61.0857 65.7608C60.6644 65.0265 60.4537 64.1898 60.4537 63.2508C60.4537 62.2997 60.6644 61.463 61.0857 60.7407C61.5071 60.0184 62.0789 59.4526 62.8012 59.0432C63.5236 58.6339 64.3482 58.4293 65.2752 58.4293C66.2142 58.4293 67.0449 58.6339 67.7672 59.0432C68.5015 59.4526 69.0734 60.0184 69.4827 60.7407C69.904 61.463 70.1147 62.2997 70.1147 63.2508C70.1147 64.1898 69.904 65.0265 69.4827 65.7608C69.0734 66.4831 68.5015 67.055 67.7672 67.4763C67.0328 67.8856 66.2022 68.0903 65.2752 68.0903ZM65.2752 66.9526C65.9614 66.9526 66.5693 66.8022 67.099 66.5012C67.6287 66.1882 68.0441 65.7548 68.345 65.201C68.658 64.6352 68.8145 63.9851 68.8145 63.2508C68.8145 62.5044 68.658 61.8543 68.345 61.3005C68.0441 60.7467 67.6287 60.3193 67.099 60.0184C66.5693 59.7054 65.9674 59.5489 65.2932 59.5489C64.6191 59.5489 64.0171 59.7054 63.4874 60.0184C62.9577 60.3193 62.5364 60.7467 62.2234 61.3005C61.9104 61.8543 61.7539 62.5044 61.7539 63.2508C61.7539 63.9851 61.9104 64.6352 62.2234 65.201C62.5364 65.7548 62.9577 66.1882 63.4874 66.5012C64.0171 66.8022 64.6131 66.9526 65.2752 66.9526ZM72.7323 68V54.601H74.0144V68H72.7323ZM81.3559 68.0903C80.453 68.0903 79.6404 67.8856 78.9181 67.4763C78.2078 67.067 77.648 66.5012 77.2387 65.7789C76.8294 65.0445 76.6248 64.2018 76.6248 63.2508C76.6248 62.2877 76.8294 61.445 77.2387 60.7226C77.648 60.0003 78.2078 59.4405 78.9181 59.0432C79.6404 58.6339 80.453 58.4293 81.3559 58.4293C82.1866 58.4293 82.927 58.6159 83.5771 58.9891C84.2392 59.3623 84.7629 59.91 85.1481 60.6323C85.5454 61.3426 85.744 62.2154 85.744 63.2508C85.744 64.274 85.5514 65.1468 85.1662 65.8692C84.7809 66.5915 84.2573 67.1453 83.5951 67.5305C82.945 67.9037 82.1987 68.0903 81.3559 68.0903ZM81.4462 66.9526C82.1204 66.9526 82.7223 66.8022 83.252 66.5012C83.7938 66.1882 84.2151 65.7548 84.5161 65.201C84.8291 64.6352 84.9856 63.9851 84.9856 63.2508C84.9856 62.5044 84.8291 61.8543 84.5161 61.3005C84.2151 60.7467 83.7938 60.3193 83.252 60.0184C82.7223 59.7054 82.1204 59.5489 81.4462 59.5489C80.7841 59.5489 80.1882 59.7054 79.6585 60.0184C79.1288 60.3193 78.7074 60.7467 78.3944 61.3005C78.0814 61.8543 77.9249 62.5044 77.9249 63.2508C77.9249 63.9851 78.0814 64.6352 78.3944 65.201C78.7074 65.7548 79.1288 66.1882 79.6585 66.5012C80.1882 66.8022 80.7841 66.9526 81.4462 66.9526ZM85.0217 68V65.1468L85.1481 63.2327L84.9675 61.3186V54.601H86.2497V68H85.0217Z" fill="black"/>
<ellipse cx="54.0718" cy="139.337" rx="54.0718" ry="54.0718" fill="#E8DAC4"/>
<ellipse cx="119.216" cy="139.337" rx="54.0718" ry="54.0718" fill="#42807F"/>
<ellipse cx="184.359" cy="139.337" rx="54.0718" ry="54.0718" fill="#0C7A6B"/>
<ellipse cx="249.503" cy="139.337" rx="54.0718" ry="54.0718" fill="#B3582D"/>
</svg>
