<svg width="844" height="387" viewBox="0 0 844 387" fill="none" xmlns="http://www.w3.org/2000/svg">
<mask id="path-1-outside-1_9291_1474" maskUnits="userSpaceOnUse" x="99" y="101" width="284" height="86" fill="black">
<rect fill="white" x="99" y="101" width="284" height="86"/>
<path d="M124.645 185.117C122.514 185.117 120.455 184.869 118.467 184.372C116.479 183.875 114.704 182.951 113.142 181.602C111.58 180.182 110.337 178.123 109.414 175.425C108.491 172.727 108.029 169.141 108.029 164.668L108.242 138.999H101V130.159C103.201 130.088 105.331 129.343 107.39 127.923C109.45 126.503 111.189 124.656 112.609 122.384C114.1 120.112 115.094 117.734 115.592 115.248H123.473L123.367 130.159H136.893V138.36L123.367 138.68L123.26 164.881C123.26 166.514 123.402 168.147 123.686 169.78C124.041 171.342 124.68 172.656 125.603 173.721C126.526 174.715 127.875 175.212 129.65 175.212C130.645 175.212 131.994 174.857 133.698 174.147C135.473 173.437 137.354 171.662 139.343 168.822L144.455 173.614C142.538 176.455 140.55 178.656 138.491 180.218C136.431 181.78 134.443 182.916 132.526 183.626C130.68 184.336 129.047 184.762 127.627 184.904C126.207 185.046 125.213 185.117 124.645 185.117Z"/>
<path d="M172.795 185.117C167.612 185.117 163.032 183.981 159.056 181.709C155.079 179.366 151.991 176.1 149.789 171.91C147.588 167.65 146.488 162.644 146.488 156.893C146.488 151.922 147.588 147.272 149.789 142.94C151.991 138.609 155.079 135.13 159.056 132.503C163.103 129.804 167.789 128.455 173.115 128.455C176.097 128.455 179.008 128.881 181.848 129.733C184.688 130.514 187.245 131.899 189.517 133.887C191.86 135.875 193.706 138.573 195.055 141.982C196.475 145.39 197.15 149.65 197.079 154.763L162.144 155.402C162.144 159.236 162.606 162.68 163.529 165.733C164.523 168.786 166.121 171.2 168.322 172.975C170.523 174.75 173.47 175.638 177.162 175.638C178.582 175.638 180.18 175.389 181.955 174.892C183.801 174.395 185.647 173.579 187.493 172.443C189.41 171.236 191.185 169.638 192.818 167.65L197.611 172.123C195.055 175.744 192.321 178.514 189.41 180.431C186.499 182.277 183.588 183.52 180.677 184.159C177.836 184.798 175.209 185.117 172.795 185.117ZM162.783 147.946H182.381C182.31 144.964 181.884 142.621 181.103 140.917C180.393 139.141 179.399 137.863 178.12 137.082C176.842 136.301 175.351 135.911 173.647 135.911C170.523 135.911 168.073 137.047 166.298 139.319C164.523 141.52 163.351 144.396 162.783 147.946Z"/>
<path d="M203.159 176.49C205.147 176.49 206.567 176.1 207.419 175.318C208.342 174.537 208.91 173.437 209.123 172.017C209.336 170.526 209.443 168.857 209.443 167.011V123.236C209.443 121.958 209.478 120.503 209.549 118.87C209.62 117.165 209.727 115.532 209.869 113.97C208.733 114.041 207.384 114.112 205.821 114.183C204.33 114.183 203.194 114.219 202.413 114.29V106.195C205.75 106.195 208.52 106.018 210.721 105.663C212.993 105.308 214.768 104.882 216.046 104.385C217.395 103.888 218.318 103.426 218.815 103H224.567V166.265C224.567 167.259 224.531 168.68 224.46 170.526C224.389 172.301 224.283 174.005 224.141 175.638C225.348 175.496 226.626 175.425 227.975 175.425C229.324 175.354 230.354 175.318 231.064 175.318V183.413H203.159V176.49Z"/>
<path d="M236.338 176.49C238.326 176.49 239.747 176.1 240.599 175.318C241.522 174.537 242.09 173.437 242.303 172.017C242.516 170.526 242.622 168.857 242.622 167.011V123.236C242.622 121.958 242.658 120.503 242.729 118.87C242.8 117.165 242.906 115.532 243.048 113.97C241.912 114.041 240.563 114.112 239.001 114.183C237.51 114.183 236.374 114.219 235.593 114.29V106.195C238.93 106.195 241.699 106.018 243.9 105.663C246.173 105.308 247.948 104.882 249.226 104.385C250.575 103.888 251.498 103.426 251.995 103H257.746V166.265C257.746 167.259 257.711 168.68 257.64 170.526C257.569 172.301 257.462 174.005 257.32 175.638C258.527 175.496 259.805 175.425 261.155 175.425C262.504 175.354 263.533 175.318 264.243 175.318V183.413H236.338V176.49Z"/>
<path d="M293.269 185.117C289.009 185.117 285.565 184.301 282.938 182.667C280.382 181.034 278.5 178.478 277.293 174.999C276.157 171.52 275.589 167.046 275.589 161.579V149.331C275.589 148.053 275.624 146.597 275.695 144.964C275.766 143.26 275.837 141.627 275.908 140.065C274.772 140.136 273.423 140.207 271.861 140.278C270.37 140.278 269.234 140.313 268.453 140.384V132.29H269.518C273.92 132.29 277.399 131.934 279.956 131.224C282.512 130.514 284.145 129.804 284.855 129.094H290.713V161.686C290.713 166.301 291.316 169.745 292.523 172.017C293.73 174.218 295.648 175.318 298.275 175.318C300.121 175.318 301.967 174.821 303.813 173.827C305.73 172.762 307.292 171.555 308.5 170.206V149.331C308.5 148.053 308.535 146.597 308.606 144.964C308.677 143.26 308.784 141.627 308.926 140.065C307.789 140.136 306.44 140.207 304.878 140.278C303.387 140.278 302.251 140.313 301.47 140.384V132.29H304.026C307.363 132.29 310.31 131.934 312.866 131.224C315.422 130.443 317.056 129.733 317.766 129.094H323.624V166.265C323.624 167.259 323.588 168.68 323.517 170.526C323.446 172.301 323.34 174.005 323.198 175.638C324.334 175.496 325.576 175.425 326.925 175.425C328.345 175.354 329.41 175.318 330.12 175.318V183.413H309.884C309.813 182.49 309.707 181.567 309.565 180.644C309.494 179.721 309.387 178.798 309.245 177.875C307.044 179.721 304.665 181.389 302.109 182.88C299.624 184.372 296.677 185.117 293.269 185.117Z"/>
<path d="M361.558 185.117C358.504 185.117 355.522 184.727 352.611 183.946C349.7 183.164 347.428 182.17 345.795 180.963L346.008 184.159H337.913L337.487 165.839H344.41C344.623 167.969 345.475 169.922 346.966 171.697C348.457 173.472 350.41 174.892 352.824 175.958C355.238 176.952 357.936 177.449 360.919 177.449C362.126 177.449 363.262 177.271 364.327 176.916C365.463 176.561 366.386 175.993 367.096 175.212C367.877 174.36 368.268 173.33 368.268 172.123C368.268 170.774 367.771 169.674 366.776 168.822C365.853 167.969 364.469 167.153 362.623 166.372C360.848 165.591 358.611 164.703 355.913 163.709C353.712 162.857 351.475 161.97 349.203 161.046C347.002 160.123 344.942 159.023 343.025 157.745C341.179 156.396 339.688 154.763 338.552 152.845C337.416 150.857 336.848 148.443 336.848 145.603C336.848 143.544 337.238 141.52 338.02 139.532C338.801 137.473 340.008 135.627 341.641 133.994C343.274 132.29 345.333 130.94 347.818 129.946C350.374 128.952 353.392 128.455 356.871 128.455C358.788 128.455 360.954 128.775 363.368 129.414C365.853 129.982 367.948 130.869 369.652 132.076V128.988H377.747V147.84H370.824C370.398 145.354 369.51 143.224 368.161 141.449C366.883 139.674 365.214 138.325 363.155 137.402C361.096 136.408 358.788 135.911 356.232 135.911C354.457 135.911 352.824 136.337 351.333 137.189C349.913 138.041 349.203 139.497 349.203 141.556C349.203 143.189 349.771 144.502 350.907 145.496C352.043 146.419 353.605 147.201 355.593 147.84C357.581 148.479 359.782 149.224 362.197 150.076C365.818 151.283 369.013 152.703 371.782 154.337C374.623 155.97 376.859 157.958 378.492 160.301C380.125 162.573 380.942 165.378 380.942 168.715C380.942 172.407 380.019 175.46 378.173 177.875C376.327 180.289 373.912 182.099 370.93 183.307C368.019 184.514 364.895 185.117 361.558 185.117Z"/>
</mask>
<path d="M124.645 185.117C122.514 185.117 120.455 184.869 118.467 184.372C116.479 183.875 114.704 182.951 113.142 181.602C111.58 180.182 110.337 178.123 109.414 175.425C108.491 172.727 108.029 169.141 108.029 164.668L108.242 138.999H101V130.159C103.201 130.088 105.331 129.343 107.39 127.923C109.45 126.503 111.189 124.656 112.609 122.384C114.1 120.112 115.094 117.734 115.592 115.248H123.473L123.367 130.159H136.893V138.36L123.367 138.68L123.26 164.881C123.26 166.514 123.402 168.147 123.686 169.78C124.041 171.342 124.68 172.656 125.603 173.721C126.526 174.715 127.875 175.212 129.65 175.212C130.645 175.212 131.994 174.857 133.698 174.147C135.473 173.437 137.354 171.662 139.343 168.822L144.455 173.614C142.538 176.455 140.55 178.656 138.491 180.218C136.431 181.78 134.443 182.916 132.526 183.626C130.68 184.336 129.047 184.762 127.627 184.904C126.207 185.046 125.213 185.117 124.645 185.117Z" fill="black"/>
<path d="M172.795 185.117C167.612 185.117 163.032 183.981 159.056 181.709C155.079 179.366 151.991 176.1 149.789 171.91C147.588 167.65 146.488 162.644 146.488 156.893C146.488 151.922 147.588 147.272 149.789 142.94C151.991 138.609 155.079 135.13 159.056 132.503C163.103 129.804 167.789 128.455 173.115 128.455C176.097 128.455 179.008 128.881 181.848 129.733C184.688 130.514 187.245 131.899 189.517 133.887C191.86 135.875 193.706 138.573 195.055 141.982C196.475 145.39 197.15 149.65 197.079 154.763L162.144 155.402C162.144 159.236 162.606 162.68 163.529 165.733C164.523 168.786 166.121 171.2 168.322 172.975C170.523 174.75 173.47 175.638 177.162 175.638C178.582 175.638 180.18 175.389 181.955 174.892C183.801 174.395 185.647 173.579 187.493 172.443C189.41 171.236 191.185 169.638 192.818 167.65L197.611 172.123C195.055 175.744 192.321 178.514 189.41 180.431C186.499 182.277 183.588 183.52 180.677 184.159C177.836 184.798 175.209 185.117 172.795 185.117ZM162.783 147.946H182.381C182.31 144.964 181.884 142.621 181.103 140.917C180.393 139.141 179.399 137.863 178.12 137.082C176.842 136.301 175.351 135.911 173.647 135.911C170.523 135.911 168.073 137.047 166.298 139.319C164.523 141.52 163.351 144.396 162.783 147.946Z" fill="black"/>
<path d="M203.159 176.49C205.147 176.49 206.567 176.1 207.419 175.318C208.342 174.537 208.91 173.437 209.123 172.017C209.336 170.526 209.443 168.857 209.443 167.011V123.236C209.443 121.958 209.478 120.503 209.549 118.87C209.62 117.165 209.727 115.532 209.869 113.97C208.733 114.041 207.384 114.112 205.821 114.183C204.33 114.183 203.194 114.219 202.413 114.29V106.195C205.75 106.195 208.52 106.018 210.721 105.663C212.993 105.308 214.768 104.882 216.046 104.385C217.395 103.888 218.318 103.426 218.815 103H224.567V166.265C224.567 167.259 224.531 168.68 224.46 170.526C224.389 172.301 224.283 174.005 224.141 175.638C225.348 175.496 226.626 175.425 227.975 175.425C229.324 175.354 230.354 175.318 231.064 175.318V183.413H203.159V176.49Z" fill="black"/>
<path d="M236.338 176.49C238.326 176.49 239.747 176.1 240.599 175.318C241.522 174.537 242.09 173.437 242.303 172.017C242.516 170.526 242.622 168.857 242.622 167.011V123.236C242.622 121.958 242.658 120.503 242.729 118.87C242.8 117.165 242.906 115.532 243.048 113.97C241.912 114.041 240.563 114.112 239.001 114.183C237.51 114.183 236.374 114.219 235.593 114.29V106.195C238.93 106.195 241.699 106.018 243.9 105.663C246.173 105.308 247.948 104.882 249.226 104.385C250.575 103.888 251.498 103.426 251.995 103H257.746V166.265C257.746 167.259 257.711 168.68 257.64 170.526C257.569 172.301 257.462 174.005 257.32 175.638C258.527 175.496 259.805 175.425 261.155 175.425C262.504 175.354 263.533 175.318 264.243 175.318V183.413H236.338V176.49Z" fill="black"/>
<path d="M293.269 185.117C289.009 185.117 285.565 184.301 282.938 182.667C280.382 181.034 278.5 178.478 277.293 174.999C276.157 171.52 275.589 167.046 275.589 161.579V149.331C275.589 148.053 275.624 146.597 275.695 144.964C275.766 143.26 275.837 141.627 275.908 140.065C274.772 140.136 273.423 140.207 271.861 140.278C270.37 140.278 269.234 140.313 268.453 140.384V132.29H269.518C273.92 132.29 277.399 131.934 279.956 131.224C282.512 130.514 284.145 129.804 284.855 129.094H290.713V161.686C290.713 166.301 291.316 169.745 292.523 172.017C293.73 174.218 295.648 175.318 298.275 175.318C300.121 175.318 301.967 174.821 303.813 173.827C305.73 172.762 307.292 171.555 308.5 170.206V149.331C308.5 148.053 308.535 146.597 308.606 144.964C308.677 143.26 308.784 141.627 308.926 140.065C307.789 140.136 306.44 140.207 304.878 140.278C303.387 140.278 302.251 140.313 301.47 140.384V132.29H304.026C307.363 132.29 310.31 131.934 312.866 131.224C315.422 130.443 317.056 129.733 317.766 129.094H323.624V166.265C323.624 167.259 323.588 168.68 323.517 170.526C323.446 172.301 323.34 174.005 323.198 175.638C324.334 175.496 325.576 175.425 326.925 175.425C328.345 175.354 329.41 175.318 330.12 175.318V183.413H309.884C309.813 182.49 309.707 181.567 309.565 180.644C309.494 179.721 309.387 178.798 309.245 177.875C307.044 179.721 304.665 181.389 302.109 182.88C299.624 184.372 296.677 185.117 293.269 185.117Z" fill="black"/>
<path d="M361.558 185.117C358.504 185.117 355.522 184.727 352.611 183.946C349.7 183.164 347.428 182.17 345.795 180.963L346.008 184.159H337.913L337.487 165.839H344.41C344.623 167.969 345.475 169.922 346.966 171.697C348.457 173.472 350.41 174.892 352.824 175.958C355.238 176.952 357.936 177.449 360.919 177.449C362.126 177.449 363.262 177.271 364.327 176.916C365.463 176.561 366.386 175.993 367.096 175.212C367.877 174.36 368.268 173.33 368.268 172.123C368.268 170.774 367.771 169.674 366.776 168.822C365.853 167.969 364.469 167.153 362.623 166.372C360.848 165.591 358.611 164.703 355.913 163.709C353.712 162.857 351.475 161.97 349.203 161.046C347.002 160.123 344.942 159.023 343.025 157.745C341.179 156.396 339.688 154.763 338.552 152.845C337.416 150.857 336.848 148.443 336.848 145.603C336.848 143.544 337.238 141.52 338.02 139.532C338.801 137.473 340.008 135.627 341.641 133.994C343.274 132.29 345.333 130.94 347.818 129.946C350.374 128.952 353.392 128.455 356.871 128.455C358.788 128.455 360.954 128.775 363.368 129.414C365.853 129.982 367.948 130.869 369.652 132.076V128.988H377.747V147.84H370.824C370.398 145.354 369.51 143.224 368.161 141.449C366.883 139.674 365.214 138.325 363.155 137.402C361.096 136.408 358.788 135.911 356.232 135.911C354.457 135.911 352.824 136.337 351.333 137.189C349.913 138.041 349.203 139.497 349.203 141.556C349.203 143.189 349.771 144.502 350.907 145.496C352.043 146.419 353.605 147.201 355.593 147.84C357.581 148.479 359.782 149.224 362.197 150.076C365.818 151.283 369.013 152.703 371.782 154.337C374.623 155.97 376.859 157.958 378.492 160.301C380.125 162.573 380.942 165.378 380.942 168.715C380.942 172.407 380.019 175.46 378.173 177.875C376.327 180.289 373.912 182.099 370.93 183.307C368.019 184.514 364.895 185.117 361.558 185.117Z" fill="black"/>
<path d="M124.645 185.117C122.514 185.117 120.455 184.869 118.467 184.372C116.479 183.875 114.704 182.951 113.142 181.602C111.58 180.182 110.337 178.123 109.414 175.425C108.491 172.727 108.029 169.141 108.029 164.668L108.242 138.999H101V130.159C103.201 130.088 105.331 129.343 107.39 127.923C109.45 126.503 111.189 124.656 112.609 122.384C114.1 120.112 115.094 117.734 115.592 115.248H123.473L123.367 130.159H136.893V138.36L123.367 138.68L123.26 164.881C123.26 166.514 123.402 168.147 123.686 169.78C124.041 171.342 124.68 172.656 125.603 173.721C126.526 174.715 127.875 175.212 129.65 175.212C130.645 175.212 131.994 174.857 133.698 174.147C135.473 173.437 137.354 171.662 139.343 168.822L144.455 173.614C142.538 176.455 140.55 178.656 138.491 180.218C136.431 181.78 134.443 182.916 132.526 183.626C130.68 184.336 129.047 184.762 127.627 184.904C126.207 185.046 125.213 185.117 124.645 185.117Z" stroke="black" stroke-width="3.21794" mask="url(#path-1-outside-1_9291_1474)"/>
<path d="M172.795 185.117C167.612 185.117 163.032 183.981 159.056 181.709C155.079 179.366 151.991 176.1 149.789 171.91C147.588 167.65 146.488 162.644 146.488 156.893C146.488 151.922 147.588 147.272 149.789 142.94C151.991 138.609 155.079 135.13 159.056 132.503C163.103 129.804 167.789 128.455 173.115 128.455C176.097 128.455 179.008 128.881 181.848 129.733C184.688 130.514 187.245 131.899 189.517 133.887C191.86 135.875 193.706 138.573 195.055 141.982C196.475 145.39 197.15 149.65 197.079 154.763L162.144 155.402C162.144 159.236 162.606 162.68 163.529 165.733C164.523 168.786 166.121 171.2 168.322 172.975C170.523 174.75 173.47 175.638 177.162 175.638C178.582 175.638 180.18 175.389 181.955 174.892C183.801 174.395 185.647 173.579 187.493 172.443C189.41 171.236 191.185 169.638 192.818 167.65L197.611 172.123C195.055 175.744 192.321 178.514 189.41 180.431C186.499 182.277 183.588 183.52 180.677 184.159C177.836 184.798 175.209 185.117 172.795 185.117ZM162.783 147.946H182.381C182.31 144.964 181.884 142.621 181.103 140.917C180.393 139.141 179.399 137.863 178.12 137.082C176.842 136.301 175.351 135.911 173.647 135.911C170.523 135.911 168.073 137.047 166.298 139.319C164.523 141.52 163.351 144.396 162.783 147.946Z" stroke="black" stroke-width="3.21794" mask="url(#path-1-outside-1_9291_1474)"/>
<path d="M203.159 176.49C205.147 176.49 206.567 176.1 207.419 175.318C208.342 174.537 208.91 173.437 209.123 172.017C209.336 170.526 209.443 168.857 209.443 167.011V123.236C209.443 121.958 209.478 120.503 209.549 118.87C209.62 117.165 209.727 115.532 209.869 113.97C208.733 114.041 207.384 114.112 205.821 114.183C204.33 114.183 203.194 114.219 202.413 114.29V106.195C205.75 106.195 208.52 106.018 210.721 105.663C212.993 105.308 214.768 104.882 216.046 104.385C217.395 103.888 218.318 103.426 218.815 103H224.567V166.265C224.567 167.259 224.531 168.68 224.46 170.526C224.389 172.301 224.283 174.005 224.141 175.638C225.348 175.496 226.626 175.425 227.975 175.425C229.324 175.354 230.354 175.318 231.064 175.318V183.413H203.159V176.49Z" stroke="black" stroke-width="3.21794" mask="url(#path-1-outside-1_9291_1474)"/>
<path d="M236.338 176.49C238.326 176.49 239.747 176.1 240.599 175.318C241.522 174.537 242.09 173.437 242.303 172.017C242.516 170.526 242.622 168.857 242.622 167.011V123.236C242.622 121.958 242.658 120.503 242.729 118.87C242.8 117.165 242.906 115.532 243.048 113.97C241.912 114.041 240.563 114.112 239.001 114.183C237.51 114.183 236.374 114.219 235.593 114.29V106.195C238.93 106.195 241.699 106.018 243.9 105.663C246.173 105.308 247.948 104.882 249.226 104.385C250.575 103.888 251.498 103.426 251.995 103H257.746V166.265C257.746 167.259 257.711 168.68 257.64 170.526C257.569 172.301 257.462 174.005 257.32 175.638C258.527 175.496 259.805 175.425 261.155 175.425C262.504 175.354 263.533 175.318 264.243 175.318V183.413H236.338V176.49Z" stroke="black" stroke-width="3.21794" mask="url(#path-1-outside-1_9291_1474)"/>
<path d="M293.269 185.117C289.009 185.117 285.565 184.301 282.938 182.667C280.382 181.034 278.5 178.478 277.293 174.999C276.157 171.52 275.589 167.046 275.589 161.579V149.331C275.589 148.053 275.624 146.597 275.695 144.964C275.766 143.26 275.837 141.627 275.908 140.065C274.772 140.136 273.423 140.207 271.861 140.278C270.37 140.278 269.234 140.313 268.453 140.384V132.29H269.518C273.92 132.29 277.399 131.934 279.956 131.224C282.512 130.514 284.145 129.804 284.855 129.094H290.713V161.686C290.713 166.301 291.316 169.745 292.523 172.017C293.73 174.218 295.648 175.318 298.275 175.318C300.121 175.318 301.967 174.821 303.813 173.827C305.73 172.762 307.292 171.555 308.5 170.206V149.331C308.5 148.053 308.535 146.597 308.606 144.964C308.677 143.26 308.784 141.627 308.926 140.065C307.789 140.136 306.44 140.207 304.878 140.278C303.387 140.278 302.251 140.313 301.47 140.384V132.29H304.026C307.363 132.29 310.31 131.934 312.866 131.224C315.422 130.443 317.056 129.733 317.766 129.094H323.624V166.265C323.624 167.259 323.588 168.68 323.517 170.526C323.446 172.301 323.34 174.005 323.198 175.638C324.334 175.496 325.576 175.425 326.925 175.425C328.345 175.354 329.41 175.318 330.12 175.318V183.413H309.884C309.813 182.49 309.707 181.567 309.565 180.644C309.494 179.721 309.387 178.798 309.245 177.875C307.044 179.721 304.665 181.389 302.109 182.88C299.624 184.372 296.677 185.117 293.269 185.117Z" stroke="black" stroke-width="3.21794" mask="url(#path-1-outside-1_9291_1474)"/>
<path d="M361.558 185.117C358.504 185.117 355.522 184.727 352.611 183.946C349.7 183.164 347.428 182.17 345.795 180.963L346.008 184.159H337.913L337.487 165.839H344.41C344.623 167.969 345.475 169.922 346.966 171.697C348.457 173.472 350.41 174.892 352.824 175.958C355.238 176.952 357.936 177.449 360.919 177.449C362.126 177.449 363.262 177.271 364.327 176.916C365.463 176.561 366.386 175.993 367.096 175.212C367.877 174.36 368.268 173.33 368.268 172.123C368.268 170.774 367.771 169.674 366.776 168.822C365.853 167.969 364.469 167.153 362.623 166.372C360.848 165.591 358.611 164.703 355.913 163.709C353.712 162.857 351.475 161.97 349.203 161.046C347.002 160.123 344.942 159.023 343.025 157.745C341.179 156.396 339.688 154.763 338.552 152.845C337.416 150.857 336.848 148.443 336.848 145.603C336.848 143.544 337.238 141.52 338.02 139.532C338.801 137.473 340.008 135.627 341.641 133.994C343.274 132.29 345.333 130.94 347.818 129.946C350.374 128.952 353.392 128.455 356.871 128.455C358.788 128.455 360.954 128.775 363.368 129.414C365.853 129.982 367.948 130.869 369.652 132.076V128.988H377.747V147.84H370.824C370.398 145.354 369.51 143.224 368.161 141.449C366.883 139.674 365.214 138.325 363.155 137.402C361.096 136.408 358.788 135.911 356.232 135.911C354.457 135.911 352.824 136.337 351.333 137.189C349.913 138.041 349.203 139.497 349.203 141.556C349.203 143.189 349.771 144.502 350.907 145.496C352.043 146.419 353.605 147.201 355.593 147.84C357.581 148.479 359.782 149.224 362.197 150.076C365.818 151.283 369.013 152.703 371.782 154.337C374.623 155.97 376.859 157.958 378.492 160.301C380.125 162.573 380.942 165.378 380.942 168.715C380.942 172.407 380.019 175.46 378.173 177.875C376.327 180.289 373.912 182.099 370.93 183.307C368.019 184.514 364.895 185.117 361.558 185.117Z" stroke="black" stroke-width="3.21794" mask="url(#path-1-outside-1_9291_1474)"/>
<mask id="path-2-outside-2_9291_1474" maskUnits="userSpaceOnUse" x="103.625" y="202.424" width="593" height="111" fill="black">
<rect fill="white" x="103.625" y="202.424" width="593" height="111"/>
<path d="M131.826 286.328C127.068 286.328 122.702 285.263 118.725 283.133C114.749 281.003 111.554 277.914 109.14 273.867C106.797 269.819 105.625 264.92 105.625 259.169C105.625 255.121 106.3 251.323 107.649 247.772C108.998 244.222 110.879 241.098 113.294 238.4C115.779 235.701 118.69 233.571 122.027 232.009C125.435 230.447 129.199 229.666 133.317 229.666C137.861 229.666 141.624 230.376 144.607 231.796C147.66 233.145 149.932 234.956 151.423 237.228C152.985 239.429 153.766 241.772 153.766 244.258C153.766 246.317 153.127 248.163 151.849 249.796C150.642 251.358 148.902 252.175 146.63 252.246C143.932 252.317 142.05 251.571 140.985 250.009C139.92 248.376 139.388 246.814 139.388 245.323C139.388 244.684 139.494 243.938 139.707 243.086C139.92 242.163 140.24 241.346 140.666 240.636C140.169 239.571 139.423 238.79 138.429 238.293C137.435 237.796 136.406 237.477 135.341 237.335C134.346 237.122 133.53 237.051 132.891 237.122C129.483 237.335 126.678 239.039 124.477 242.234C122.276 245.429 121.175 250.044 121.175 256.08C121.175 259.63 121.601 262.967 122.453 266.092C123.376 269.145 124.867 271.665 126.926 273.654C128.986 275.642 131.755 276.707 135.234 276.849C138.216 276.92 141.127 276.21 143.968 274.719C146.808 273.228 149.222 271.204 151.21 268.648L156.109 273.441C153.553 276.991 150.891 279.689 148.121 281.535C145.352 283.381 142.583 284.624 139.814 285.263C137.116 285.973 134.453 286.328 131.826 286.328Z"/>
<path d="M187.91 286.328C182.798 286.328 178.183 285.227 174.064 283.026C169.946 280.825 166.68 277.701 164.266 273.654C161.922 269.535 160.751 264.707 160.751 259.169C160.751 253.275 161.958 248.127 164.372 243.725C166.857 239.252 170.123 235.808 174.171 233.394C178.289 230.909 182.762 229.666 187.591 229.666C192.703 229.666 197.283 230.767 201.33 232.968C205.377 235.169 208.573 238.329 210.916 242.447C213.259 246.494 214.431 251.358 214.431 257.038C214.431 263.003 213.294 268.186 211.022 272.588C208.75 276.991 205.626 280.399 201.65 282.813C197.673 285.156 193.094 286.328 187.91 286.328ZM188.336 278.766C191.176 278.695 193.307 277.701 194.727 275.784C196.218 273.867 197.247 271.452 197.815 268.541C198.383 265.63 198.667 262.683 198.667 259.701C198.667 257.074 198.454 254.411 198.028 251.713C197.673 249.015 197.07 246.565 196.218 244.364C195.366 242.163 194.194 240.388 192.703 239.039C191.283 237.69 189.508 237.051 187.378 237.122C184.608 237.193 182.407 238.187 180.774 240.104C179.212 242.021 178.076 244.435 177.366 247.346C176.727 250.186 176.407 253.169 176.407 256.293C176.407 259.914 176.798 263.464 177.579 266.944C178.36 270.423 179.603 273.299 181.307 275.571C183.082 277.772 185.425 278.837 188.336 278.766Z"/>
<path d="M248.237 286.328C243.124 286.328 238.509 285.227 234.391 283.026C230.272 280.825 227.006 277.701 224.592 273.654C222.249 269.535 221.077 264.707 221.077 259.169C221.077 253.275 222.284 248.127 224.698 243.725C227.184 239.252 230.45 235.808 234.497 233.394C238.615 230.909 243.089 229.666 247.917 229.666C253.029 229.666 257.609 230.767 261.657 232.968C265.704 235.169 268.899 238.329 271.242 242.447C273.585 246.494 274.757 251.358 274.757 257.038C274.757 263.003 273.621 268.186 271.349 272.588C269.077 276.991 265.952 280.399 261.976 282.813C258 285.156 253.42 286.328 248.237 286.328ZM248.663 278.766C251.503 278.695 253.633 277.701 255.053 275.784C256.544 273.867 257.574 271.452 258.142 268.541C258.71 265.63 258.994 262.683 258.994 259.701C258.994 257.074 258.781 254.411 258.355 251.713C258 249.015 257.396 246.565 256.544 244.364C255.692 242.163 254.521 240.388 253.029 239.039C251.609 237.69 249.834 237.051 247.704 237.122C244.935 237.193 242.734 238.187 241.101 240.104C239.539 242.021 238.402 244.435 237.692 247.346C237.053 250.186 236.734 253.169 236.734 256.293C236.734 259.914 237.124 263.464 237.905 266.944C238.686 270.423 239.929 273.299 241.633 275.571C243.408 277.772 245.751 278.837 248.663 278.766Z"/>
<path d="M281.404 311.783V304.86C283.392 304.86 284.812 304.47 285.664 303.689C286.587 302.908 287.155 301.772 287.368 300.28C287.652 298.86 287.794 297.227 287.794 295.381V250.328C287.794 249.05 287.83 247.63 287.901 246.068C287.972 244.435 288.078 242.837 288.22 241.275C287.084 241.346 285.735 241.417 284.173 241.488C282.611 241.488 281.439 241.524 280.658 241.595V233.5C283.995 233.5 286.765 233.323 288.966 232.968C291.238 232.613 293.013 232.187 294.291 231.69C295.64 231.193 296.563 230.731 297.06 230.305H302.279C302.421 231.015 302.528 231.903 302.599 232.968C302.67 233.962 302.741 234.778 302.812 235.417C305.297 233.287 307.746 231.796 310.161 230.944C312.646 230.092 314.989 229.666 317.19 229.666C321.45 229.666 325.178 230.767 328.373 232.968C331.64 235.169 334.16 238.293 335.935 242.34C337.782 246.388 338.705 251.145 338.705 256.612C338.705 262.293 337.604 267.405 335.403 271.949C333.202 276.423 330.113 279.938 326.137 282.494C322.231 285.05 317.616 286.328 312.291 286.328C310.374 286.328 308.634 286.115 307.072 285.689C305.581 285.334 304.161 284.908 302.812 284.411V294.636C302.812 295.63 302.776 297.014 302.705 298.789C302.705 300.635 302.634 302.375 302.492 304.008C303.628 303.866 304.871 303.76 306.22 303.689C307.569 303.689 308.599 303.689 309.309 303.689V311.783H281.404ZM310.587 278.34C313.853 278.269 316.374 277.31 318.149 275.464C319.995 273.547 321.273 271.062 321.983 268.009C322.693 264.955 323.048 261.689 323.048 258.21C323.048 254.944 322.657 251.855 321.876 248.944C321.095 246.033 319.853 243.69 318.149 241.914C316.445 240.068 314.208 239.181 311.439 239.252C309.664 239.323 308.03 239.784 306.539 240.636C305.048 241.417 303.806 242.518 302.812 243.938C302.812 246.139 302.812 248.34 302.812 250.541C302.812 252.672 302.812 254.802 302.812 256.932C302.812 259.062 302.812 261.228 302.812 263.429C302.812 265.559 302.812 267.725 302.812 269.926C302.812 272.056 302.812 274.222 302.812 276.423C303.593 276.92 304.693 277.381 306.113 277.807C307.533 278.233 309.025 278.411 310.587 278.34Z"/>
<path d="M371.678 286.328C366.494 286.328 361.915 285.192 357.938 282.92C353.962 280.577 350.873 277.31 348.672 273.121C346.471 268.861 345.37 263.855 345.37 258.104C345.37 253.133 346.471 248.482 348.672 244.151C350.873 239.82 353.962 236.341 357.938 233.713C361.986 231.015 366.672 229.666 371.997 229.666C374.979 229.666 377.891 230.092 380.731 230.944C383.571 231.725 386.127 233.11 388.399 235.098C390.743 237.086 392.589 239.784 393.938 243.192C395.358 246.601 396.032 250.861 395.961 255.973L361.027 256.612C361.027 260.447 361.489 263.89 362.412 266.944C363.406 269.997 365.003 272.411 367.204 274.186C369.406 275.961 372.352 276.849 376.045 276.849C377.465 276.849 379.062 276.6 380.837 276.103C382.684 275.606 384.53 274.79 386.376 273.654C388.293 272.446 390.068 270.849 391.701 268.861L396.494 273.334C393.938 276.955 391.204 279.724 388.293 281.642C385.382 283.488 382.471 284.73 379.559 285.369C376.719 286.008 374.092 286.328 371.678 286.328ZM361.666 249.157H381.263C381.192 246.175 380.766 243.832 379.985 242.127C379.275 240.352 378.281 239.074 377.003 238.293C375.725 237.512 374.234 237.122 372.53 237.122C369.406 237.122 366.956 238.258 365.181 240.53C363.406 242.731 362.234 245.607 361.666 249.157Z"/>
<path d="M403.746 277.701C405.734 277.701 407.154 277.31 408.006 276.529C408.858 275.748 409.39 274.648 409.604 273.228C409.888 271.736 410.03 270.068 410.03 268.222V250.328C410.03 249.05 410.065 247.63 410.136 246.068C410.207 244.435 410.314 242.837 410.456 241.275C409.319 241.346 407.97 241.417 406.408 241.488C404.917 241.488 403.781 241.524 403 241.595V233.5H407.26C410.03 233.5 412.55 233.145 414.822 232.435C417.166 231.725 418.692 231.015 419.402 230.305H424.621C424.763 231.015 424.87 232.364 424.941 234.352C425.012 236.27 425.047 237.974 425.047 239.465C426.964 237.122 428.775 235.24 430.479 233.82C432.183 232.4 433.852 231.37 435.485 230.731C437.189 230.021 438.893 229.666 440.597 229.666C443.082 229.666 445.248 230.376 447.094 231.796C448.94 233.145 449.863 235.382 449.863 238.506C449.863 239.571 449.615 240.707 449.118 241.914C448.621 243.05 447.84 244.009 446.775 244.79C445.709 245.571 444.254 245.962 442.408 245.962C440.988 245.962 439.532 245.536 438.041 244.684C436.55 243.832 435.698 242.198 435.485 239.784C434.065 239.784 432.645 240.388 431.225 241.595C429.804 242.731 428.526 244.116 427.39 245.749C426.325 247.311 425.58 248.766 425.154 250.115V267.476C425.154 268.47 425.118 269.89 425.047 271.736C424.976 273.512 424.87 275.216 424.728 276.849C425.864 276.707 427.106 276.636 428.455 276.636C429.875 276.565 430.94 276.529 431.651 276.529V284.624H403.746V277.701Z"/>
<path d="M484.008 284.624C483.866 283.63 483.76 282.813 483.689 282.174C483.689 281.464 483.653 280.648 483.582 279.724C481.168 282.139 478.612 283.843 475.913 284.837C473.215 285.831 470.482 286.328 467.712 286.328C463.168 286.328 459.618 284.979 457.062 282.281C454.506 279.582 453.227 276.21 453.227 272.162C453.227 268.754 454.079 265.843 455.784 263.429C457.559 261.015 459.866 259.062 462.707 257.571C465.618 256.009 468.813 254.837 472.292 254.056C475.842 253.204 479.393 252.707 482.943 252.565V247.027C482.943 245.181 482.694 243.512 482.197 242.021C481.771 240.53 480.99 239.358 479.854 238.506C478.789 237.654 477.263 237.264 475.274 237.335C473.925 237.406 472.612 237.69 471.334 238.187C470.056 238.684 468.955 239.394 468.032 240.317C468.6 240.956 468.955 241.666 469.097 242.447C469.239 243.157 469.31 243.796 469.31 244.364C469.31 245.784 468.742 247.275 467.606 248.837C466.47 250.328 464.659 251.039 462.174 250.968C460.044 250.897 458.411 250.151 457.275 248.731C456.139 247.311 455.571 245.642 455.571 243.725C455.571 240.885 456.565 238.435 458.553 236.376C460.612 234.246 463.346 232.613 466.754 231.477C470.162 230.27 473.925 229.666 478.044 229.666C484.292 229.666 489.12 231.299 492.529 234.565C496.008 237.761 497.747 242.908 497.747 250.009C497.747 252.423 497.747 254.482 497.747 256.186C497.747 257.89 497.712 259.595 497.641 261.299C497.641 263.003 497.641 265.062 497.641 267.476C497.641 268.47 497.605 269.89 497.534 271.736C497.463 273.512 497.357 275.216 497.215 276.849C498.422 276.707 499.7 276.636 501.049 276.636C502.398 276.565 503.428 276.529 504.138 276.529V284.624H484.008ZM482.836 260.127C480.848 260.34 478.967 260.695 477.192 261.192C475.416 261.689 473.854 262.364 472.505 263.216C471.227 264.068 470.198 265.097 469.417 266.305C468.706 267.512 468.351 268.861 468.351 270.352C468.422 272.34 469.061 273.76 470.269 274.612C471.476 275.464 472.86 275.89 474.422 275.89C476.055 275.89 477.582 275.535 479.002 274.825C480.422 274.115 481.7 273.192 482.836 272.056C482.836 271.346 482.836 270.671 482.836 270.032C482.836 269.322 482.836 268.612 482.836 267.902C482.836 266.624 482.836 265.346 482.836 264.068C482.836 262.719 482.836 261.405 482.836 260.127Z"/>
<path d="M530.925 286.328C528.795 286.328 526.736 286.079 524.748 285.582C522.76 285.085 520.985 284.162 519.423 282.813C517.86 281.393 516.618 279.334 515.695 276.636C514.772 273.938 514.31 270.352 514.31 265.879L514.523 240.21H507.281V231.37C509.482 231.299 511.612 230.554 513.671 229.134C515.73 227.713 517.47 225.867 518.89 223.595C520.381 221.323 521.375 218.944 521.872 216.459H529.754L529.647 231.37H543.174V239.571L529.647 239.891L529.541 266.092C529.541 267.725 529.683 269.358 529.967 270.991C530.322 272.553 530.961 273.867 531.884 274.932C532.807 275.926 534.156 276.423 535.931 276.423C536.925 276.423 538.274 276.068 539.978 275.358C541.754 274.648 543.635 272.873 545.623 270.032L550.736 274.825C548.819 277.665 546.83 279.866 544.771 281.429C542.712 282.991 540.724 284.127 538.807 284.837C536.961 285.547 535.328 285.973 533.907 286.115C532.487 286.257 531.493 286.328 530.925 286.328Z"/>
<path d="M553.834 277.701C555.822 277.701 557.242 277.31 558.094 276.529C558.946 275.748 559.478 274.648 559.691 273.228C559.975 271.736 560.117 270.068 560.117 268.222V250.541C560.117 249.263 560.153 247.808 560.224 246.175C560.295 244.471 560.402 242.837 560.544 241.275C559.407 241.346 558.058 241.417 556.496 241.488C555.005 241.488 553.869 241.524 553.088 241.595V233.5C556.354 233.5 559.123 233.323 561.396 232.968C563.668 232.613 565.443 232.187 566.721 231.69C568.07 231.193 568.993 230.731 569.49 230.305H575.242V267.476C575.242 268.47 575.206 269.89 575.135 271.736C575.064 273.512 574.957 275.216 574.815 276.849C575.952 276.707 577.194 276.636 578.543 276.636C579.963 276.565 581.028 276.529 581.738 276.529V284.624H553.834V277.701ZM567.147 221.891C564.733 221.891 562.745 221.039 561.183 219.335C559.62 217.631 558.839 215.572 558.839 213.157C558.839 210.743 559.656 208.684 561.289 206.98C562.922 205.276 564.839 204.424 567.04 204.424C569.313 204.424 571.194 205.276 572.685 206.98C574.247 208.684 575.028 210.743 575.028 213.157C575.028 215.572 574.318 217.631 572.898 219.335C571.478 221.039 569.561 221.891 567.147 221.891Z"/>
<path d="M607.759 284.943L590.931 247.985C590.15 246.21 589.582 244.861 589.227 243.938C588.943 243.015 588.73 242.234 588.588 241.595C588.517 240.885 588.375 240.104 588.162 239.252L584.221 239.465V231.37H609.144V238.187C607.653 238.258 606.659 238.684 606.162 239.465C605.665 240.246 605.487 241.275 605.629 242.553C605.771 243.761 606.091 245.074 606.588 246.494L612.126 260.127C612.694 261.476 613.262 262.861 613.83 264.281C614.398 265.701 614.966 267.121 615.535 268.541H615.641C616.209 267.05 616.742 265.559 617.239 264.068C617.807 262.577 618.339 261.086 618.836 259.595L623.416 246.601C624.055 244.826 624.623 243.405 625.12 242.34C625.688 241.275 626.292 240.175 626.931 239.039L620.327 239.465V231.37H640.564V238.187C638.931 238.471 637.475 239.394 636.197 240.956C634.919 242.447 633.818 244.151 632.895 246.068C631.972 247.914 631.227 249.547 630.659 250.968L617.026 284.943H607.759Z"/>
<path d="M669.253 286.328C664.07 286.328 659.49 285.192 655.514 282.92C651.538 280.577 648.449 277.31 646.248 273.121C644.047 268.861 642.946 263.855 642.946 258.104C642.946 253.133 644.047 248.482 646.248 244.151C648.449 239.82 651.538 236.341 655.514 233.713C659.561 231.015 664.248 229.666 669.573 229.666C672.555 229.666 675.466 230.092 678.307 230.944C681.147 231.725 683.703 233.11 685.975 235.098C688.318 237.086 690.164 239.784 691.513 243.192C692.934 246.601 693.608 250.861 693.537 255.973L658.603 256.612C658.603 260.447 659.064 263.89 659.987 266.944C660.981 269.997 662.579 272.411 664.78 274.186C666.981 275.961 669.928 276.849 673.62 276.849C675.04 276.849 676.638 276.6 678.413 276.103C680.259 275.606 682.105 274.79 683.951 273.654C685.869 272.446 687.644 270.849 689.277 268.861L694.07 273.334C691.513 276.955 688.78 279.724 685.869 281.642C682.957 283.488 680.046 284.73 677.135 285.369C674.295 286.008 671.668 286.328 669.253 286.328ZM659.242 249.157H678.839C678.768 246.175 678.342 243.832 677.561 242.127C676.851 240.352 675.857 239.074 674.579 238.293C673.301 237.512 671.81 237.122 670.105 237.122C666.981 237.122 664.532 238.258 662.756 240.53C660.981 242.731 659.81 245.607 659.242 249.157Z"/>
</mask>
<path d="M131.826 286.328C127.068 286.328 122.702 285.263 118.725 283.133C114.749 281.003 111.554 277.914 109.14 273.867C106.797 269.819 105.625 264.92 105.625 259.169C105.625 255.121 106.3 251.323 107.649 247.772C108.998 244.222 110.879 241.098 113.294 238.4C115.779 235.701 118.69 233.571 122.027 232.009C125.435 230.447 129.199 229.666 133.317 229.666C137.861 229.666 141.624 230.376 144.607 231.796C147.66 233.145 149.932 234.956 151.423 237.228C152.985 239.429 153.766 241.772 153.766 244.258C153.766 246.317 153.127 248.163 151.849 249.796C150.642 251.358 148.902 252.175 146.63 252.246C143.932 252.317 142.05 251.571 140.985 250.009C139.92 248.376 139.388 246.814 139.388 245.323C139.388 244.684 139.494 243.938 139.707 243.086C139.92 242.163 140.24 241.346 140.666 240.636C140.169 239.571 139.423 238.79 138.429 238.293C137.435 237.796 136.406 237.477 135.341 237.335C134.346 237.122 133.53 237.051 132.891 237.122C129.483 237.335 126.678 239.039 124.477 242.234C122.276 245.429 121.175 250.044 121.175 256.08C121.175 259.63 121.601 262.967 122.453 266.092C123.376 269.145 124.867 271.665 126.926 273.654C128.986 275.642 131.755 276.707 135.234 276.849C138.216 276.92 141.127 276.21 143.968 274.719C146.808 273.228 149.222 271.204 151.21 268.648L156.109 273.441C153.553 276.991 150.891 279.689 148.121 281.535C145.352 283.381 142.583 284.624 139.814 285.263C137.116 285.973 134.453 286.328 131.826 286.328Z" fill="black"/>
<path d="M187.91 286.328C182.798 286.328 178.183 285.227 174.064 283.026C169.946 280.825 166.68 277.701 164.266 273.654C161.922 269.535 160.751 264.707 160.751 259.169C160.751 253.275 161.958 248.127 164.372 243.725C166.857 239.252 170.123 235.808 174.171 233.394C178.289 230.909 182.762 229.666 187.591 229.666C192.703 229.666 197.283 230.767 201.33 232.968C205.377 235.169 208.573 238.329 210.916 242.447C213.259 246.494 214.431 251.358 214.431 257.038C214.431 263.003 213.294 268.186 211.022 272.588C208.75 276.991 205.626 280.399 201.65 282.813C197.673 285.156 193.094 286.328 187.91 286.328ZM188.336 278.766C191.176 278.695 193.307 277.701 194.727 275.784C196.218 273.867 197.247 271.452 197.815 268.541C198.383 265.63 198.667 262.683 198.667 259.701C198.667 257.074 198.454 254.411 198.028 251.713C197.673 249.015 197.07 246.565 196.218 244.364C195.366 242.163 194.194 240.388 192.703 239.039C191.283 237.69 189.508 237.051 187.378 237.122C184.608 237.193 182.407 238.187 180.774 240.104C179.212 242.021 178.076 244.435 177.366 247.346C176.727 250.186 176.407 253.169 176.407 256.293C176.407 259.914 176.798 263.464 177.579 266.944C178.36 270.423 179.603 273.299 181.307 275.571C183.082 277.772 185.425 278.837 188.336 278.766Z" fill="black"/>
<path d="M248.237 286.328C243.124 286.328 238.509 285.227 234.391 283.026C230.272 280.825 227.006 277.701 224.592 273.654C222.249 269.535 221.077 264.707 221.077 259.169C221.077 253.275 222.284 248.127 224.698 243.725C227.184 239.252 230.45 235.808 234.497 233.394C238.615 230.909 243.089 229.666 247.917 229.666C253.029 229.666 257.609 230.767 261.657 232.968C265.704 235.169 268.899 238.329 271.242 242.447C273.585 246.494 274.757 251.358 274.757 257.038C274.757 263.003 273.621 268.186 271.349 272.588C269.077 276.991 265.952 280.399 261.976 282.813C258 285.156 253.42 286.328 248.237 286.328ZM248.663 278.766C251.503 278.695 253.633 277.701 255.053 275.784C256.544 273.867 257.574 271.452 258.142 268.541C258.71 265.63 258.994 262.683 258.994 259.701C258.994 257.074 258.781 254.411 258.355 251.713C258 249.015 257.396 246.565 256.544 244.364C255.692 242.163 254.521 240.388 253.029 239.039C251.609 237.69 249.834 237.051 247.704 237.122C244.935 237.193 242.734 238.187 241.101 240.104C239.539 242.021 238.402 244.435 237.692 247.346C237.053 250.186 236.734 253.169 236.734 256.293C236.734 259.914 237.124 263.464 237.905 266.944C238.686 270.423 239.929 273.299 241.633 275.571C243.408 277.772 245.751 278.837 248.663 278.766Z" fill="black"/>
<path d="M281.404 311.783V304.86C283.392 304.86 284.812 304.47 285.664 303.689C286.587 302.908 287.155 301.772 287.368 300.28C287.652 298.86 287.794 297.227 287.794 295.381V250.328C287.794 249.05 287.83 247.63 287.901 246.068C287.972 244.435 288.078 242.837 288.22 241.275C287.084 241.346 285.735 241.417 284.173 241.488C282.611 241.488 281.439 241.524 280.658 241.595V233.5C283.995 233.5 286.765 233.323 288.966 232.968C291.238 232.613 293.013 232.187 294.291 231.69C295.64 231.193 296.563 230.731 297.06 230.305H302.279C302.421 231.015 302.528 231.903 302.599 232.968C302.67 233.962 302.741 234.778 302.812 235.417C305.297 233.287 307.746 231.796 310.161 230.944C312.646 230.092 314.989 229.666 317.19 229.666C321.45 229.666 325.178 230.767 328.373 232.968C331.64 235.169 334.16 238.293 335.935 242.34C337.782 246.388 338.705 251.145 338.705 256.612C338.705 262.293 337.604 267.405 335.403 271.949C333.202 276.423 330.113 279.938 326.137 282.494C322.231 285.05 317.616 286.328 312.291 286.328C310.374 286.328 308.634 286.115 307.072 285.689C305.581 285.334 304.161 284.908 302.812 284.411V294.636C302.812 295.63 302.776 297.014 302.705 298.789C302.705 300.635 302.634 302.375 302.492 304.008C303.628 303.866 304.871 303.76 306.22 303.689C307.569 303.689 308.599 303.689 309.309 303.689V311.783H281.404ZM310.587 278.34C313.853 278.269 316.374 277.31 318.149 275.464C319.995 273.547 321.273 271.062 321.983 268.009C322.693 264.955 323.048 261.689 323.048 258.21C323.048 254.944 322.657 251.855 321.876 248.944C321.095 246.033 319.853 243.69 318.149 241.914C316.445 240.068 314.208 239.181 311.439 239.252C309.664 239.323 308.03 239.784 306.539 240.636C305.048 241.417 303.806 242.518 302.812 243.938C302.812 246.139 302.812 248.34 302.812 250.541C302.812 252.672 302.812 254.802 302.812 256.932C302.812 259.062 302.812 261.228 302.812 263.429C302.812 265.559 302.812 267.725 302.812 269.926C302.812 272.056 302.812 274.222 302.812 276.423C303.593 276.92 304.693 277.381 306.113 277.807C307.533 278.233 309.025 278.411 310.587 278.34Z" fill="black"/>
<path d="M371.678 286.328C366.494 286.328 361.915 285.192 357.938 282.92C353.962 280.577 350.873 277.31 348.672 273.121C346.471 268.861 345.37 263.855 345.37 258.104C345.37 253.133 346.471 248.482 348.672 244.151C350.873 239.82 353.962 236.341 357.938 233.713C361.986 231.015 366.672 229.666 371.997 229.666C374.979 229.666 377.891 230.092 380.731 230.944C383.571 231.725 386.127 233.11 388.399 235.098C390.743 237.086 392.589 239.784 393.938 243.192C395.358 246.601 396.032 250.861 395.961 255.973L361.027 256.612C361.027 260.447 361.489 263.89 362.412 266.944C363.406 269.997 365.003 272.411 367.204 274.186C369.406 275.961 372.352 276.849 376.045 276.849C377.465 276.849 379.062 276.6 380.837 276.103C382.684 275.606 384.53 274.79 386.376 273.654C388.293 272.446 390.068 270.849 391.701 268.861L396.494 273.334C393.938 276.955 391.204 279.724 388.293 281.642C385.382 283.488 382.471 284.73 379.559 285.369C376.719 286.008 374.092 286.328 371.678 286.328ZM361.666 249.157H381.263C381.192 246.175 380.766 243.832 379.985 242.127C379.275 240.352 378.281 239.074 377.003 238.293C375.725 237.512 374.234 237.122 372.53 237.122C369.406 237.122 366.956 238.258 365.181 240.53C363.406 242.731 362.234 245.607 361.666 249.157Z" fill="black"/>
<path d="M403.746 277.701C405.734 277.701 407.154 277.31 408.006 276.529C408.858 275.748 409.39 274.648 409.604 273.228C409.888 271.736 410.03 270.068 410.03 268.222V250.328C410.03 249.05 410.065 247.63 410.136 246.068C410.207 244.435 410.314 242.837 410.456 241.275C409.319 241.346 407.97 241.417 406.408 241.488C404.917 241.488 403.781 241.524 403 241.595V233.5H407.26C410.03 233.5 412.55 233.145 414.822 232.435C417.166 231.725 418.692 231.015 419.402 230.305H424.621C424.763 231.015 424.87 232.364 424.941 234.352C425.012 236.27 425.047 237.974 425.047 239.465C426.964 237.122 428.775 235.24 430.479 233.82C432.183 232.4 433.852 231.37 435.485 230.731C437.189 230.021 438.893 229.666 440.597 229.666C443.082 229.666 445.248 230.376 447.094 231.796C448.94 233.145 449.863 235.382 449.863 238.506C449.863 239.571 449.615 240.707 449.118 241.914C448.621 243.05 447.84 244.009 446.775 244.79C445.709 245.571 444.254 245.962 442.408 245.962C440.988 245.962 439.532 245.536 438.041 244.684C436.55 243.832 435.698 242.198 435.485 239.784C434.065 239.784 432.645 240.388 431.225 241.595C429.804 242.731 428.526 244.116 427.39 245.749C426.325 247.311 425.58 248.766 425.154 250.115V267.476C425.154 268.47 425.118 269.89 425.047 271.736C424.976 273.512 424.87 275.216 424.728 276.849C425.864 276.707 427.106 276.636 428.455 276.636C429.875 276.565 430.94 276.529 431.651 276.529V284.624H403.746V277.701Z" fill="black"/>
<path d="M484.008 284.624C483.866 283.63 483.76 282.813 483.689 282.174C483.689 281.464 483.653 280.648 483.582 279.724C481.168 282.139 478.612 283.843 475.913 284.837C473.215 285.831 470.482 286.328 467.712 286.328C463.168 286.328 459.618 284.979 457.062 282.281C454.506 279.582 453.227 276.21 453.227 272.162C453.227 268.754 454.079 265.843 455.784 263.429C457.559 261.015 459.866 259.062 462.707 257.571C465.618 256.009 468.813 254.837 472.292 254.056C475.842 253.204 479.393 252.707 482.943 252.565V247.027C482.943 245.181 482.694 243.512 482.197 242.021C481.771 240.53 480.99 239.358 479.854 238.506C478.789 237.654 477.263 237.264 475.274 237.335C473.925 237.406 472.612 237.69 471.334 238.187C470.056 238.684 468.955 239.394 468.032 240.317C468.6 240.956 468.955 241.666 469.097 242.447C469.239 243.157 469.31 243.796 469.31 244.364C469.31 245.784 468.742 247.275 467.606 248.837C466.47 250.328 464.659 251.039 462.174 250.968C460.044 250.897 458.411 250.151 457.275 248.731C456.139 247.311 455.571 245.642 455.571 243.725C455.571 240.885 456.565 238.435 458.553 236.376C460.612 234.246 463.346 232.613 466.754 231.477C470.162 230.27 473.925 229.666 478.044 229.666C484.292 229.666 489.12 231.299 492.529 234.565C496.008 237.761 497.747 242.908 497.747 250.009C497.747 252.423 497.747 254.482 497.747 256.186C497.747 257.89 497.712 259.595 497.641 261.299C497.641 263.003 497.641 265.062 497.641 267.476C497.641 268.47 497.605 269.89 497.534 271.736C497.463 273.512 497.357 275.216 497.215 276.849C498.422 276.707 499.7 276.636 501.049 276.636C502.398 276.565 503.428 276.529 504.138 276.529V284.624H484.008ZM482.836 260.127C480.848 260.34 478.967 260.695 477.192 261.192C475.416 261.689 473.854 262.364 472.505 263.216C471.227 264.068 470.198 265.097 469.417 266.305C468.706 267.512 468.351 268.861 468.351 270.352C468.422 272.34 469.061 273.76 470.269 274.612C471.476 275.464 472.86 275.89 474.422 275.89C476.055 275.89 477.582 275.535 479.002 274.825C480.422 274.115 481.7 273.192 482.836 272.056C482.836 271.346 482.836 270.671 482.836 270.032C482.836 269.322 482.836 268.612 482.836 267.902C482.836 266.624 482.836 265.346 482.836 264.068C482.836 262.719 482.836 261.405 482.836 260.127Z" fill="black"/>
<path d="M530.925 286.328C528.795 286.328 526.736 286.079 524.748 285.582C522.76 285.085 520.985 284.162 519.423 282.813C517.86 281.393 516.618 279.334 515.695 276.636C514.772 273.938 514.31 270.352 514.31 265.879L514.523 240.21H507.281V231.37C509.482 231.299 511.612 230.554 513.671 229.134C515.73 227.713 517.47 225.867 518.89 223.595C520.381 221.323 521.375 218.944 521.872 216.459H529.754L529.647 231.37H543.174V239.571L529.647 239.891L529.541 266.092C529.541 267.725 529.683 269.358 529.967 270.991C530.322 272.553 530.961 273.867 531.884 274.932C532.807 275.926 534.156 276.423 535.931 276.423C536.925 276.423 538.274 276.068 539.978 275.358C541.754 274.648 543.635 272.873 545.623 270.032L550.736 274.825C548.819 277.665 546.83 279.866 544.771 281.429C542.712 282.991 540.724 284.127 538.807 284.837C536.961 285.547 535.328 285.973 533.907 286.115C532.487 286.257 531.493 286.328 530.925 286.328Z" fill="black"/>
<path d="M553.834 277.701C555.822 277.701 557.242 277.31 558.094 276.529C558.946 275.748 559.478 274.648 559.691 273.228C559.975 271.736 560.117 270.068 560.117 268.222V250.541C560.117 249.263 560.153 247.808 560.224 246.175C560.295 244.471 560.402 242.837 560.544 241.275C559.407 241.346 558.058 241.417 556.496 241.488C555.005 241.488 553.869 241.524 553.088 241.595V233.5C556.354 233.5 559.123 233.323 561.396 232.968C563.668 232.613 565.443 232.187 566.721 231.69C568.07 231.193 568.993 230.731 569.49 230.305H575.242V267.476C575.242 268.47 575.206 269.89 575.135 271.736C575.064 273.512 574.957 275.216 574.815 276.849C575.952 276.707 577.194 276.636 578.543 276.636C579.963 276.565 581.028 276.529 581.738 276.529V284.624H553.834V277.701ZM567.147 221.891C564.733 221.891 562.745 221.039 561.183 219.335C559.62 217.631 558.839 215.572 558.839 213.157C558.839 210.743 559.656 208.684 561.289 206.98C562.922 205.276 564.839 204.424 567.04 204.424C569.313 204.424 571.194 205.276 572.685 206.98C574.247 208.684 575.028 210.743 575.028 213.157C575.028 215.572 574.318 217.631 572.898 219.335C571.478 221.039 569.561 221.891 567.147 221.891Z" fill="black"/>
<path d="M607.759 284.943L590.931 247.985C590.15 246.21 589.582 244.861 589.227 243.938C588.943 243.015 588.73 242.234 588.588 241.595C588.517 240.885 588.375 240.104 588.162 239.252L584.221 239.465V231.37H609.144V238.187C607.653 238.258 606.659 238.684 606.162 239.465C605.665 240.246 605.487 241.275 605.629 242.553C605.771 243.761 606.091 245.074 606.588 246.494L612.126 260.127C612.694 261.476 613.262 262.861 613.83 264.281C614.398 265.701 614.966 267.121 615.535 268.541H615.641C616.209 267.05 616.742 265.559 617.239 264.068C617.807 262.577 618.339 261.086 618.836 259.595L623.416 246.601C624.055 244.826 624.623 243.405 625.12 242.34C625.688 241.275 626.292 240.175 626.931 239.039L620.327 239.465V231.37H640.564V238.187C638.931 238.471 637.475 239.394 636.197 240.956C634.919 242.447 633.818 244.151 632.895 246.068C631.972 247.914 631.227 249.547 630.659 250.968L617.026 284.943H607.759Z" fill="black"/>
<path d="M669.253 286.328C664.07 286.328 659.49 285.192 655.514 282.92C651.538 280.577 648.449 277.31 646.248 273.121C644.047 268.861 642.946 263.855 642.946 258.104C642.946 253.133 644.047 248.482 646.248 244.151C648.449 239.82 651.538 236.341 655.514 233.713C659.561 231.015 664.248 229.666 669.573 229.666C672.555 229.666 675.466 230.092 678.307 230.944C681.147 231.725 683.703 233.11 685.975 235.098C688.318 237.086 690.164 239.784 691.513 243.192C692.934 246.601 693.608 250.861 693.537 255.973L658.603 256.612C658.603 260.447 659.064 263.89 659.987 266.944C660.981 269.997 662.579 272.411 664.78 274.186C666.981 275.961 669.928 276.849 673.62 276.849C675.04 276.849 676.638 276.6 678.413 276.103C680.259 275.606 682.105 274.79 683.951 273.654C685.869 272.446 687.644 270.849 689.277 268.861L694.07 273.334C691.513 276.955 688.78 279.724 685.869 281.642C682.957 283.488 680.046 284.73 677.135 285.369C674.295 286.008 671.668 286.328 669.253 286.328ZM659.242 249.157H678.839C678.768 246.175 678.342 243.832 677.561 242.127C676.851 240.352 675.857 239.074 674.579 238.293C673.301 237.512 671.81 237.122 670.105 237.122C666.981 237.122 664.532 238.258 662.756 240.53C660.981 242.731 659.81 245.607 659.242 249.157Z" fill="black"/>
<path d="M131.826 286.328C127.068 286.328 122.702 285.263 118.725 283.133C114.749 281.003 111.554 277.914 109.14 273.867C106.797 269.819 105.625 264.92 105.625 259.169C105.625 255.121 106.3 251.323 107.649 247.772C108.998 244.222 110.879 241.098 113.294 238.4C115.779 235.701 118.69 233.571 122.027 232.009C125.435 230.447 129.199 229.666 133.317 229.666C137.861 229.666 141.624 230.376 144.607 231.796C147.66 233.145 149.932 234.956 151.423 237.228C152.985 239.429 153.766 241.772 153.766 244.258C153.766 246.317 153.127 248.163 151.849 249.796C150.642 251.358 148.902 252.175 146.63 252.246C143.932 252.317 142.05 251.571 140.985 250.009C139.92 248.376 139.388 246.814 139.388 245.323C139.388 244.684 139.494 243.938 139.707 243.086C139.92 242.163 140.24 241.346 140.666 240.636C140.169 239.571 139.423 238.79 138.429 238.293C137.435 237.796 136.406 237.477 135.341 237.335C134.346 237.122 133.53 237.051 132.891 237.122C129.483 237.335 126.678 239.039 124.477 242.234C122.276 245.429 121.175 250.044 121.175 256.08C121.175 259.63 121.601 262.967 122.453 266.092C123.376 269.145 124.867 271.665 126.926 273.654C128.986 275.642 131.755 276.707 135.234 276.849C138.216 276.92 141.127 276.21 143.968 274.719C146.808 273.228 149.222 271.204 151.21 268.648L156.109 273.441C153.553 276.991 150.891 279.689 148.121 281.535C145.352 283.381 142.583 284.624 139.814 285.263C137.116 285.973 134.453 286.328 131.826 286.328Z" stroke="black" stroke-width="3.21794" mask="url(#path-2-outside-2_9291_1474)"/>
<path d="M187.91 286.328C182.798 286.328 178.183 285.227 174.064 283.026C169.946 280.825 166.68 277.701 164.266 273.654C161.922 269.535 160.751 264.707 160.751 259.169C160.751 253.275 161.958 248.127 164.372 243.725C166.857 239.252 170.123 235.808 174.171 233.394C178.289 230.909 182.762 229.666 187.591 229.666C192.703 229.666 197.283 230.767 201.33 232.968C205.377 235.169 208.573 238.329 210.916 242.447C213.259 246.494 214.431 251.358 214.431 257.038C214.431 263.003 213.294 268.186 211.022 272.588C208.75 276.991 205.626 280.399 201.65 282.813C197.673 285.156 193.094 286.328 187.91 286.328ZM188.336 278.766C191.176 278.695 193.307 277.701 194.727 275.784C196.218 273.867 197.247 271.452 197.815 268.541C198.383 265.63 198.667 262.683 198.667 259.701C198.667 257.074 198.454 254.411 198.028 251.713C197.673 249.015 197.07 246.565 196.218 244.364C195.366 242.163 194.194 240.388 192.703 239.039C191.283 237.69 189.508 237.051 187.378 237.122C184.608 237.193 182.407 238.187 180.774 240.104C179.212 242.021 178.076 244.435 177.366 247.346C176.727 250.186 176.407 253.169 176.407 256.293C176.407 259.914 176.798 263.464 177.579 266.944C178.36 270.423 179.603 273.299 181.307 275.571C183.082 277.772 185.425 278.837 188.336 278.766Z" stroke="black" stroke-width="3.21794" mask="url(#path-2-outside-2_9291_1474)"/>
<path d="M248.237 286.328C243.124 286.328 238.509 285.227 234.391 283.026C230.272 280.825 227.006 277.701 224.592 273.654C222.249 269.535 221.077 264.707 221.077 259.169C221.077 253.275 222.284 248.127 224.698 243.725C227.184 239.252 230.45 235.808 234.497 233.394C238.615 230.909 243.089 229.666 247.917 229.666C253.029 229.666 257.609 230.767 261.657 232.968C265.704 235.169 268.899 238.329 271.242 242.447C273.585 246.494 274.757 251.358 274.757 257.038C274.757 263.003 273.621 268.186 271.349 272.588C269.077 276.991 265.952 280.399 261.976 282.813C258 285.156 253.42 286.328 248.237 286.328ZM248.663 278.766C251.503 278.695 253.633 277.701 255.053 275.784C256.544 273.867 257.574 271.452 258.142 268.541C258.71 265.63 258.994 262.683 258.994 259.701C258.994 257.074 258.781 254.411 258.355 251.713C258 249.015 257.396 246.565 256.544 244.364C255.692 242.163 254.521 240.388 253.029 239.039C251.609 237.69 249.834 237.051 247.704 237.122C244.935 237.193 242.734 238.187 241.101 240.104C239.539 242.021 238.402 244.435 237.692 247.346C237.053 250.186 236.734 253.169 236.734 256.293C236.734 259.914 237.124 263.464 237.905 266.944C238.686 270.423 239.929 273.299 241.633 275.571C243.408 277.772 245.751 278.837 248.663 278.766Z" stroke="black" stroke-width="3.21794" mask="url(#path-2-outside-2_9291_1474)"/>
<path d="M281.404 311.783V304.86C283.392 304.86 284.812 304.47 285.664 303.689C286.587 302.908 287.155 301.772 287.368 300.28C287.652 298.86 287.794 297.227 287.794 295.381V250.328C287.794 249.05 287.83 247.63 287.901 246.068C287.972 244.435 288.078 242.837 288.22 241.275C287.084 241.346 285.735 241.417 284.173 241.488C282.611 241.488 281.439 241.524 280.658 241.595V233.5C283.995 233.5 286.765 233.323 288.966 232.968C291.238 232.613 293.013 232.187 294.291 231.69C295.64 231.193 296.563 230.731 297.06 230.305H302.279C302.421 231.015 302.528 231.903 302.599 232.968C302.67 233.962 302.741 234.778 302.812 235.417C305.297 233.287 307.746 231.796 310.161 230.944C312.646 230.092 314.989 229.666 317.19 229.666C321.45 229.666 325.178 230.767 328.373 232.968C331.64 235.169 334.16 238.293 335.935 242.34C337.782 246.388 338.705 251.145 338.705 256.612C338.705 262.293 337.604 267.405 335.403 271.949C333.202 276.423 330.113 279.938 326.137 282.494C322.231 285.05 317.616 286.328 312.291 286.328C310.374 286.328 308.634 286.115 307.072 285.689C305.581 285.334 304.161 284.908 302.812 284.411V294.636C302.812 295.63 302.776 297.014 302.705 298.789C302.705 300.635 302.634 302.375 302.492 304.008C303.628 303.866 304.871 303.76 306.22 303.689C307.569 303.689 308.599 303.689 309.309 303.689V311.783H281.404ZM310.587 278.34C313.853 278.269 316.374 277.31 318.149 275.464C319.995 273.547 321.273 271.062 321.983 268.009C322.693 264.955 323.048 261.689 323.048 258.21C323.048 254.944 322.657 251.855 321.876 248.944C321.095 246.033 319.853 243.69 318.149 241.914C316.445 240.068 314.208 239.181 311.439 239.252C309.664 239.323 308.03 239.784 306.539 240.636C305.048 241.417 303.806 242.518 302.812 243.938C302.812 246.139 302.812 248.34 302.812 250.541C302.812 252.672 302.812 254.802 302.812 256.932C302.812 259.062 302.812 261.228 302.812 263.429C302.812 265.559 302.812 267.725 302.812 269.926C302.812 272.056 302.812 274.222 302.812 276.423C303.593 276.92 304.693 277.381 306.113 277.807C307.533 278.233 309.025 278.411 310.587 278.34Z" stroke="black" stroke-width="3.21794" mask="url(#path-2-outside-2_9291_1474)"/>
<path d="M371.678 286.328C366.494 286.328 361.915 285.192 357.938 282.92C353.962 280.577 350.873 277.31 348.672 273.121C346.471 268.861 345.37 263.855 345.37 258.104C345.37 253.133 346.471 248.482 348.672 244.151C350.873 239.82 353.962 236.341 357.938 233.713C361.986 231.015 366.672 229.666 371.997 229.666C374.979 229.666 377.891 230.092 380.731 230.944C383.571 231.725 386.127 233.11 388.399 235.098C390.743 237.086 392.589 239.784 393.938 243.192C395.358 246.601 396.032 250.861 395.961 255.973L361.027 256.612C361.027 260.447 361.489 263.89 362.412 266.944C363.406 269.997 365.003 272.411 367.204 274.186C369.406 275.961 372.352 276.849 376.045 276.849C377.465 276.849 379.062 276.6 380.837 276.103C382.684 275.606 384.53 274.79 386.376 273.654C388.293 272.446 390.068 270.849 391.701 268.861L396.494 273.334C393.938 276.955 391.204 279.724 388.293 281.642C385.382 283.488 382.471 284.73 379.559 285.369C376.719 286.008 374.092 286.328 371.678 286.328ZM361.666 249.157H381.263C381.192 246.175 380.766 243.832 379.985 242.127C379.275 240.352 378.281 239.074 377.003 238.293C375.725 237.512 374.234 237.122 372.53 237.122C369.406 237.122 366.956 238.258 365.181 240.53C363.406 242.731 362.234 245.607 361.666 249.157Z" stroke="black" stroke-width="3.21794" mask="url(#path-2-outside-2_9291_1474)"/>
<path d="M403.746 277.701C405.734 277.701 407.154 277.31 408.006 276.529C408.858 275.748 409.39 274.648 409.604 273.228C409.888 271.736 410.03 270.068 410.03 268.222V250.328C410.03 249.05 410.065 247.63 410.136 246.068C410.207 244.435 410.314 242.837 410.456 241.275C409.319 241.346 407.97 241.417 406.408 241.488C404.917 241.488 403.781 241.524 403 241.595V233.5H407.26C410.03 233.5 412.55 233.145 414.822 232.435C417.166 231.725 418.692 231.015 419.402 230.305H424.621C424.763 231.015 424.87 232.364 424.941 234.352C425.012 236.27 425.047 237.974 425.047 239.465C426.964 237.122 428.775 235.24 430.479 233.82C432.183 232.4 433.852 231.37 435.485 230.731C437.189 230.021 438.893 229.666 440.597 229.666C443.082 229.666 445.248 230.376 447.094 231.796C448.94 233.145 449.863 235.382 449.863 238.506C449.863 239.571 449.615 240.707 449.118 241.914C448.621 243.05 447.84 244.009 446.775 244.79C445.709 245.571 444.254 245.962 442.408 245.962C440.988 245.962 439.532 245.536 438.041 244.684C436.55 243.832 435.698 242.198 435.485 239.784C434.065 239.784 432.645 240.388 431.225 241.595C429.804 242.731 428.526 244.116 427.39 245.749C426.325 247.311 425.58 248.766 425.154 250.115V267.476C425.154 268.47 425.118 269.89 425.047 271.736C424.976 273.512 424.87 275.216 424.728 276.849C425.864 276.707 427.106 276.636 428.455 276.636C429.875 276.565 430.94 276.529 431.651 276.529V284.624H403.746V277.701Z" stroke="black" stroke-width="3.21794" mask="url(#path-2-outside-2_9291_1474)"/>
<path d="M484.008 284.624C483.866 283.63 483.76 282.813 483.689 282.174C483.689 281.464 483.653 280.648 483.582 279.724C481.168 282.139 478.612 283.843 475.913 284.837C473.215 285.831 470.482 286.328 467.712 286.328C463.168 286.328 459.618 284.979 457.062 282.281C454.506 279.582 453.227 276.21 453.227 272.162C453.227 268.754 454.079 265.843 455.784 263.429C457.559 261.015 459.866 259.062 462.707 257.571C465.618 256.009 468.813 254.837 472.292 254.056C475.842 253.204 479.393 252.707 482.943 252.565V247.027C482.943 245.181 482.694 243.512 482.197 242.021C481.771 240.53 480.99 239.358 479.854 238.506C478.789 237.654 477.263 237.264 475.274 237.335C473.925 237.406 472.612 237.69 471.334 238.187C470.056 238.684 468.955 239.394 468.032 240.317C468.6 240.956 468.955 241.666 469.097 242.447C469.239 243.157 469.31 243.796 469.31 244.364C469.31 245.784 468.742 247.275 467.606 248.837C466.47 250.328 464.659 251.039 462.174 250.968C460.044 250.897 458.411 250.151 457.275 248.731C456.139 247.311 455.571 245.642 455.571 243.725C455.571 240.885 456.565 238.435 458.553 236.376C460.612 234.246 463.346 232.613 466.754 231.477C470.162 230.27 473.925 229.666 478.044 229.666C484.292 229.666 489.12 231.299 492.529 234.565C496.008 237.761 497.747 242.908 497.747 250.009C497.747 252.423 497.747 254.482 497.747 256.186C497.747 257.89 497.712 259.595 497.641 261.299C497.641 263.003 497.641 265.062 497.641 267.476C497.641 268.47 497.605 269.89 497.534 271.736C497.463 273.512 497.357 275.216 497.215 276.849C498.422 276.707 499.7 276.636 501.049 276.636C502.398 276.565 503.428 276.529 504.138 276.529V284.624H484.008ZM482.836 260.127C480.848 260.34 478.967 260.695 477.192 261.192C475.416 261.689 473.854 262.364 472.505 263.216C471.227 264.068 470.198 265.097 469.417 266.305C468.706 267.512 468.351 268.861 468.351 270.352C468.422 272.34 469.061 273.76 470.269 274.612C471.476 275.464 472.86 275.89 474.422 275.89C476.055 275.89 477.582 275.535 479.002 274.825C480.422 274.115 481.7 273.192 482.836 272.056C482.836 271.346 482.836 270.671 482.836 270.032C482.836 269.322 482.836 268.612 482.836 267.902C482.836 266.624 482.836 265.346 482.836 264.068C482.836 262.719 482.836 261.405 482.836 260.127Z" stroke="black" stroke-width="3.21794" mask="url(#path-2-outside-2_9291_1474)"/>
<path d="M530.925 286.328C528.795 286.328 526.736 286.079 524.748 285.582C522.76 285.085 520.985 284.162 519.423 282.813C517.86 281.393 516.618 279.334 515.695 276.636C514.772 273.938 514.31 270.352 514.31 265.879L514.523 240.21H507.281V231.37C509.482 231.299 511.612 230.554 513.671 229.134C515.73 227.713 517.47 225.867 518.89 223.595C520.381 221.323 521.375 218.944 521.872 216.459H529.754L529.647 231.37H543.174V239.571L529.647 239.891L529.541 266.092C529.541 267.725 529.683 269.358 529.967 270.991C530.322 272.553 530.961 273.867 531.884 274.932C532.807 275.926 534.156 276.423 535.931 276.423C536.925 276.423 538.274 276.068 539.978 275.358C541.754 274.648 543.635 272.873 545.623 270.032L550.736 274.825C548.819 277.665 546.83 279.866 544.771 281.429C542.712 282.991 540.724 284.127 538.807 284.837C536.961 285.547 535.328 285.973 533.907 286.115C532.487 286.257 531.493 286.328 530.925 286.328Z" stroke="black" stroke-width="3.21794" mask="url(#path-2-outside-2_9291_1474)"/>
<path d="M553.834 277.701C555.822 277.701 557.242 277.31 558.094 276.529C558.946 275.748 559.478 274.648 559.691 273.228C559.975 271.736 560.117 270.068 560.117 268.222V250.541C560.117 249.263 560.153 247.808 560.224 246.175C560.295 244.471 560.402 242.837 560.544 241.275C559.407 241.346 558.058 241.417 556.496 241.488C555.005 241.488 553.869 241.524 553.088 241.595V233.5C556.354 233.5 559.123 233.323 561.396 232.968C563.668 232.613 565.443 232.187 566.721 231.69C568.07 231.193 568.993 230.731 569.49 230.305H575.242V267.476C575.242 268.47 575.206 269.89 575.135 271.736C575.064 273.512 574.957 275.216 574.815 276.849C575.952 276.707 577.194 276.636 578.543 276.636C579.963 276.565 581.028 276.529 581.738 276.529V284.624H553.834V277.701ZM567.147 221.891C564.733 221.891 562.745 221.039 561.183 219.335C559.62 217.631 558.839 215.572 558.839 213.157C558.839 210.743 559.656 208.684 561.289 206.98C562.922 205.276 564.839 204.424 567.04 204.424C569.313 204.424 571.194 205.276 572.685 206.98C574.247 208.684 575.028 210.743 575.028 213.157C575.028 215.572 574.318 217.631 572.898 219.335C571.478 221.039 569.561 221.891 567.147 221.891Z" stroke="black" stroke-width="3.21794" mask="url(#path-2-outside-2_9291_1474)"/>
<path d="M607.759 284.943L590.931 247.985C590.15 246.21 589.582 244.861 589.227 243.938C588.943 243.015 588.73 242.234 588.588 241.595C588.517 240.885 588.375 240.104 588.162 239.252L584.221 239.465V231.37H609.144V238.187C607.653 238.258 606.659 238.684 606.162 239.465C605.665 240.246 605.487 241.275 605.629 242.553C605.771 243.761 606.091 245.074 606.588 246.494L612.126 260.127C612.694 261.476 613.262 262.861 613.83 264.281C614.398 265.701 614.966 267.121 615.535 268.541H615.641C616.209 267.05 616.742 265.559 617.239 264.068C617.807 262.577 618.339 261.086 618.836 259.595L623.416 246.601C624.055 244.826 624.623 243.405 625.12 242.34C625.688 241.275 626.292 240.175 626.931 239.039L620.327 239.465V231.37H640.564V238.187C638.931 238.471 637.475 239.394 636.197 240.956C634.919 242.447 633.818 244.151 632.895 246.068C631.972 247.914 631.227 249.547 630.659 250.968L617.026 284.943H607.759Z" stroke="black" stroke-width="3.21794" mask="url(#path-2-outside-2_9291_1474)"/>
<path d="M669.253 286.328C664.07 286.328 659.49 285.192 655.514 282.92C651.538 280.577 648.449 277.31 646.248 273.121C644.047 268.861 642.946 263.855 642.946 258.104C642.946 253.133 644.047 248.482 646.248 244.151C648.449 239.82 651.538 236.341 655.514 233.713C659.561 231.015 664.248 229.666 669.573 229.666C672.555 229.666 675.466 230.092 678.307 230.944C681.147 231.725 683.703 233.11 685.975 235.098C688.318 237.086 690.164 239.784 691.513 243.192C692.934 246.601 693.608 250.861 693.537 255.973L658.603 256.612C658.603 260.447 659.064 263.89 659.987 266.944C660.981 269.997 662.579 272.411 664.78 274.186C666.981 275.961 669.928 276.849 673.62 276.849C675.04 276.849 676.638 276.6 678.413 276.103C680.259 275.606 682.105 274.79 683.951 273.654C685.869 272.446 687.644 270.849 689.277 268.861L694.07 273.334C691.513 276.955 688.78 279.724 685.869 281.642C682.957 283.488 680.046 284.73 677.135 285.369C674.295 286.008 671.668 286.328 669.253 286.328ZM659.242 249.157H678.839C678.768 246.175 678.342 243.832 677.561 242.127C676.851 240.352 675.857 239.074 674.579 238.293C673.301 237.512 671.81 237.122 670.105 237.122C666.981 237.122 664.532 238.258 662.756 240.53C660.981 242.731 659.81 245.607 659.242 249.157Z" stroke="black" stroke-width="3.21794" mask="url(#path-2-outside-2_9291_1474)"/>
<path d="M692.193 144.799C720.238 144.799 742.973 167.534 742.973 195.578C742.973 218.271 728.086 237.484 707.547 243.992C702.37 229.046 688.436 218.34 672.056 218.34C664.183 218.34 656.875 220.815 650.832 225.043C644.902 216.734 641.414 206.564 641.414 195.578C641.414 167.534 664.149 144.799 692.193 144.799Z" fill="#B65A30"/>
</svg>
