<svg width="3800" height="617" viewBox="0 0 3800 617" fill="none" xmlns="http://www.w3.org/2000/svg">
<path d="M3669.49 276.363C3667.94 360.43 3624.53 419.816 3553.22 459.921C3450.13 517.764 3316.04 489.999 3245.51 398.992C3184.27 320.325 3189.7 209.265 3257.91 137.538C3312.94 79.6948 3381.15 56.5573 3460.21 63.4986C3542.37 70.4399 3602.83 112.087 3644.68 181.5C3662.51 210.036 3669.49 242.428 3669.49 276.363ZM3574.92 275.592C3574.15 268.651 3574.15 261.71 3573.37 255.54C3571.82 247.827 3570.27 240.115 3567.17 233.173C3533.07 144.48 3414.48 117.486 3342.39 182.271C3288.14 230.86 3283.49 304.9 3331.54 358.887C3366.42 398.221 3411.38 410.561 3462.53 402.848C3522.99 392.822 3576.47 334.978 3574.92 275.592Z" fill="white"/>
<path d="M2434.75 280.219C2434.75 227.003 2435.53 173.787 2434.75 121.342C2433.98 86.6354 2460.33 72.7529 2483.58 72.7529C2517.69 73.5242 2552.57 71.2105 2586.67 75.0667C2671.16 83.5505 2736.27 122.884 2776.57 198.467C2813.78 267.879 2797.5 356.573 2742.47 413.645C2692.08 465.319 2630.85 489.227 2560.32 489.999L2484.36 489.999C2452.58 489.999 2435.53 472.26 2435.53 441.41C2434.75 386.651 2434.75 333.435 2434.75 280.219ZM2528.54 156.819L2528.54 405.933L2557.22 405.933C2598.3 405.933 2634.73 392.821 2665.73 364.285C2709.91 324.18 2716.11 256.31 2678.13 210.807C2638.6 163.76 2586.67 152.192 2528.54 156.819Z" fill="white"/>
<path d="M3140.87 489.228C3124.59 489.228 3110.64 480.744 3102.89 463.777C3094.36 443.724 3085.06 423.672 3076.53 403.619C3074.21 398.22 3071.11 395.907 3064.91 395.907L2937.02 395.907C2931.59 395.907 2928.49 397.449 2926.16 402.848C2917.64 422.9 2909.11 442.953 2899.81 463.005C2892.06 480.744 2877.33 489.228 2857.96 489.228C2838.58 489.228 2822.3 483.058 2813.77 463.776C2808.35 452.208 2809.12 441.41 2813.77 429.842C2847.88 351.174 2881.98 272.507 2916.09 193.839C2929.26 164.532 2941.67 134.453 2954.84 105.146C2963.37 84.3219 2978.87 74.2957 3001.35 73.5244C3023.83 73.5245 3038.55 83.5507 3047.08 104.374C3093.59 213.121 3140.87 321.867 3188.15 429.842C3201.33 460.692 3180.4 489.228 3140.87 489.228ZM3001.35 227.774C2988.17 257.082 2976.55 284.847 2964.92 312.612L3038.55 312.612C3026.15 284.847 3013.75 257.853 3001.35 227.774Z" fill="white"/>
<path d="M1010.89 335.749L1010.89 445.266C1010.89 470.717 991.51 489.227 965.156 489.227C938.803 489.227 918.65 471.488 917.875 446.037L917.875 116.714C917.875 92.0338 935.702 73.5238 961.281 73.5238C1008.56 72.7526 1055.84 71.9813 1102.35 75.0663C1152.73 78.9226 1191.49 104.374 1216.29 148.335C1250.39 208.492 1224.04 283.304 1158.16 317.239C1133.35 329.579 1107.77 335.749 1080.65 335.749C1057.39 335.749 1034.92 335.749 1010.89 335.749ZM1010.89 252.454L1087.62 252.454C1111.65 250.14 1132.58 233.172 1136.45 213.891C1141.88 189.211 1121.73 162.217 1093.82 159.132C1071.35 156.819 1048.09 157.59 1024.84 157.59L1010.11 157.59C1010.89 188.44 1010.89 220.061 1010.89 252.454Z" fill="white"/>
<path d="M2284.38 206.179C2297.56 189.983 2313.06 183.041 2333.21 186.898C2353.36 190.754 2368.09 207.721 2368.09 228.545L2368.09 442.952C2368.09 464.547 2358.79 478.43 2340.19 485.371C2321.59 492.312 2301.43 487.685 2288.26 473.031C2286.71 471.488 2285.93 469.946 2284.38 468.403C2263.45 478.43 2241.75 484.6 2219.27 487.685C2148.74 496.168 2075.88 456.835 2049.52 395.906C2016.97 320.324 2051.85 233.944 2130.91 200.009C2179.74 179.185 2229.35 179.956 2278.18 202.323C2279.73 203.865 2282.06 205.408 2284.38 206.179ZM2202.22 408.246C2240.97 408.246 2272.75 383.566 2277.4 350.402C2282.83 314.925 2262.68 282.532 2228.57 271.735C2191.37 259.395 2152.61 274.049 2135.56 305.67C2113.08 348.86 2139.44 408.246 2202.22 408.246Z" fill="white"/>
<path d="M1875.9 408.247L1970.47 408.247C1978.22 408.247 1986.74 409.789 1993.72 412.874C2010.77 420.587 2019.3 435.24 2016.97 452.979C2015.42 468.404 2003.02 482.286 1985.97 486.143C1981.32 487.685 1976.67 487.685 1972.02 487.685L1784.44 487.685C1762.74 487.685 1746.46 475.345 1741.04 456.835C1737.16 443.724 1740.26 432.926 1749.56 422.9C1792.97 371.227 1836.37 319.553 1879 267.879L1879 266.337C1875.9 266.337 1872.8 265.565 1870.48 265.565L1787.54 265.565C1781.34 265.565 1775.14 264.794 1768.94 263.252C1750.34 257.853 1737.94 241.657 1738.71 223.918C1739.49 206.95 1753.44 190.754 1771.26 186.898C1776.69 186.127 1781.34 185.355 1786.77 185.355L1966.59 185.356C1982.09 185.356 1995.27 189.212 2006.12 200.009C2018.52 212.349 2020.07 234.715 2008.45 248.598C1965.81 299.5 1923.18 350.403 1879.78 401.305C1879.78 403.619 1878.23 405.162 1875.9 408.247Z" fill="white"/>
<path d="M1558.11 267.108C1553.46 267.108 1550.36 266.337 1547.26 266.337L1462.77 266.337C1439.52 266.337 1420.92 252.454 1417.81 233.944C1413.16 209.264 1431.77 186.127 1460.45 186.127C1524 185.356 1586.79 185.356 1650.35 186.127C1672.82 186.127 1689.1 199.238 1693.75 216.977C1696.85 228.546 1694.53 240.114 1686.78 249.369C1644.14 299.5 1602.29 350.403 1559.66 400.534C1558.11 402.077 1556.56 404.39 1554.23 407.475C1558.88 407.475 1561.98 408.247 1565.08 408.247L1650.35 408.247C1671.27 408.247 1689.1 420.587 1694.53 437.554C1701.5 462.234 1682.9 486.914 1654.22 488.456C1642.59 489.228 1630.97 488.456 1620.12 488.456L1465.1 488.456C1443.39 488.456 1427.12 477.659 1421.69 460.691C1417.04 446.809 1420.14 434.469 1430.22 422.129C1463.55 383.567 1496.1 344.233 1528.65 304.899C1536.41 293.33 1546.48 280.99 1558.11 267.108Z" fill="white"/>
<path d="M1276.75 337.291L1276.75 230.858C1276.75 204.636 1294.58 186.897 1321.7 186.126C1348.06 186.126 1367.43 204.636 1367.43 230.858L1367.43 443.723C1367.43 470.717 1348.83 488.456 1321.7 488.456C1294.58 488.456 1275.97 469.946 1275.97 442.952C1276.75 408.246 1276.75 372.768 1276.75 337.291Z" fill="white"/>
<path d="M1367.44 120.57C1369.76 152.191 1342.63 167.616 1321.7 167.616C1293.8 166.845 1277.52 149.106 1275.97 119.799C1275.2 92.0337 1296.9 74.2949 1321.7 73.5237C1346.51 72.7524 1370.54 90.4912 1367.44 120.57Z" fill="white"/>
<g clip-path="url(#clip0_9094_6109)">
<path d="M442.119 47.9185C478.858 57.7905 528 78.46 565.05 121.264C587.76 111.007 614.656 103.217 641.165 99.9007C641.165 99.9007 704.491 92.4968 726.969 138.849C748.827 183.813 700.46 219.83 635.352 267.879C662.015 444.341 505.987 598.282 323.683 567.123C281.982 561.108 245.863 544.217 213.386 520.54C222.067 513.984 238.577 502.261 247.723 497.017C282.448 517.378 311.979 527.713 342.518 530.72C411.812 537.585 481.649 511.362 528.542 464.702C575.436 418.041 617.447 351.405 587.915 236.026C625.043 223.918 663.1 194.919 677.982 172.552C683.873 165.765 679.3 152.191 667.441 149.955C567.918 129.131 440.413 275.977 371.817 336.366C333.682 370.841 295.159 404.853 255.241 437.245C205.247 478.738 141.999 509.742 76.1929 512.596C-8.13822 508.663 -23.4852 434.16 35.1125 380.173C48.7543 366.984 83.5564 347.626 104.639 338.448C100.144 339.374 81.4637 68.2023 350.889 41.0544C381.506 37.9694 412.355 39.9746 442.041 47.9185L442.119 47.9185ZM194.706 379.71C179.979 345.775 173.778 311.069 179.204 274.049C201.682 281.761 216.409 276.362 221.059 260.166C224.935 244.741 214.859 231.63 194.706 227.774C207.108 192.296 252.064 146.793 284.618 135.995C283.843 149.878 290.044 159.904 303.22 162.989C314.072 166.074 322.598 162.218 329.574 153.734C338.1 142.165 335.775 130.596 326.473 119.028C335.775 117.485 344.301 115.943 352.052 115.943C401.658 113.629 431.345 117.331 495.291 161.909L526.45 143.708C447.389 65.8115 311.746 55.014 218.734 139.851C127.272 223.146 129.597 350.402 182.304 425.214C188.505 421.357 204.24 410.868 210.441 407.012C204.472 398.605 199.124 389.582 194.706 379.71ZM116.421 390.507C95.4929 399.762 76.8905 412.874 61.3884 429.841C55.9627 435.24 51.3121 442.181 54.4125 450.665C57.5129 459.149 66.0391 460.691 73.7901 462.234L75.3403 462.234C99.3684 462.234 121.846 456.063 142.774 446.809C134.248 427.527 125.722 409.017 116.421 390.507ZM300.12 201.551C286.168 201.551 274.542 213.12 275.317 227.003C275.317 240.885 286.943 251.682 300.12 251.683C314.072 251.683 325.698 240.114 325.698 226.231C325.698 212.349 314.072 201.551 300.12 201.551ZM442.739 194.61C431.112 184.584 417.935 183.813 407.859 193.839C398.558 203.094 398.558 215.434 406.309 224.689C417.935 215.434 430.337 204.636 442.739 194.61ZM297.795 329.579C286.943 320.324 272.991 320.324 263.69 330.35C255.164 339.605 255.164 353.487 263.69 361.971C275.317 351.174 286.168 340.376 297.795 329.579Z" fill="white"/>
<path d="M486.531 289.165C506.683 272.969 526.061 257.544 546.989 240.577C565.591 289.165 564.816 334.669 543.113 380.944C534.587 370.918 524.511 366.29 512.109 370.918C502.033 374.774 496.607 382.487 495.832 392.513C495.057 407.167 504.358 414.879 516.76 419.507C466.378 486.605 352.438 511.285 285.779 470.409C340.036 421.049 395.069 372.46 450.101 322.329C454.752 330.813 462.503 338.525 474.129 337.754C480.33 336.983 487.306 333.898 491.956 329.27C505.133 318.473 502.808 303.819 486.531 289.165ZM393.131 409.789C379.179 409.789 367.553 421.357 367.553 435.24C367.553 449.122 379.954 460.691 393.131 460.691C406.308 460.691 417.934 449.122 417.934 436.011C418.709 421.357 407.083 409.789 393.131 409.789Z" fill="white"/>
</g>
<defs>
<clipPath id="clip0_9094_6109">
<rect width="732.316" height="531.468" fill="white" transform="translate(0 39.666)"/>
</clipPath>
</defs>
</svg>
