<svg width="2931" height="1042" viewBox="0 0 2931 1042" fill="none" xmlns="http://www.w3.org/2000/svg">
<mask id="path-1-outside-1_9113_8483" maskUnits="userSpaceOnUse" x="-0.605469" y="-0.605469" width="1277" height="413" fill="black">
<rect fill="white" x="-0.605469" y="-0.605469" width="1277" height="413"/>
<path d="M108.94 410.049C99.2511 410.049 89.8853 408.813 80.8424 406.339C71.7996 403.866 63.7256 399.272 56.6205 392.558C49.5154 385.491 43.8636 375.244 39.6652 361.816C35.4667 348.389 33.3675 330.544 33.3675 308.283L34.3363 180.545H1.39453V136.553C11.4063 136.199 21.095 132.489 30.4608 125.422C39.8266 118.355 47.7391 109.168 54.1983 97.8604C60.9804 86.553 65.5019 74.7156 67.7626 62.3482H103.611L103.127 136.553H164.65V177.365L103.127 178.955L102.642 309.343C102.642 317.47 103.288 325.598 104.58 333.725C106.195 341.498 109.101 348.036 113.3 353.336C117.498 358.283 123.634 360.756 131.708 360.756C136.23 360.756 142.366 358.99 150.117 355.456C158.191 351.922 166.749 343.089 175.792 328.954L199.045 352.806C190.325 366.94 181.283 377.894 171.917 385.668C162.551 393.442 153.508 399.095 144.788 402.629C136.391 406.162 128.963 408.283 122.504 408.989C116.045 409.696 111.523 410.049 108.94 410.049Z"/>
<path d="M327.948 410.049C304.372 410.049 283.541 404.396 265.455 393.088C247.369 381.428 233.321 365.173 223.309 344.325C213.297 323.124 208.291 298.213 208.291 269.591C208.291 244.856 213.297 221.711 223.309 200.157C233.321 178.602 247.369 161.288 265.455 148.213C283.864 134.786 305.179 128.072 329.401 128.072C342.965 128.072 356.206 130.192 369.125 134.433C382.043 138.319 393.67 145.21 404.004 155.104C414.662 164.998 423.059 178.425 429.195 195.386C435.654 212.347 438.722 233.549 438.399 258.99L279.504 262.17C279.504 281.251 281.603 298.389 285.801 313.583C290.323 328.778 297.589 340.792 307.601 349.626C317.613 358.46 331.016 362.876 347.81 362.876C354.269 362.876 361.535 361.64 369.609 359.166C378.006 356.693 386.403 352.629 394.8 346.975C403.52 340.968 411.594 333.018 419.022 323.124L440.822 345.385C429.195 363.406 416.761 377.187 403.52 386.728C390.279 395.915 377.037 402.099 363.796 405.279C350.878 408.459 338.928 410.049 327.948 410.049ZM282.41 225.068H371.547C371.224 210.227 369.286 198.566 365.734 190.086C362.504 181.252 357.983 174.892 352.169 171.005C346.356 167.118 339.574 165.174 331.823 165.174C317.613 165.174 306.471 170.828 298.397 182.135C290.323 193.089 284.994 207.4 282.41 225.068Z"/>
<path d="M466.054 367.117C475.097 367.117 481.556 365.173 485.432 361.286C489.63 357.399 492.214 351.922 493.183 344.855C494.151 337.435 494.636 329.131 494.636 319.944V102.101C494.636 95.7403 494.797 88.4965 495.12 80.3693C495.443 71.8888 495.928 63.7616 496.574 55.9879C491.406 56.3412 485.27 56.6946 478.165 57.0479C471.383 57.0479 466.216 57.2246 462.663 57.5779V17.2955C477.842 17.2955 490.438 16.4121 500.449 14.6454C510.784 12.8786 518.858 10.7584 524.671 8.28495C530.807 5.81148 535.006 3.51467 537.266 1.39453H563.426V316.234C563.426 321.181 563.265 328.248 562.942 337.435C562.619 346.269 562.134 354.749 561.488 362.876C566.979 362.17 572.792 361.816 578.928 361.816C585.064 361.463 589.747 361.286 592.977 361.286V401.569H466.054V367.117Z"/>
<path d="M616.968 367.117C626.011 367.117 632.47 365.173 636.345 361.286C640.544 357.399 643.128 351.922 644.096 344.855C645.065 337.435 645.55 329.131 645.55 319.944V102.101C645.55 95.7403 645.711 88.4965 646.034 80.3693C646.357 71.8888 646.842 63.7616 647.488 55.9879C642.32 56.3412 636.184 56.6946 629.079 57.0479C622.297 57.0479 617.129 57.2246 613.577 57.5779V17.2955C628.756 17.2955 641.351 16.4121 651.363 14.6454C661.698 12.8786 669.772 10.7584 675.585 8.28495C681.721 5.81148 685.92 3.51467 688.18 1.39453H714.34V316.234C714.34 321.181 714.179 328.248 713.856 337.435C713.533 346.269 713.048 354.749 712.402 362.876C717.893 362.17 723.706 361.816 729.842 361.816C735.978 361.463 740.661 361.286 743.891 361.286V401.569H616.968V367.117Z"/>
<path d="M875.911 410.049C856.534 410.049 840.87 405.986 828.921 397.859C817.294 389.731 808.736 377.011 803.246 359.696C798.078 342.382 795.495 320.121 795.495 292.912V231.958C795.495 225.598 795.656 218.354 795.979 210.227C796.302 201.747 796.625 193.62 796.948 185.846C791.781 186.199 785.645 186.552 778.539 186.906C771.757 186.906 766.59 187.082 763.037 187.436V147.153H767.882C787.905 147.153 803.73 145.387 815.357 141.853C826.983 138.32 834.411 134.786 837.641 131.252H864.285V293.442C864.285 316.41 867.03 333.548 872.52 344.855C878.011 355.809 886.731 361.286 898.68 361.286C907.077 361.286 915.474 358.813 923.871 353.866C932.591 348.566 939.696 342.559 945.186 335.845V231.958C945.186 225.598 945.348 218.354 945.671 210.227C945.994 201.747 946.478 193.62 947.124 185.846C941.957 186.199 935.82 186.552 928.715 186.906C921.933 186.906 916.766 187.082 913.213 187.436V147.153H924.84C940.019 147.153 953.422 145.387 965.048 141.853C976.675 137.966 984.103 134.433 987.332 131.252H1013.98V316.234C1013.98 321.181 1013.82 328.248 1013.49 337.435C1013.17 346.269 1012.68 354.749 1012.04 362.876C1017.21 362.17 1022.86 361.816 1028.99 361.816C1035.45 361.463 1040.3 361.286 1043.53 361.286V401.569H951.484C951.161 396.975 950.677 392.382 950.031 387.788C949.708 383.194 949.223 378.601 948.577 374.007C938.566 383.194 927.746 391.498 916.12 398.919C904.816 406.339 891.414 410.049 875.911 410.049Z"/>
<path d="M1186.52 410.049C1172.63 410.049 1159.06 408.106 1145.82 404.219C1132.58 400.332 1122.25 395.385 1114.82 389.378L1115.79 405.279H1078.97L1077.03 314.113H1108.52C1109.49 324.714 1113.37 334.431 1120.15 343.265C1126.93 352.099 1135.81 359.166 1146.79 364.467C1157.77 369.413 1170.04 371.887 1183.61 371.887C1189.1 371.887 1194.27 371.004 1199.11 369.237C1204.28 367.47 1208.48 364.643 1211.71 360.756C1215.26 356.516 1217.04 351.392 1217.04 345.385C1217.04 338.672 1214.77 333.195 1210.25 328.954C1206.06 324.714 1199.76 320.651 1191.36 316.764C1183.29 312.877 1173.11 308.46 1160.84 303.513C1150.83 299.273 1140.66 294.856 1130.32 290.262C1120.31 285.668 1110.94 280.191 1102.22 273.831C1093.83 267.117 1087.04 258.99 1081.88 249.45C1076.71 239.556 1074.13 227.542 1074.13 213.407C1074.13 203.16 1075.9 193.089 1079.46 183.196C1083.01 172.948 1088.5 163.761 1095.93 155.634C1103.35 147.153 1112.72 140.44 1124.02 135.493C1135.65 130.546 1149.38 128.072 1165.2 128.072C1173.92 128.072 1183.77 129.662 1194.75 132.842C1206.06 135.669 1215.58 140.086 1223.33 146.093V130.722H1260.15V224.538H1228.66C1226.72 212.171 1222.69 201.57 1216.55 192.736C1210.74 183.902 1203.15 177.189 1193.78 172.595C1184.42 167.648 1173.92 165.174 1162.29 165.174C1154.22 165.174 1146.79 167.295 1140.01 171.535C1133.55 175.775 1130.32 183.019 1130.32 193.266C1130.32 201.393 1132.9 207.93 1138.07 212.877C1143.24 217.471 1150.34 221.358 1159.39 224.538C1168.43 227.718 1178.44 231.428 1189.42 235.669C1205.89 241.676 1220.43 248.743 1233.02 256.87C1245.94 264.997 1256.11 274.891 1263.54 286.552C1270.97 297.859 1274.68 311.817 1274.68 328.424C1274.68 346.799 1270.49 361.993 1262.09 374.007C1253.69 386.021 1242.71 395.032 1229.15 401.039C1215.91 407.046 1201.7 410.049 1186.52 410.049Z"/>
</mask>
<path d="M108.94 410.049C99.2511 410.049 89.8853 408.813 80.8424 406.339C71.7996 403.866 63.7256 399.272 56.6205 392.558C49.5154 385.491 43.8636 375.244 39.6652 361.816C35.4667 348.389 33.3675 330.544 33.3675 308.283L34.3363 180.545H1.39453V136.553C11.4063 136.199 21.095 132.489 30.4608 125.422C39.8266 118.355 47.7391 109.168 54.1983 97.8604C60.9804 86.553 65.5019 74.7156 67.7626 62.3482H103.611L103.127 136.553H164.65V177.365L103.127 178.955L102.642 309.343C102.642 317.47 103.288 325.598 104.58 333.725C106.195 341.498 109.101 348.036 113.3 353.336C117.498 358.283 123.634 360.756 131.708 360.756C136.23 360.756 142.366 358.99 150.117 355.456C158.191 351.922 166.749 343.089 175.792 328.954L199.045 352.806C190.325 366.94 181.283 377.894 171.917 385.668C162.551 393.442 153.508 399.095 144.788 402.629C136.391 406.162 128.963 408.283 122.504 408.989C116.045 409.696 111.523 410.049 108.94 410.049Z" fill="#407E7D"/>
<path d="M327.948 410.049C304.372 410.049 283.541 404.396 265.455 393.088C247.369 381.428 233.321 365.173 223.309 344.325C213.297 323.124 208.291 298.213 208.291 269.591C208.291 244.856 213.297 221.711 223.309 200.157C233.321 178.602 247.369 161.288 265.455 148.213C283.864 134.786 305.179 128.072 329.401 128.072C342.965 128.072 356.206 130.192 369.125 134.433C382.043 138.319 393.67 145.21 404.004 155.104C414.662 164.998 423.059 178.425 429.195 195.386C435.654 212.347 438.722 233.549 438.399 258.99L279.504 262.17C279.504 281.251 281.603 298.389 285.801 313.583C290.323 328.778 297.589 340.792 307.601 349.626C317.613 358.46 331.016 362.876 347.81 362.876C354.269 362.876 361.535 361.64 369.609 359.166C378.006 356.693 386.403 352.629 394.8 346.975C403.52 340.968 411.594 333.018 419.022 323.124L440.822 345.385C429.195 363.406 416.761 377.187 403.52 386.728C390.279 395.915 377.037 402.099 363.796 405.279C350.878 408.459 338.928 410.049 327.948 410.049ZM282.41 225.068H371.547C371.224 210.227 369.286 198.566 365.734 190.086C362.504 181.252 357.983 174.892 352.169 171.005C346.356 167.118 339.574 165.174 331.823 165.174C317.613 165.174 306.471 170.828 298.397 182.135C290.323 193.089 284.994 207.4 282.41 225.068Z" fill="#407E7D"/>
<path d="M466.054 367.117C475.097 367.117 481.556 365.173 485.432 361.286C489.63 357.399 492.214 351.922 493.183 344.855C494.151 337.435 494.636 329.131 494.636 319.944V102.101C494.636 95.7403 494.797 88.4965 495.12 80.3693C495.443 71.8888 495.928 63.7616 496.574 55.9879C491.406 56.3412 485.27 56.6946 478.165 57.0479C471.383 57.0479 466.216 57.2246 462.663 57.5779V17.2955C477.842 17.2955 490.438 16.4121 500.449 14.6454C510.784 12.8786 518.858 10.7584 524.671 8.28495C530.807 5.81148 535.006 3.51467 537.266 1.39453H563.426V316.234C563.426 321.181 563.265 328.248 562.942 337.435C562.619 346.269 562.134 354.749 561.488 362.876C566.979 362.17 572.792 361.816 578.928 361.816C585.064 361.463 589.747 361.286 592.977 361.286V401.569H466.054V367.117Z" fill="#407E7D"/>
<path d="M616.968 367.117C626.011 367.117 632.47 365.173 636.345 361.286C640.544 357.399 643.128 351.922 644.096 344.855C645.065 337.435 645.55 329.131 645.55 319.944V102.101C645.55 95.7403 645.711 88.4965 646.034 80.3693C646.357 71.8888 646.842 63.7616 647.488 55.9879C642.32 56.3412 636.184 56.6946 629.079 57.0479C622.297 57.0479 617.129 57.2246 613.577 57.5779V17.2955C628.756 17.2955 641.351 16.4121 651.363 14.6454C661.698 12.8786 669.772 10.7584 675.585 8.28495C681.721 5.81148 685.92 3.51467 688.18 1.39453H714.34V316.234C714.34 321.181 714.179 328.248 713.856 337.435C713.533 346.269 713.048 354.749 712.402 362.876C717.893 362.17 723.706 361.816 729.842 361.816C735.978 361.463 740.661 361.286 743.891 361.286V401.569H616.968V367.117Z" fill="#407E7D"/>
<path d="M875.911 410.049C856.534 410.049 840.87 405.986 828.921 397.859C817.294 389.731 808.736 377.011 803.246 359.696C798.078 342.382 795.495 320.121 795.495 292.912V231.958C795.495 225.598 795.656 218.354 795.979 210.227C796.302 201.747 796.625 193.62 796.948 185.846C791.781 186.199 785.645 186.552 778.539 186.906C771.757 186.906 766.59 187.082 763.037 187.436V147.153H767.882C787.905 147.153 803.73 145.387 815.357 141.853C826.983 138.32 834.411 134.786 837.641 131.252H864.285V293.442C864.285 316.41 867.03 333.548 872.52 344.855C878.011 355.809 886.731 361.286 898.68 361.286C907.077 361.286 915.474 358.813 923.871 353.866C932.591 348.566 939.696 342.559 945.186 335.845V231.958C945.186 225.598 945.348 218.354 945.671 210.227C945.994 201.747 946.478 193.62 947.124 185.846C941.957 186.199 935.82 186.552 928.715 186.906C921.933 186.906 916.766 187.082 913.213 187.436V147.153H924.84C940.019 147.153 953.422 145.387 965.048 141.853C976.675 137.966 984.103 134.433 987.332 131.252H1013.98V316.234C1013.98 321.181 1013.82 328.248 1013.49 337.435C1013.17 346.269 1012.68 354.749 1012.04 362.876C1017.21 362.17 1022.86 361.816 1028.99 361.816C1035.45 361.463 1040.3 361.286 1043.53 361.286V401.569H951.484C951.161 396.975 950.677 392.382 950.031 387.788C949.708 383.194 949.223 378.601 948.577 374.007C938.566 383.194 927.746 391.498 916.12 398.919C904.816 406.339 891.414 410.049 875.911 410.049Z" fill="#407E7D"/>
<path d="M1186.52 410.049C1172.63 410.049 1159.06 408.106 1145.82 404.219C1132.58 400.332 1122.25 395.385 1114.82 389.378L1115.79 405.279H1078.97L1077.03 314.113H1108.52C1109.49 324.714 1113.37 334.431 1120.15 343.265C1126.93 352.099 1135.81 359.166 1146.79 364.467C1157.77 369.413 1170.04 371.887 1183.61 371.887C1189.1 371.887 1194.27 371.004 1199.11 369.237C1204.28 367.47 1208.48 364.643 1211.71 360.756C1215.26 356.516 1217.04 351.392 1217.04 345.385C1217.04 338.672 1214.77 333.195 1210.25 328.954C1206.06 324.714 1199.76 320.651 1191.36 316.764C1183.29 312.877 1173.11 308.46 1160.84 303.513C1150.83 299.273 1140.66 294.856 1130.32 290.262C1120.31 285.668 1110.94 280.191 1102.22 273.831C1093.83 267.117 1087.04 258.99 1081.88 249.45C1076.71 239.556 1074.13 227.542 1074.13 213.407C1074.13 203.16 1075.9 193.089 1079.46 183.196C1083.01 172.948 1088.5 163.761 1095.93 155.634C1103.35 147.153 1112.72 140.44 1124.02 135.493C1135.65 130.546 1149.38 128.072 1165.2 128.072C1173.92 128.072 1183.77 129.662 1194.75 132.842C1206.06 135.669 1215.58 140.086 1223.33 146.093V130.722H1260.15V224.538H1228.66C1226.72 212.171 1222.69 201.57 1216.55 192.736C1210.74 183.902 1203.15 177.189 1193.78 172.595C1184.42 167.648 1173.92 165.174 1162.29 165.174C1154.22 165.174 1146.79 167.295 1140.01 171.535C1133.55 175.775 1130.32 183.019 1130.32 193.266C1130.32 201.393 1132.9 207.93 1138.07 212.877C1143.24 217.471 1150.34 221.358 1159.39 224.538C1168.43 227.718 1178.44 231.428 1189.42 235.669C1205.89 241.676 1220.43 248.743 1233.02 256.87C1245.94 264.997 1256.11 274.891 1263.54 286.552C1270.97 297.859 1274.68 311.817 1274.68 328.424C1274.68 346.799 1270.49 361.993 1262.09 374.007C1253.69 386.021 1242.71 395.032 1229.15 401.039C1215.91 407.046 1201.7 410.049 1186.52 410.049Z" fill="#407E7D"/>
<path d="M108.94 410.049C99.2511 410.049 89.8853 408.813 80.8424 406.339C71.7996 403.866 63.7256 399.272 56.6205 392.558C49.5154 385.491 43.8636 375.244 39.6652 361.816C35.4667 348.389 33.3675 330.544 33.3675 308.283L34.3363 180.545H1.39453V136.553C11.4063 136.199 21.095 132.489 30.4608 125.422C39.8266 118.355 47.7391 109.168 54.1983 97.8604C60.9804 86.553 65.5019 74.7156 67.7626 62.3482H103.611L103.127 136.553H164.65V177.365L103.127 178.955L102.642 309.343C102.642 317.47 103.288 325.598 104.58 333.725C106.195 341.498 109.101 348.036 113.3 353.336C117.498 358.283 123.634 360.756 131.708 360.756C136.23 360.756 142.366 358.99 150.117 355.456C158.191 351.922 166.749 343.089 175.792 328.954L199.045 352.806C190.325 366.94 181.283 377.894 171.917 385.668C162.551 393.442 153.508 399.095 144.788 402.629C136.391 406.162 128.963 408.283 122.504 408.989C116.045 409.696 111.523 410.049 108.94 410.049Z" stroke="#42807F" stroke-width="2.78732" mask="url(#path-1-outside-1_9113_8483)"/>
<path d="M327.948 410.049C304.372 410.049 283.541 404.396 265.455 393.088C247.369 381.428 233.321 365.173 223.309 344.325C213.297 323.124 208.291 298.213 208.291 269.591C208.291 244.856 213.297 221.711 223.309 200.157C233.321 178.602 247.369 161.288 265.455 148.213C283.864 134.786 305.179 128.072 329.401 128.072C342.965 128.072 356.206 130.192 369.125 134.433C382.043 138.319 393.67 145.21 404.004 155.104C414.662 164.998 423.059 178.425 429.195 195.386C435.654 212.347 438.722 233.549 438.399 258.99L279.504 262.17C279.504 281.251 281.603 298.389 285.801 313.583C290.323 328.778 297.589 340.792 307.601 349.626C317.613 358.46 331.016 362.876 347.81 362.876C354.269 362.876 361.535 361.64 369.609 359.166C378.006 356.693 386.403 352.629 394.8 346.975C403.52 340.968 411.594 333.018 419.022 323.124L440.822 345.385C429.195 363.406 416.761 377.187 403.52 386.728C390.279 395.915 377.037 402.099 363.796 405.279C350.878 408.459 338.928 410.049 327.948 410.049ZM282.41 225.068H371.547C371.224 210.227 369.286 198.566 365.734 190.086C362.504 181.252 357.983 174.892 352.169 171.005C346.356 167.118 339.574 165.174 331.823 165.174C317.613 165.174 306.471 170.828 298.397 182.135C290.323 193.089 284.994 207.4 282.41 225.068Z" stroke="#42807F" stroke-width="2.78732" mask="url(#path-1-outside-1_9113_8483)"/>
<path d="M466.054 367.117C475.097 367.117 481.556 365.173 485.432 361.286C489.63 357.399 492.214 351.922 493.183 344.855C494.151 337.435 494.636 329.131 494.636 319.944V102.101C494.636 95.7403 494.797 88.4965 495.12 80.3693C495.443 71.8888 495.928 63.7616 496.574 55.9879C491.406 56.3412 485.27 56.6946 478.165 57.0479C471.383 57.0479 466.216 57.2246 462.663 57.5779V17.2955C477.842 17.2955 490.438 16.4121 500.449 14.6454C510.784 12.8786 518.858 10.7584 524.671 8.28495C530.807 5.81148 535.006 3.51467 537.266 1.39453H563.426V316.234C563.426 321.181 563.265 328.248 562.942 337.435C562.619 346.269 562.134 354.749 561.488 362.876C566.979 362.17 572.792 361.816 578.928 361.816C585.064 361.463 589.747 361.286 592.977 361.286V401.569H466.054V367.117Z" stroke="#42807F" stroke-width="2.78732" mask="url(#path-1-outside-1_9113_8483)"/>
<path d="M616.968 367.117C626.011 367.117 632.47 365.173 636.345 361.286C640.544 357.399 643.128 351.922 644.096 344.855C645.065 337.435 645.55 329.131 645.55 319.944V102.101C645.55 95.7403 645.711 88.4965 646.034 80.3693C646.357 71.8888 646.842 63.7616 647.488 55.9879C642.32 56.3412 636.184 56.6946 629.079 57.0479C622.297 57.0479 617.129 57.2246 613.577 57.5779V17.2955C628.756 17.2955 641.351 16.4121 651.363 14.6454C661.698 12.8786 669.772 10.7584 675.585 8.28495C681.721 5.81148 685.92 3.51467 688.18 1.39453H714.34V316.234C714.34 321.181 714.179 328.248 713.856 337.435C713.533 346.269 713.048 354.749 712.402 362.876C717.893 362.17 723.706 361.816 729.842 361.816C735.978 361.463 740.661 361.286 743.891 361.286V401.569H616.968V367.117Z" stroke="#42807F" stroke-width="2.78732" mask="url(#path-1-outside-1_9113_8483)"/>
<path d="M875.911 410.049C856.534 410.049 840.87 405.986 828.921 397.859C817.294 389.731 808.736 377.011 803.246 359.696C798.078 342.382 795.495 320.121 795.495 292.912V231.958C795.495 225.598 795.656 218.354 795.979 210.227C796.302 201.747 796.625 193.62 796.948 185.846C791.781 186.199 785.645 186.552 778.539 186.906C771.757 186.906 766.59 187.082 763.037 187.436V147.153H767.882C787.905 147.153 803.73 145.387 815.357 141.853C826.983 138.32 834.411 134.786 837.641 131.252H864.285V293.442C864.285 316.41 867.03 333.548 872.52 344.855C878.011 355.809 886.731 361.286 898.68 361.286C907.077 361.286 915.474 358.813 923.871 353.866C932.591 348.566 939.696 342.559 945.186 335.845V231.958C945.186 225.598 945.348 218.354 945.671 210.227C945.994 201.747 946.478 193.62 947.124 185.846C941.957 186.199 935.82 186.552 928.715 186.906C921.933 186.906 916.766 187.082 913.213 187.436V147.153H924.84C940.019 147.153 953.422 145.387 965.048 141.853C976.675 137.966 984.103 134.433 987.332 131.252H1013.98V316.234C1013.98 321.181 1013.82 328.248 1013.49 337.435C1013.17 346.269 1012.68 354.749 1012.04 362.876C1017.21 362.17 1022.86 361.816 1028.99 361.816C1035.45 361.463 1040.3 361.286 1043.53 361.286V401.569H951.484C951.161 396.975 950.677 392.382 950.031 387.788C949.708 383.194 949.223 378.601 948.577 374.007C938.566 383.194 927.746 391.498 916.12 398.919C904.816 406.339 891.414 410.049 875.911 410.049Z" stroke="#42807F" stroke-width="2.78732" mask="url(#path-1-outside-1_9113_8483)"/>
<path d="M1186.52 410.049C1172.63 410.049 1159.06 408.106 1145.82 404.219C1132.58 400.332 1122.25 395.385 1114.82 389.378L1115.79 405.279H1078.97L1077.03 314.113H1108.52C1109.49 324.714 1113.37 334.431 1120.15 343.265C1126.93 352.099 1135.81 359.166 1146.79 364.467C1157.77 369.413 1170.04 371.887 1183.61 371.887C1189.1 371.887 1194.27 371.004 1199.11 369.237C1204.28 367.47 1208.48 364.643 1211.71 360.756C1215.26 356.516 1217.04 351.392 1217.04 345.385C1217.04 338.672 1214.77 333.195 1210.25 328.954C1206.06 324.714 1199.76 320.651 1191.36 316.764C1183.29 312.877 1173.11 308.46 1160.84 303.513C1150.83 299.273 1140.66 294.856 1130.32 290.262C1120.31 285.668 1110.94 280.191 1102.22 273.831C1093.83 267.117 1087.04 258.99 1081.88 249.45C1076.71 239.556 1074.13 227.542 1074.13 213.407C1074.13 203.16 1075.9 193.089 1079.46 183.196C1083.01 172.948 1088.5 163.761 1095.93 155.634C1103.35 147.153 1112.72 140.44 1124.02 135.493C1135.65 130.546 1149.38 128.072 1165.2 128.072C1173.92 128.072 1183.77 129.662 1194.75 132.842C1206.06 135.669 1215.58 140.086 1223.33 146.093V130.722H1260.15V224.538H1228.66C1226.72 212.171 1222.69 201.57 1216.55 192.736C1210.74 183.902 1203.15 177.189 1193.78 172.595C1184.42 167.648 1173.92 165.174 1162.29 165.174C1154.22 165.174 1146.79 167.295 1140.01 171.535C1133.55 175.775 1130.32 183.019 1130.32 193.266C1130.32 201.393 1132.9 207.93 1138.07 212.877C1143.24 217.471 1150.34 221.358 1159.39 224.538C1168.43 227.718 1178.44 231.428 1189.42 235.669C1205.89 241.676 1220.43 248.743 1233.02 256.87C1245.94 264.997 1256.11 274.891 1263.54 286.552C1270.97 297.859 1274.68 311.817 1274.68 328.424C1274.68 346.799 1270.49 361.993 1262.09 374.007C1253.69 386.021 1242.71 395.032 1229.15 401.039C1215.91 407.046 1201.7 410.049 1186.52 410.049Z" stroke="#42807F" stroke-width="2.78732" mask="url(#path-1-outside-1_9113_8483)"/>
<mask id="path-2-outside-2_9113_8483" maskUnits="userSpaceOnUse" x="20.4531" y="504.123" width="2681" height="538" fill="black">
<rect fill="white" x="20.4531" y="504.123" width="2681" height="538"/>
<path d="M141.625 913.718C119.987 913.718 100.125 908.417 82.039 897.817C63.9533 887.216 49.4202 871.845 38.4396 851.704C27.7819 831.563 22.4531 807.181 22.4531 778.559C22.4531 758.418 25.5212 739.514 31.6575 721.846C37.7937 704.178 46.3521 688.631 57.3327 675.203C68.6362 661.776 81.8776 651.175 97.0566 643.401C112.559 635.628 129.675 631.741 148.407 631.741C169.076 631.741 186.193 635.274 199.758 642.341C213.645 649.055 223.979 658.066 230.762 669.373C237.867 680.327 241.419 691.988 241.419 704.355C241.419 714.602 238.513 723.789 232.699 731.917C227.209 739.69 219.297 743.754 208.962 744.107C196.689 744.461 188.131 740.751 183.287 732.977C178.442 724.85 176.02 717.076 176.02 709.655C176.02 706.475 176.504 702.765 177.473 698.525C178.442 693.931 179.896 689.867 181.833 686.334C179.573 681.034 176.182 677.147 171.66 674.673C167.139 672.2 162.456 670.61 157.611 669.903C153.09 668.843 149.376 668.489 146.469 668.843C130.967 669.903 118.21 678.383 108.199 694.284C98.187 710.185 93.1811 733.153 93.1811 763.189C93.1811 780.856 95.1189 797.464 98.9944 813.012C103.193 828.206 109.975 840.75 119.341 850.644C128.707 860.538 141.302 865.838 157.127 866.545C170.691 866.898 183.933 863.365 196.851 855.944C209.769 848.524 220.75 838.453 229.793 825.732L252.077 849.584C240.45 867.251 228.339 880.679 215.744 889.866C203.149 899.053 190.553 905.237 177.958 908.417C165.685 911.951 153.574 913.718 141.625 913.718Z"/>
<path d="M396.72 913.718C373.466 913.718 352.474 908.241 333.743 897.287C315.011 886.333 300.155 870.785 289.174 850.644C278.517 830.149 273.188 806.121 273.188 778.559C273.188 749.231 278.678 723.613 289.659 701.705C300.962 679.443 315.818 662.306 334.227 650.292C352.959 637.924 373.305 631.741 395.266 631.741C418.519 631.741 439.35 637.218 457.759 648.172C476.167 659.126 490.701 674.85 501.358 695.344C512.016 715.486 517.345 739.69 517.345 767.959C517.345 797.641 512.177 823.435 501.843 845.343C491.508 867.251 477.298 884.213 459.212 896.227C441.126 907.887 420.296 913.718 396.72 913.718ZM398.657 876.085C411.576 875.732 421.264 870.785 427.724 861.244C434.506 851.704 439.189 839.69 441.772 825.202C444.356 810.715 445.648 796.051 445.648 781.21C445.648 768.135 444.679 754.885 442.741 741.457C441.126 728.03 438.381 715.839 434.506 704.885C430.63 693.931 425.301 685.097 418.519 678.383C412.06 671.67 403.986 668.489 394.297 668.843C381.702 669.196 371.69 674.143 364.262 683.684C357.157 693.224 351.99 705.238 348.76 719.726C345.853 733.86 344.4 748.701 344.4 764.249C344.4 782.27 346.176 799.937 349.729 817.252C353.282 834.566 358.933 848.877 366.684 860.184C374.758 871.138 385.416 876.439 398.657 876.085Z"/>
<path d="M671.108 913.718C647.855 913.718 626.863 908.241 608.131 897.287C589.4 886.333 574.544 870.785 563.563 850.644C552.905 830.149 547.577 806.121 547.577 778.559C547.577 749.231 553.067 723.613 564.047 701.705C575.351 679.443 590.207 662.306 608.616 650.292C627.347 637.924 647.694 631.741 669.655 631.741C692.908 631.741 713.739 637.218 732.148 648.172C750.556 659.126 765.089 674.85 775.747 695.344C786.405 715.486 791.733 739.69 791.733 767.959C791.733 797.641 786.566 823.435 776.231 845.343C765.897 867.251 751.687 884.213 733.601 896.227C715.515 907.887 694.684 913.718 671.108 913.718ZM673.046 876.085C685.964 875.732 695.653 870.785 702.112 861.244C708.895 851.704 713.577 839.69 716.161 825.202C718.745 810.715 720.037 796.051 720.037 781.21C720.037 768.135 719.068 754.885 717.13 741.457C715.515 728.03 712.77 715.839 708.895 704.885C705.019 693.931 699.69 685.097 692.908 678.383C686.449 671.67 678.375 668.489 668.686 668.843C656.091 669.196 646.079 674.143 638.651 683.684C631.546 693.224 626.379 705.238 623.149 719.726C620.242 733.86 618.789 748.701 618.789 764.249C618.789 782.27 620.565 799.937 624.118 817.252C627.67 834.566 633.322 848.877 641.073 860.184C649.147 871.138 659.805 876.439 673.046 876.085Z"/>
<path d="M821.965 1040.4V1005.94C831.008 1005.94 837.468 1004 841.343 1000.11C845.542 996.226 848.125 990.572 849.094 983.152C850.386 976.085 851.032 967.958 851.032 958.77V734.567C851.032 728.206 851.193 721.139 851.516 713.366C851.839 705.238 852.324 697.288 852.97 689.514C847.802 689.867 841.666 690.221 834.561 690.574C827.456 690.574 822.127 690.751 818.574 691.104V650.822C833.753 650.822 846.349 649.938 856.361 648.172C866.695 646.405 874.769 644.285 880.583 641.811C886.719 639.338 890.917 637.041 893.178 634.921H916.915C917.561 638.454 918.046 642.871 918.369 648.172C918.692 653.119 919.015 657.182 919.338 660.362C930.641 649.762 941.783 642.341 952.764 638.101C964.067 633.861 974.725 631.741 984.737 631.741C1004.11 631.741 1021.07 637.218 1035.6 648.172C1050.46 659.126 1061.92 674.673 1070 694.814C1078.39 714.956 1082.59 738.63 1082.59 765.839C1082.59 794.107 1077.59 819.549 1067.58 842.163C1057.56 864.425 1043.52 881.916 1025.43 894.636C1007.67 907.357 986.674 913.718 962.453 913.718C953.733 913.718 945.82 912.658 938.715 910.537C931.933 908.771 925.474 906.651 919.338 904.177V955.06C919.338 960.007 919.176 966.897 918.853 975.731C918.853 984.919 918.53 993.576 917.884 1001.7C923.052 1001 928.703 1000.47 934.84 1000.11C940.976 1000.11 945.659 1000.11 948.888 1000.11V1040.4H821.965ZM954.702 873.965C969.558 873.612 981.023 868.842 989.097 859.654C997.494 850.114 1003.31 837.746 1006.54 822.552C1009.77 807.358 1011.38 791.104 1011.38 773.789C1011.38 757.535 1009.6 742.164 1006.05 727.676C1002.5 713.189 996.848 701.528 989.097 692.694C981.346 683.507 971.172 679.09 958.577 679.443C950.503 679.797 943.075 682.094 936.293 686.334C929.511 690.221 923.859 695.698 919.338 702.765C919.338 713.719 919.338 724.673 919.338 735.627C919.338 746.228 919.338 756.828 919.338 767.429C919.338 778.029 919.338 788.807 919.338 799.761C919.338 810.361 919.338 821.139 919.338 832.093C919.338 842.693 919.338 853.471 919.338 864.425C922.89 866.898 927.896 869.195 934.355 871.315C940.814 873.435 947.596 874.319 954.702 873.965Z"/>
<path d="M1232.57 913.718C1208.99 913.718 1188.16 908.064 1170.08 896.757C1151.99 885.096 1137.94 868.842 1127.93 847.994C1117.92 826.792 1112.91 801.881 1112.91 773.259C1112.91 748.524 1117.92 725.38 1127.93 703.825C1137.94 682.27 1151.99 664.956 1170.08 651.882C1188.48 638.454 1209.8 631.741 1234.02 631.741C1247.59 631.741 1260.83 633.861 1273.75 638.101C1286.66 641.988 1298.29 648.878 1308.63 658.772C1319.28 668.666 1327.68 682.094 1333.82 699.055C1340.28 716.016 1343.34 737.217 1343.02 762.659L1184.12 765.839C1184.12 784.92 1186.22 802.058 1190.42 817.252C1194.94 832.446 1202.21 844.46 1212.22 853.294C1222.23 862.128 1235.64 866.545 1252.43 866.545C1258.89 866.545 1266.16 865.308 1274.23 862.835C1282.63 860.361 1291.02 856.297 1299.42 850.644C1308.14 844.637 1316.21 836.686 1323.64 826.792L1345.44 849.054C1333.82 867.075 1321.38 880.856 1308.14 890.396C1294.9 899.583 1281.66 905.767 1268.42 908.947C1255.5 912.128 1243.55 913.718 1232.57 913.718ZM1187.03 728.736H1276.17C1275.85 713.896 1273.91 702.235 1270.35 693.754C1267.13 684.92 1262.6 678.56 1256.79 674.673C1250.98 670.786 1244.2 668.843 1236.44 668.843C1222.23 668.843 1211.09 674.497 1203.02 685.804C1194.94 696.758 1189.62 711.069 1187.03 728.736Z"/>
<path d="M1378.43 870.785C1387.47 870.785 1393.93 868.842 1397.8 864.955C1401.68 861.068 1404.1 855.591 1405.07 848.524C1406.36 841.103 1407.01 832.799 1407.01 823.612V734.567C1407.01 728.206 1407.17 721.139 1407.49 713.366C1407.82 705.238 1408.3 697.288 1408.95 689.514C1403.78 689.867 1397.64 690.221 1390.54 690.574C1383.76 690.574 1378.59 690.751 1375.04 691.104V650.822H1394.41C1407.01 650.822 1418.47 649.055 1428.81 645.521C1439.47 641.988 1446.41 638.454 1449.64 634.921H1473.38C1474.02 638.454 1474.51 645.168 1474.83 655.062C1475.15 664.603 1475.31 673.083 1475.31 680.504C1484.03 668.843 1492.27 659.479 1500.02 652.412C1507.77 645.345 1515.36 640.221 1522.79 637.041C1530.54 633.507 1538.29 631.741 1546.04 631.741C1557.35 631.741 1567.2 635.274 1575.59 642.341C1583.99 649.055 1588.19 660.186 1588.19 675.733C1588.19 681.034 1587.06 686.687 1584.8 692.694C1582.54 698.348 1578.98 703.118 1574.14 707.005C1569.29 710.892 1562.67 712.836 1554.28 712.836C1547.82 712.836 1541.2 710.715 1534.42 706.475C1527.63 702.235 1523.76 694.108 1522.79 682.094C1516.33 682.094 1509.87 685.097 1503.41 691.104C1496.95 696.758 1491.14 703.648 1485.97 711.775C1481.13 719.549 1477.74 726.793 1475.8 733.507V819.902C1475.8 824.849 1475.64 831.916 1475.31 841.103C1474.99 849.937 1474.51 858.418 1473.86 866.545C1479.03 865.838 1484.68 865.485 1490.82 865.485C1497.27 865.131 1502.12 864.955 1505.35 864.955V905.237H1378.43V870.785Z"/>
<path d="M1743.49 905.237C1742.85 900.29 1742.36 896.227 1742.04 893.046C1742.04 889.513 1741.88 885.449 1741.55 880.856C1730.57 892.87 1718.95 901.35 1706.67 906.297C1694.4 911.244 1681.97 913.718 1669.37 913.718C1648.7 913.718 1632.56 907.004 1620.93 893.576C1609.3 880.149 1603.49 863.365 1603.49 843.223C1603.49 826.262 1607.36 811.775 1615.12 799.761C1623.19 787.747 1633.69 778.029 1646.6 770.609C1659.85 762.835 1674.38 757.005 1690.2 753.118C1706.35 748.878 1722.5 746.404 1738.65 745.697V718.136C1738.65 708.949 1737.52 700.645 1735.26 693.224C1733.32 685.804 1729.77 679.974 1724.6 675.733C1719.75 671.493 1712.81 669.55 1703.77 669.903C1697.63 670.256 1691.66 671.67 1685.84 674.143C1680.03 676.617 1675.02 680.15 1670.83 684.744C1673.41 687.924 1675.02 691.458 1675.67 695.344C1676.32 698.878 1676.64 702.058 1676.64 704.885C1676.64 711.952 1674.06 719.373 1668.89 727.146C1663.72 734.567 1655.49 738.1 1644.18 737.747C1634.49 737.394 1627.07 733.683 1621.9 726.616C1616.73 719.549 1614.15 711.245 1614.15 701.705C1614.15 687.571 1618.67 675.38 1627.71 665.133C1637.08 654.532 1649.51 646.405 1665.01 640.751C1680.52 634.744 1697.63 631.741 1716.36 631.741C1744.78 631.741 1766.74 639.868 1782.25 656.122C1798.07 672.023 1805.98 697.641 1805.98 732.977C1805.98 744.991 1805.98 755.238 1805.98 763.719C1805.98 772.199 1805.82 780.68 1805.5 789.16C1805.5 797.641 1805.5 807.888 1805.5 819.902C1805.5 824.849 1805.34 831.916 1805.02 841.103C1804.69 849.937 1804.21 858.418 1803.56 866.545C1809.05 865.838 1814.87 865.485 1821 865.485C1827.14 865.131 1831.82 864.955 1835.05 864.955V905.237H1743.49ZM1738.16 783.33C1729.12 784.39 1720.56 786.157 1712.49 788.63C1704.41 791.104 1697.31 794.46 1691.17 798.701C1685.36 802.941 1680.68 808.065 1677.12 814.072C1673.89 820.079 1672.28 826.792 1672.28 834.213C1672.6 844.107 1675.51 851.174 1681 855.414C1686.49 859.654 1692.79 861.774 1699.89 861.774C1707.32 861.774 1714.26 860.008 1720.72 856.474C1727.18 852.941 1733 848.347 1738.16 842.693C1738.16 839.16 1738.16 835.803 1738.16 832.623C1738.16 829.089 1738.16 825.556 1738.16 822.022C1738.16 815.662 1738.16 809.301 1738.16 802.941C1738.16 796.227 1738.16 789.69 1738.16 783.33Z"/>
<path d="M1956.89 913.718C1947.2 913.718 1937.84 912.481 1928.79 910.007C1919.75 907.534 1911.68 902.94 1904.57 896.227C1897.47 889.159 1891.81 878.912 1887.62 865.485C1883.42 852.057 1881.32 834.213 1881.32 811.951L1882.29 684.214H1849.35V640.221C1859.36 639.868 1869.05 636.158 1878.41 629.09C1887.78 622.023 1895.69 612.836 1902.15 601.529C1908.93 590.221 1913.45 578.384 1915.71 566.017H1951.56L1951.08 640.221H2012.6V681.034L1951.08 682.624L1950.59 813.012C1950.59 821.139 1951.24 829.266 1952.53 837.393C1954.15 845.167 1957.05 851.704 1961.25 857.004C1965.45 861.951 1971.59 864.425 1979.66 864.425C1984.18 864.425 1990.32 862.658 1998.07 859.124C2006.14 855.591 2014.7 846.757 2023.74 832.623L2047 856.474C2038.28 870.608 2029.23 881.562 2019.87 889.336C2010.5 897.11 2001.46 902.764 1992.74 906.297C1984.34 909.831 1976.91 911.951 1970.45 912.658C1964 913.364 1959.47 913.718 1956.89 913.718Z"/>
<path d="M2061.09 870.785C2070.13 870.785 2076.59 868.842 2080.46 864.955C2084.34 861.068 2086.76 855.591 2087.73 848.524C2089.02 841.103 2089.67 832.799 2089.67 823.612V735.627C2089.67 729.266 2089.83 722.023 2090.15 713.896C2090.48 705.415 2090.96 697.288 2091.61 689.514C2086.44 689.867 2080.3 690.221 2073.2 690.574C2066.42 690.574 2061.25 690.751 2057.7 691.104V650.822C2072.55 650.822 2085.15 649.938 2095.48 648.172C2105.82 646.405 2113.89 644.285 2119.7 641.811C2125.84 639.338 2130.04 637.041 2132.3 634.921H2158.46V819.902C2158.46 824.849 2158.3 831.916 2157.97 841.103C2157.65 849.937 2157.17 858.418 2156.52 866.545C2161.69 865.838 2167.34 865.485 2173.48 865.485C2179.94 865.131 2184.78 864.955 2188.01 864.955V905.237H2061.09V870.785ZM2121.64 593.048C2110.66 593.048 2101.62 588.808 2094.51 580.328C2087.41 571.847 2083.86 561.6 2083.86 549.586C2083.86 537.572 2087.57 527.324 2095 518.844C2102.43 510.363 2111.15 506.123 2121.16 506.123C2131.49 506.123 2140.05 510.363 2146.83 518.844C2153.94 527.324 2157.49 537.572 2157.49 549.586C2157.49 561.6 2154.26 571.847 2147.8 580.328C2141.34 588.808 2132.62 593.048 2121.64 593.048Z"/>
<path d="M2306.36 906.827L2229.82 722.906C2226.27 714.072 2223.69 707.359 2222.07 702.765C2220.78 698.171 2219.81 694.284 2219.16 691.104C2218.84 687.571 2218.2 683.684 2217.23 679.443L2199.3 680.504V640.221H2312.66V674.143C2305.88 674.497 2301.36 676.617 2299.1 680.504C2296.84 684.39 2296.03 689.514 2296.67 695.874C2297.32 701.882 2298.77 708.419 2301.03 715.486L2326.23 783.33C2328.81 790.043 2331.39 796.934 2333.98 804.001C2336.56 811.068 2339.14 818.135 2341.73 825.202H2342.21C2344.8 817.782 2347.22 810.361 2349.48 802.941C2352.06 795.52 2354.48 788.1 2356.75 780.68L2377.58 716.016C2380.48 707.182 2383.07 700.115 2385.33 694.814C2387.91 689.514 2390.66 684.037 2393.56 678.383L2363.53 680.504V640.221H2455.57V674.143C2448.14 675.557 2441.52 680.15 2435.71 687.924C2429.9 695.344 2424.89 703.825 2420.69 713.366C2416.49 722.553 2413.1 730.68 2410.52 737.747L2348.51 906.827H2306.36Z"/>
<path d="M2586.06 913.718C2562.49 913.718 2541.66 908.064 2523.57 896.757C2505.48 885.096 2491.44 868.842 2481.42 847.994C2471.41 826.792 2466.41 801.881 2466.41 773.259C2466.41 748.524 2471.41 725.38 2481.42 703.825C2491.44 682.27 2505.48 664.956 2523.57 651.882C2541.98 638.454 2563.29 631.741 2587.52 631.741C2601.08 631.741 2614.32 633.861 2627.24 638.101C2640.16 641.988 2651.78 648.878 2662.12 658.772C2672.78 668.666 2681.17 682.094 2687.31 699.055C2693.77 716.016 2696.84 737.217 2696.51 762.659L2537.62 765.839C2537.62 784.92 2539.72 802.058 2543.92 817.252C2548.44 832.446 2555.7 844.46 2565.72 853.294C2575.73 862.128 2589.13 866.545 2605.92 866.545C2612.38 866.545 2619.65 865.308 2627.72 862.835C2636.12 860.361 2644.52 856.297 2652.92 850.644C2661.64 844.637 2669.71 836.686 2677.14 826.792L2698.94 849.054C2687.31 867.075 2674.88 880.856 2661.64 890.396C2648.39 899.583 2635.15 905.767 2621.91 908.947C2608.99 912.128 2597.04 913.718 2586.06 913.718ZM2540.53 728.736H2629.66C2629.34 713.896 2627.4 702.235 2623.85 693.754C2620.62 684.92 2616.1 678.56 2610.28 674.673C2604.47 670.786 2597.69 668.843 2589.94 668.843C2575.73 668.843 2564.59 674.497 2556.51 685.804C2548.44 696.758 2543.11 711.069 2540.53 728.736Z"/>
</mask>
<path d="M141.625 913.718C119.987 913.718 100.125 908.417 82.039 897.817C63.9533 887.216 49.4202 871.845 38.4396 851.704C27.7819 831.563 22.4531 807.181 22.4531 778.559C22.4531 758.418 25.5212 739.514 31.6575 721.846C37.7937 704.178 46.3521 688.631 57.3327 675.203C68.6362 661.776 81.8776 651.175 97.0566 643.401C112.559 635.628 129.675 631.741 148.407 631.741C169.076 631.741 186.193 635.274 199.758 642.341C213.645 649.055 223.979 658.066 230.762 669.373C237.867 680.327 241.419 691.988 241.419 704.355C241.419 714.602 238.513 723.789 232.699 731.917C227.209 739.69 219.297 743.754 208.962 744.107C196.689 744.461 188.131 740.751 183.287 732.977C178.442 724.85 176.02 717.076 176.02 709.655C176.02 706.475 176.504 702.765 177.473 698.525C178.442 693.931 179.896 689.867 181.833 686.334C179.573 681.034 176.182 677.147 171.66 674.673C167.139 672.2 162.456 670.61 157.611 669.903C153.09 668.843 149.376 668.489 146.469 668.843C130.967 669.903 118.21 678.383 108.199 694.284C98.187 710.185 93.1811 733.153 93.1811 763.189C93.1811 780.856 95.1189 797.464 98.9944 813.012C103.193 828.206 109.975 840.75 119.341 850.644C128.707 860.538 141.302 865.838 157.127 866.545C170.691 866.898 183.933 863.365 196.851 855.944C209.769 848.524 220.75 838.453 229.793 825.732L252.077 849.584C240.45 867.251 228.339 880.679 215.744 889.866C203.149 899.053 190.553 905.237 177.958 908.417C165.685 911.951 153.574 913.718 141.625 913.718Z" fill="#407E7D"/>
<path d="M396.72 913.718C373.466 913.718 352.474 908.241 333.743 897.287C315.011 886.333 300.155 870.785 289.174 850.644C278.517 830.149 273.188 806.121 273.188 778.559C273.188 749.231 278.678 723.613 289.659 701.705C300.962 679.443 315.818 662.306 334.227 650.292C352.959 637.924 373.305 631.741 395.266 631.741C418.519 631.741 439.35 637.218 457.759 648.172C476.167 659.126 490.701 674.85 501.358 695.344C512.016 715.486 517.345 739.69 517.345 767.959C517.345 797.641 512.177 823.435 501.843 845.343C491.508 867.251 477.298 884.213 459.212 896.227C441.126 907.887 420.296 913.718 396.72 913.718ZM398.657 876.085C411.576 875.732 421.264 870.785 427.724 861.244C434.506 851.704 439.189 839.69 441.772 825.202C444.356 810.715 445.648 796.051 445.648 781.21C445.648 768.135 444.679 754.885 442.741 741.457C441.126 728.03 438.381 715.839 434.506 704.885C430.63 693.931 425.301 685.097 418.519 678.383C412.06 671.67 403.986 668.489 394.297 668.843C381.702 669.196 371.69 674.143 364.262 683.684C357.157 693.224 351.99 705.238 348.76 719.726C345.853 733.86 344.4 748.701 344.4 764.249C344.4 782.27 346.176 799.937 349.729 817.252C353.282 834.566 358.933 848.877 366.684 860.184C374.758 871.138 385.416 876.439 398.657 876.085Z" fill="#407E7D"/>
<path d="M671.108 913.718C647.855 913.718 626.863 908.241 608.131 897.287C589.4 886.333 574.544 870.785 563.563 850.644C552.905 830.149 547.577 806.121 547.577 778.559C547.577 749.231 553.067 723.613 564.047 701.705C575.351 679.443 590.207 662.306 608.616 650.292C627.347 637.924 647.694 631.741 669.655 631.741C692.908 631.741 713.739 637.218 732.148 648.172C750.556 659.126 765.089 674.85 775.747 695.344C786.405 715.486 791.733 739.69 791.733 767.959C791.733 797.641 786.566 823.435 776.231 845.343C765.897 867.251 751.687 884.213 733.601 896.227C715.515 907.887 694.684 913.718 671.108 913.718ZM673.046 876.085C685.964 875.732 695.653 870.785 702.112 861.244C708.895 851.704 713.577 839.69 716.161 825.202C718.745 810.715 720.037 796.051 720.037 781.21C720.037 768.135 719.068 754.885 717.13 741.457C715.515 728.03 712.77 715.839 708.895 704.885C705.019 693.931 699.69 685.097 692.908 678.383C686.449 671.67 678.375 668.489 668.686 668.843C656.091 669.196 646.079 674.143 638.651 683.684C631.546 693.224 626.379 705.238 623.149 719.726C620.242 733.86 618.789 748.701 618.789 764.249C618.789 782.27 620.565 799.937 624.118 817.252C627.67 834.566 633.322 848.877 641.073 860.184C649.147 871.138 659.805 876.439 673.046 876.085Z" fill="#407E7D"/>
<path d="M821.965 1040.4V1005.94C831.008 1005.94 837.468 1004 841.343 1000.11C845.542 996.226 848.125 990.572 849.094 983.152C850.386 976.085 851.032 967.958 851.032 958.77V734.567C851.032 728.206 851.193 721.139 851.516 713.366C851.839 705.238 852.324 697.288 852.97 689.514C847.802 689.867 841.666 690.221 834.561 690.574C827.456 690.574 822.127 690.751 818.574 691.104V650.822C833.753 650.822 846.349 649.938 856.361 648.172C866.695 646.405 874.769 644.285 880.583 641.811C886.719 639.338 890.917 637.041 893.178 634.921H916.915C917.561 638.454 918.046 642.871 918.369 648.172C918.692 653.119 919.015 657.182 919.338 660.362C930.641 649.762 941.783 642.341 952.764 638.101C964.067 633.861 974.725 631.741 984.737 631.741C1004.11 631.741 1021.07 637.218 1035.6 648.172C1050.46 659.126 1061.92 674.673 1070 694.814C1078.39 714.956 1082.59 738.63 1082.59 765.839C1082.59 794.107 1077.59 819.549 1067.58 842.163C1057.56 864.425 1043.52 881.916 1025.43 894.636C1007.67 907.357 986.674 913.718 962.453 913.718C953.733 913.718 945.82 912.658 938.715 910.537C931.933 908.771 925.474 906.651 919.338 904.177V955.06C919.338 960.007 919.176 966.897 918.853 975.731C918.853 984.919 918.53 993.576 917.884 1001.7C923.052 1001 928.703 1000.47 934.84 1000.11C940.976 1000.11 945.659 1000.11 948.888 1000.11V1040.4H821.965ZM954.702 873.965C969.558 873.612 981.023 868.842 989.097 859.654C997.494 850.114 1003.31 837.746 1006.54 822.552C1009.77 807.358 1011.38 791.104 1011.38 773.789C1011.38 757.535 1009.6 742.164 1006.05 727.676C1002.5 713.189 996.848 701.528 989.097 692.694C981.346 683.507 971.172 679.09 958.577 679.443C950.503 679.797 943.075 682.094 936.293 686.334C929.511 690.221 923.859 695.698 919.338 702.765C919.338 713.719 919.338 724.673 919.338 735.627C919.338 746.228 919.338 756.828 919.338 767.429C919.338 778.029 919.338 788.807 919.338 799.761C919.338 810.361 919.338 821.139 919.338 832.093C919.338 842.693 919.338 853.471 919.338 864.425C922.89 866.898 927.896 869.195 934.355 871.315C940.814 873.435 947.596 874.319 954.702 873.965Z" fill="#407E7D"/>
<path d="M1232.57 913.718C1208.99 913.718 1188.16 908.064 1170.08 896.757C1151.99 885.096 1137.94 868.842 1127.93 847.994C1117.92 826.792 1112.91 801.881 1112.91 773.259C1112.91 748.524 1117.92 725.38 1127.93 703.825C1137.94 682.27 1151.99 664.956 1170.08 651.882C1188.48 638.454 1209.8 631.741 1234.02 631.741C1247.59 631.741 1260.83 633.861 1273.75 638.101C1286.66 641.988 1298.29 648.878 1308.63 658.772C1319.28 668.666 1327.68 682.094 1333.82 699.055C1340.28 716.016 1343.34 737.217 1343.02 762.659L1184.12 765.839C1184.12 784.92 1186.22 802.058 1190.42 817.252C1194.94 832.446 1202.21 844.46 1212.22 853.294C1222.23 862.128 1235.64 866.545 1252.43 866.545C1258.89 866.545 1266.16 865.308 1274.23 862.835C1282.63 860.361 1291.02 856.297 1299.42 850.644C1308.14 844.637 1316.21 836.686 1323.64 826.792L1345.44 849.054C1333.82 867.075 1321.38 880.856 1308.14 890.396C1294.9 899.583 1281.66 905.767 1268.42 908.947C1255.5 912.128 1243.55 913.718 1232.57 913.718ZM1187.03 728.736H1276.17C1275.85 713.896 1273.91 702.235 1270.35 693.754C1267.13 684.92 1262.6 678.56 1256.79 674.673C1250.98 670.786 1244.2 668.843 1236.44 668.843C1222.23 668.843 1211.09 674.497 1203.02 685.804C1194.94 696.758 1189.62 711.069 1187.03 728.736Z" fill="#407E7D"/>
<path d="M1378.43 870.785C1387.47 870.785 1393.93 868.842 1397.8 864.955C1401.68 861.068 1404.1 855.591 1405.07 848.524C1406.36 841.103 1407.01 832.799 1407.01 823.612V734.567C1407.01 728.206 1407.17 721.139 1407.49 713.366C1407.82 705.238 1408.3 697.288 1408.95 689.514C1403.78 689.867 1397.64 690.221 1390.54 690.574C1383.76 690.574 1378.59 690.751 1375.04 691.104V650.822H1394.41C1407.01 650.822 1418.47 649.055 1428.81 645.521C1439.47 641.988 1446.41 638.454 1449.64 634.921H1473.38C1474.02 638.454 1474.51 645.168 1474.83 655.062C1475.15 664.603 1475.31 673.083 1475.31 680.504C1484.03 668.843 1492.27 659.479 1500.02 652.412C1507.77 645.345 1515.36 640.221 1522.79 637.041C1530.54 633.507 1538.29 631.741 1546.04 631.741C1557.35 631.741 1567.2 635.274 1575.59 642.341C1583.99 649.055 1588.19 660.186 1588.19 675.733C1588.19 681.034 1587.06 686.687 1584.8 692.694C1582.54 698.348 1578.98 703.118 1574.14 707.005C1569.29 710.892 1562.67 712.836 1554.28 712.836C1547.82 712.836 1541.2 710.715 1534.42 706.475C1527.63 702.235 1523.76 694.108 1522.79 682.094C1516.33 682.094 1509.87 685.097 1503.41 691.104C1496.95 696.758 1491.14 703.648 1485.97 711.775C1481.13 719.549 1477.74 726.793 1475.8 733.507V819.902C1475.8 824.849 1475.64 831.916 1475.31 841.103C1474.99 849.937 1474.51 858.418 1473.86 866.545C1479.03 865.838 1484.68 865.485 1490.82 865.485C1497.27 865.131 1502.12 864.955 1505.35 864.955V905.237H1378.43V870.785Z" fill="#407E7D"/>
<path d="M1743.49 905.237C1742.85 900.29 1742.36 896.227 1742.04 893.046C1742.04 889.513 1741.88 885.449 1741.55 880.856C1730.57 892.87 1718.95 901.35 1706.67 906.297C1694.4 911.244 1681.97 913.718 1669.37 913.718C1648.7 913.718 1632.56 907.004 1620.93 893.576C1609.3 880.149 1603.49 863.365 1603.49 843.223C1603.49 826.262 1607.36 811.775 1615.12 799.761C1623.19 787.747 1633.69 778.029 1646.6 770.609C1659.85 762.835 1674.38 757.005 1690.2 753.118C1706.35 748.878 1722.5 746.404 1738.65 745.697V718.136C1738.65 708.949 1737.52 700.645 1735.26 693.224C1733.32 685.804 1729.77 679.974 1724.6 675.733C1719.75 671.493 1712.81 669.55 1703.77 669.903C1697.63 670.256 1691.66 671.67 1685.84 674.143C1680.03 676.617 1675.02 680.15 1670.83 684.744C1673.41 687.924 1675.02 691.458 1675.67 695.344C1676.32 698.878 1676.64 702.058 1676.64 704.885C1676.64 711.952 1674.06 719.373 1668.89 727.146C1663.72 734.567 1655.49 738.1 1644.18 737.747C1634.49 737.394 1627.07 733.683 1621.9 726.616C1616.73 719.549 1614.15 711.245 1614.15 701.705C1614.15 687.571 1618.67 675.38 1627.71 665.133C1637.08 654.532 1649.51 646.405 1665.01 640.751C1680.52 634.744 1697.63 631.741 1716.36 631.741C1744.78 631.741 1766.74 639.868 1782.25 656.122C1798.07 672.023 1805.98 697.641 1805.98 732.977C1805.98 744.991 1805.98 755.238 1805.98 763.719C1805.98 772.199 1805.82 780.68 1805.5 789.16C1805.5 797.641 1805.5 807.888 1805.5 819.902C1805.5 824.849 1805.34 831.916 1805.02 841.103C1804.69 849.937 1804.21 858.418 1803.56 866.545C1809.05 865.838 1814.87 865.485 1821 865.485C1827.14 865.131 1831.82 864.955 1835.05 864.955V905.237H1743.49ZM1738.16 783.33C1729.12 784.39 1720.56 786.157 1712.49 788.63C1704.41 791.104 1697.31 794.46 1691.17 798.701C1685.36 802.941 1680.68 808.065 1677.12 814.072C1673.89 820.079 1672.28 826.792 1672.28 834.213C1672.6 844.107 1675.51 851.174 1681 855.414C1686.49 859.654 1692.79 861.774 1699.89 861.774C1707.32 861.774 1714.26 860.008 1720.72 856.474C1727.18 852.941 1733 848.347 1738.16 842.693C1738.16 839.16 1738.16 835.803 1738.16 832.623C1738.16 829.089 1738.16 825.556 1738.16 822.022C1738.16 815.662 1738.16 809.301 1738.16 802.941C1738.16 796.227 1738.16 789.69 1738.16 783.33Z" fill="#407E7D"/>
<path d="M1956.89 913.718C1947.2 913.718 1937.84 912.481 1928.79 910.007C1919.75 907.534 1911.68 902.94 1904.57 896.227C1897.47 889.159 1891.81 878.912 1887.62 865.485C1883.42 852.057 1881.32 834.213 1881.32 811.951L1882.29 684.214H1849.35V640.221C1859.36 639.868 1869.05 636.158 1878.41 629.09C1887.78 622.023 1895.69 612.836 1902.15 601.529C1908.93 590.221 1913.45 578.384 1915.71 566.017H1951.56L1951.08 640.221H2012.6V681.034L1951.08 682.624L1950.59 813.012C1950.59 821.139 1951.24 829.266 1952.53 837.393C1954.15 845.167 1957.05 851.704 1961.25 857.004C1965.45 861.951 1971.59 864.425 1979.66 864.425C1984.18 864.425 1990.32 862.658 1998.07 859.124C2006.14 855.591 2014.7 846.757 2023.74 832.623L2047 856.474C2038.28 870.608 2029.23 881.562 2019.87 889.336C2010.5 897.11 2001.46 902.764 1992.74 906.297C1984.34 909.831 1976.91 911.951 1970.45 912.658C1964 913.364 1959.47 913.718 1956.89 913.718Z" fill="#407E7D"/>
<path d="M2061.09 870.785C2070.13 870.785 2076.59 868.842 2080.46 864.955C2084.34 861.068 2086.76 855.591 2087.73 848.524C2089.02 841.103 2089.67 832.799 2089.67 823.612V735.627C2089.67 729.266 2089.83 722.023 2090.15 713.896C2090.48 705.415 2090.96 697.288 2091.61 689.514C2086.44 689.867 2080.3 690.221 2073.2 690.574C2066.42 690.574 2061.25 690.751 2057.7 691.104V650.822C2072.55 650.822 2085.15 649.938 2095.48 648.172C2105.82 646.405 2113.89 644.285 2119.7 641.811C2125.84 639.338 2130.04 637.041 2132.3 634.921H2158.46V819.902C2158.46 824.849 2158.3 831.916 2157.97 841.103C2157.65 849.937 2157.17 858.418 2156.52 866.545C2161.69 865.838 2167.34 865.485 2173.48 865.485C2179.94 865.131 2184.78 864.955 2188.01 864.955V905.237H2061.09V870.785ZM2121.64 593.048C2110.66 593.048 2101.62 588.808 2094.51 580.328C2087.41 571.847 2083.86 561.6 2083.86 549.586C2083.86 537.572 2087.57 527.324 2095 518.844C2102.43 510.363 2111.15 506.123 2121.16 506.123C2131.49 506.123 2140.05 510.363 2146.83 518.844C2153.94 527.324 2157.49 537.572 2157.49 549.586C2157.49 561.6 2154.26 571.847 2147.8 580.328C2141.34 588.808 2132.62 593.048 2121.64 593.048Z" fill="#407E7D"/>
<path d="M2306.36 906.827L2229.82 722.906C2226.27 714.072 2223.69 707.359 2222.07 702.765C2220.78 698.171 2219.81 694.284 2219.16 691.104C2218.84 687.571 2218.2 683.684 2217.23 679.443L2199.3 680.504V640.221H2312.66V674.143C2305.88 674.497 2301.36 676.617 2299.1 680.504C2296.84 684.39 2296.03 689.514 2296.67 695.874C2297.32 701.882 2298.77 708.419 2301.03 715.486L2326.23 783.33C2328.81 790.043 2331.39 796.934 2333.98 804.001C2336.56 811.068 2339.14 818.135 2341.73 825.202H2342.21C2344.8 817.782 2347.22 810.361 2349.48 802.941C2352.06 795.52 2354.48 788.1 2356.75 780.68L2377.58 716.016C2380.48 707.182 2383.07 700.115 2385.33 694.814C2387.91 689.514 2390.66 684.037 2393.56 678.383L2363.53 680.504V640.221H2455.57V674.143C2448.14 675.557 2441.52 680.15 2435.71 687.924C2429.9 695.344 2424.89 703.825 2420.69 713.366C2416.49 722.553 2413.1 730.68 2410.52 737.747L2348.51 906.827H2306.36Z" fill="#407E7D"/>
<path d="M2586.06 913.718C2562.49 913.718 2541.66 908.064 2523.57 896.757C2505.48 885.096 2491.44 868.842 2481.42 847.994C2471.41 826.792 2466.41 801.881 2466.41 773.259C2466.41 748.524 2471.41 725.38 2481.42 703.825C2491.44 682.27 2505.48 664.956 2523.57 651.882C2541.98 638.454 2563.29 631.741 2587.52 631.741C2601.08 631.741 2614.32 633.861 2627.24 638.101C2640.16 641.988 2651.78 648.878 2662.12 658.772C2672.78 668.666 2681.17 682.094 2687.31 699.055C2693.77 716.016 2696.84 737.217 2696.51 762.659L2537.62 765.839C2537.62 784.92 2539.72 802.058 2543.92 817.252C2548.44 832.446 2555.7 844.46 2565.72 853.294C2575.73 862.128 2589.13 866.545 2605.92 866.545C2612.38 866.545 2619.65 865.308 2627.72 862.835C2636.12 860.361 2644.52 856.297 2652.92 850.644C2661.64 844.637 2669.71 836.686 2677.14 826.792L2698.94 849.054C2687.31 867.075 2674.88 880.856 2661.64 890.396C2648.39 899.583 2635.15 905.767 2621.91 908.947C2608.99 912.128 2597.04 913.718 2586.06 913.718ZM2540.53 728.736H2629.66C2629.34 713.896 2627.4 702.235 2623.85 693.754C2620.62 684.92 2616.1 678.56 2610.28 674.673C2604.47 670.786 2597.69 668.843 2589.94 668.843C2575.73 668.843 2564.59 674.497 2556.51 685.804C2548.44 696.758 2543.11 711.069 2540.53 728.736Z" fill="#407E7D"/>
<path d="M141.625 913.718C119.987 913.718 100.125 908.417 82.039 897.817C63.9533 887.216 49.4202 871.845 38.4396 851.704C27.7819 831.563 22.4531 807.181 22.4531 778.559C22.4531 758.418 25.5212 739.514 31.6575 721.846C37.7937 704.178 46.3521 688.631 57.3327 675.203C68.6362 661.776 81.8776 651.175 97.0566 643.401C112.559 635.628 129.675 631.741 148.407 631.741C169.076 631.741 186.193 635.274 199.758 642.341C213.645 649.055 223.979 658.066 230.762 669.373C237.867 680.327 241.419 691.988 241.419 704.355C241.419 714.602 238.513 723.789 232.699 731.917C227.209 739.69 219.297 743.754 208.962 744.107C196.689 744.461 188.131 740.751 183.287 732.977C178.442 724.85 176.02 717.076 176.02 709.655C176.02 706.475 176.504 702.765 177.473 698.525C178.442 693.931 179.896 689.867 181.833 686.334C179.573 681.034 176.182 677.147 171.66 674.673C167.139 672.2 162.456 670.61 157.611 669.903C153.09 668.843 149.376 668.489 146.469 668.843C130.967 669.903 118.21 678.383 108.199 694.284C98.187 710.185 93.1811 733.153 93.1811 763.189C93.1811 780.856 95.1189 797.464 98.9944 813.012C103.193 828.206 109.975 840.75 119.341 850.644C128.707 860.538 141.302 865.838 157.127 866.545C170.691 866.898 183.933 863.365 196.851 855.944C209.769 848.524 220.75 838.453 229.793 825.732L252.077 849.584C240.45 867.251 228.339 880.679 215.744 889.866C203.149 899.053 190.553 905.237 177.958 908.417C165.685 911.951 153.574 913.718 141.625 913.718Z" stroke="#428180" stroke-width="2.78732" mask="url(#path-2-outside-2_9113_8483)"/>
<path d="M396.72 913.718C373.466 913.718 352.474 908.241 333.743 897.287C315.011 886.333 300.155 870.785 289.174 850.644C278.517 830.149 273.188 806.121 273.188 778.559C273.188 749.231 278.678 723.613 289.659 701.705C300.962 679.443 315.818 662.306 334.227 650.292C352.959 637.924 373.305 631.741 395.266 631.741C418.519 631.741 439.35 637.218 457.759 648.172C476.167 659.126 490.701 674.85 501.358 695.344C512.016 715.486 517.345 739.69 517.345 767.959C517.345 797.641 512.177 823.435 501.843 845.343C491.508 867.251 477.298 884.213 459.212 896.227C441.126 907.887 420.296 913.718 396.72 913.718ZM398.657 876.085C411.576 875.732 421.264 870.785 427.724 861.244C434.506 851.704 439.189 839.69 441.772 825.202C444.356 810.715 445.648 796.051 445.648 781.21C445.648 768.135 444.679 754.885 442.741 741.457C441.126 728.03 438.381 715.839 434.506 704.885C430.63 693.931 425.301 685.097 418.519 678.383C412.06 671.67 403.986 668.489 394.297 668.843C381.702 669.196 371.69 674.143 364.262 683.684C357.157 693.224 351.99 705.238 348.76 719.726C345.853 733.86 344.4 748.701 344.4 764.249C344.4 782.27 346.176 799.937 349.729 817.252C353.282 834.566 358.933 848.877 366.684 860.184C374.758 871.138 385.416 876.439 398.657 876.085Z" stroke="#428180" stroke-width="2.78732" mask="url(#path-2-outside-2_9113_8483)"/>
<path d="M671.108 913.718C647.855 913.718 626.863 908.241 608.131 897.287C589.4 886.333 574.544 870.785 563.563 850.644C552.905 830.149 547.577 806.121 547.577 778.559C547.577 749.231 553.067 723.613 564.047 701.705C575.351 679.443 590.207 662.306 608.616 650.292C627.347 637.924 647.694 631.741 669.655 631.741C692.908 631.741 713.739 637.218 732.148 648.172C750.556 659.126 765.089 674.85 775.747 695.344C786.405 715.486 791.733 739.69 791.733 767.959C791.733 797.641 786.566 823.435 776.231 845.343C765.897 867.251 751.687 884.213 733.601 896.227C715.515 907.887 694.684 913.718 671.108 913.718ZM673.046 876.085C685.964 875.732 695.653 870.785 702.112 861.244C708.895 851.704 713.577 839.69 716.161 825.202C718.745 810.715 720.037 796.051 720.037 781.21C720.037 768.135 719.068 754.885 717.13 741.457C715.515 728.03 712.77 715.839 708.895 704.885C705.019 693.931 699.69 685.097 692.908 678.383C686.449 671.67 678.375 668.489 668.686 668.843C656.091 669.196 646.079 674.143 638.651 683.684C631.546 693.224 626.379 705.238 623.149 719.726C620.242 733.86 618.789 748.701 618.789 764.249C618.789 782.27 620.565 799.937 624.118 817.252C627.67 834.566 633.322 848.877 641.073 860.184C649.147 871.138 659.805 876.439 673.046 876.085Z" stroke="#428180" stroke-width="2.78732" mask="url(#path-2-outside-2_9113_8483)"/>
<path d="M821.965 1040.4V1005.94C831.008 1005.94 837.468 1004 841.343 1000.11C845.542 996.226 848.125 990.572 849.094 983.152C850.386 976.085 851.032 967.958 851.032 958.77V734.567C851.032 728.206 851.193 721.139 851.516 713.366C851.839 705.238 852.324 697.288 852.97 689.514C847.802 689.867 841.666 690.221 834.561 690.574C827.456 690.574 822.127 690.751 818.574 691.104V650.822C833.753 650.822 846.349 649.938 856.361 648.172C866.695 646.405 874.769 644.285 880.583 641.811C886.719 639.338 890.917 637.041 893.178 634.921H916.915C917.561 638.454 918.046 642.871 918.369 648.172C918.692 653.119 919.015 657.182 919.338 660.362C930.641 649.762 941.783 642.341 952.764 638.101C964.067 633.861 974.725 631.741 984.737 631.741C1004.11 631.741 1021.07 637.218 1035.6 648.172C1050.46 659.126 1061.92 674.673 1070 694.814C1078.39 714.956 1082.59 738.63 1082.59 765.839C1082.59 794.107 1077.59 819.549 1067.58 842.163C1057.56 864.425 1043.52 881.916 1025.43 894.636C1007.67 907.357 986.674 913.718 962.453 913.718C953.733 913.718 945.82 912.658 938.715 910.537C931.933 908.771 925.474 906.651 919.338 904.177V955.06C919.338 960.007 919.176 966.897 918.853 975.731C918.853 984.919 918.53 993.576 917.884 1001.7C923.052 1001 928.703 1000.47 934.84 1000.11C940.976 1000.11 945.659 1000.11 948.888 1000.11V1040.4H821.965ZM954.702 873.965C969.558 873.612 981.023 868.842 989.097 859.654C997.494 850.114 1003.31 837.746 1006.54 822.552C1009.77 807.358 1011.38 791.104 1011.38 773.789C1011.38 757.535 1009.6 742.164 1006.05 727.676C1002.5 713.189 996.848 701.528 989.097 692.694C981.346 683.507 971.172 679.09 958.577 679.443C950.503 679.797 943.075 682.094 936.293 686.334C929.511 690.221 923.859 695.698 919.338 702.765C919.338 713.719 919.338 724.673 919.338 735.627C919.338 746.228 919.338 756.828 919.338 767.429C919.338 778.029 919.338 788.807 919.338 799.761C919.338 810.361 919.338 821.139 919.338 832.093C919.338 842.693 919.338 853.471 919.338 864.425C922.89 866.898 927.896 869.195 934.355 871.315C940.814 873.435 947.596 874.319 954.702 873.965Z" stroke="#428180" stroke-width="2.78732" mask="url(#path-2-outside-2_9113_8483)"/>
<path d="M1232.57 913.718C1208.99 913.718 1188.16 908.064 1170.08 896.757C1151.99 885.096 1137.94 868.842 1127.93 847.994C1117.92 826.792 1112.91 801.881 1112.91 773.259C1112.91 748.524 1117.92 725.38 1127.93 703.825C1137.94 682.27 1151.99 664.956 1170.08 651.882C1188.48 638.454 1209.8 631.741 1234.02 631.741C1247.59 631.741 1260.83 633.861 1273.75 638.101C1286.66 641.988 1298.29 648.878 1308.63 658.772C1319.28 668.666 1327.68 682.094 1333.82 699.055C1340.28 716.016 1343.34 737.217 1343.02 762.659L1184.12 765.839C1184.12 784.92 1186.22 802.058 1190.42 817.252C1194.94 832.446 1202.21 844.46 1212.22 853.294C1222.23 862.128 1235.64 866.545 1252.43 866.545C1258.89 866.545 1266.16 865.308 1274.23 862.835C1282.63 860.361 1291.02 856.297 1299.42 850.644C1308.14 844.637 1316.21 836.686 1323.64 826.792L1345.44 849.054C1333.82 867.075 1321.38 880.856 1308.14 890.396C1294.9 899.583 1281.66 905.767 1268.42 908.947C1255.5 912.128 1243.55 913.718 1232.57 913.718ZM1187.03 728.736H1276.17C1275.85 713.896 1273.91 702.235 1270.35 693.754C1267.13 684.92 1262.6 678.56 1256.79 674.673C1250.98 670.786 1244.2 668.843 1236.44 668.843C1222.23 668.843 1211.09 674.497 1203.02 685.804C1194.94 696.758 1189.62 711.069 1187.03 728.736Z" stroke="#428180" stroke-width="2.78732" mask="url(#path-2-outside-2_9113_8483)"/>
<path d="M1378.43 870.785C1387.47 870.785 1393.93 868.842 1397.8 864.955C1401.68 861.068 1404.1 855.591 1405.07 848.524C1406.36 841.103 1407.01 832.799 1407.01 823.612V734.567C1407.01 728.206 1407.17 721.139 1407.49 713.366C1407.82 705.238 1408.3 697.288 1408.95 689.514C1403.78 689.867 1397.64 690.221 1390.54 690.574C1383.76 690.574 1378.59 690.751 1375.04 691.104V650.822H1394.41C1407.01 650.822 1418.47 649.055 1428.81 645.521C1439.47 641.988 1446.41 638.454 1449.64 634.921H1473.38C1474.02 638.454 1474.51 645.168 1474.83 655.062C1475.15 664.603 1475.31 673.083 1475.31 680.504C1484.03 668.843 1492.27 659.479 1500.02 652.412C1507.77 645.345 1515.36 640.221 1522.79 637.041C1530.54 633.507 1538.29 631.741 1546.04 631.741C1557.35 631.741 1567.2 635.274 1575.59 642.341C1583.99 649.055 1588.19 660.186 1588.19 675.733C1588.19 681.034 1587.06 686.687 1584.8 692.694C1582.54 698.348 1578.98 703.118 1574.14 707.005C1569.29 710.892 1562.67 712.836 1554.28 712.836C1547.82 712.836 1541.2 710.715 1534.42 706.475C1527.63 702.235 1523.76 694.108 1522.79 682.094C1516.33 682.094 1509.87 685.097 1503.41 691.104C1496.95 696.758 1491.14 703.648 1485.97 711.775C1481.13 719.549 1477.74 726.793 1475.8 733.507V819.902C1475.8 824.849 1475.64 831.916 1475.31 841.103C1474.99 849.937 1474.51 858.418 1473.86 866.545C1479.03 865.838 1484.68 865.485 1490.82 865.485C1497.27 865.131 1502.12 864.955 1505.35 864.955V905.237H1378.43V870.785Z" stroke="#428180" stroke-width="2.78732" mask="url(#path-2-outside-2_9113_8483)"/>
<path d="M1743.49 905.237C1742.85 900.29 1742.36 896.227 1742.04 893.046C1742.04 889.513 1741.88 885.449 1741.55 880.856C1730.57 892.87 1718.95 901.35 1706.67 906.297C1694.4 911.244 1681.97 913.718 1669.37 913.718C1648.7 913.718 1632.56 907.004 1620.93 893.576C1609.3 880.149 1603.49 863.365 1603.49 843.223C1603.49 826.262 1607.36 811.775 1615.12 799.761C1623.19 787.747 1633.69 778.029 1646.6 770.609C1659.85 762.835 1674.38 757.005 1690.2 753.118C1706.35 748.878 1722.5 746.404 1738.65 745.697V718.136C1738.65 708.949 1737.52 700.645 1735.26 693.224C1733.32 685.804 1729.77 679.974 1724.6 675.733C1719.75 671.493 1712.81 669.55 1703.77 669.903C1697.63 670.256 1691.66 671.67 1685.84 674.143C1680.03 676.617 1675.02 680.15 1670.83 684.744C1673.41 687.924 1675.02 691.458 1675.67 695.344C1676.32 698.878 1676.64 702.058 1676.64 704.885C1676.64 711.952 1674.06 719.373 1668.89 727.146C1663.72 734.567 1655.49 738.1 1644.18 737.747C1634.49 737.394 1627.07 733.683 1621.9 726.616C1616.73 719.549 1614.15 711.245 1614.15 701.705C1614.15 687.571 1618.67 675.38 1627.71 665.133C1637.08 654.532 1649.51 646.405 1665.01 640.751C1680.52 634.744 1697.63 631.741 1716.36 631.741C1744.78 631.741 1766.74 639.868 1782.25 656.122C1798.07 672.023 1805.98 697.641 1805.98 732.977C1805.98 744.991 1805.98 755.238 1805.98 763.719C1805.98 772.199 1805.82 780.68 1805.5 789.16C1805.5 797.641 1805.5 807.888 1805.5 819.902C1805.5 824.849 1805.34 831.916 1805.02 841.103C1804.69 849.937 1804.21 858.418 1803.56 866.545C1809.05 865.838 1814.87 865.485 1821 865.485C1827.14 865.131 1831.82 864.955 1835.05 864.955V905.237H1743.49ZM1738.16 783.33C1729.12 784.39 1720.56 786.157 1712.49 788.63C1704.41 791.104 1697.31 794.46 1691.17 798.701C1685.36 802.941 1680.68 808.065 1677.12 814.072C1673.89 820.079 1672.28 826.792 1672.28 834.213C1672.6 844.107 1675.51 851.174 1681 855.414C1686.49 859.654 1692.79 861.774 1699.89 861.774C1707.32 861.774 1714.26 860.008 1720.72 856.474C1727.18 852.941 1733 848.347 1738.16 842.693C1738.16 839.16 1738.16 835.803 1738.16 832.623C1738.16 829.089 1738.16 825.556 1738.16 822.022C1738.16 815.662 1738.16 809.301 1738.16 802.941C1738.16 796.227 1738.16 789.69 1738.16 783.33Z" stroke="#428180" stroke-width="2.78732" mask="url(#path-2-outside-2_9113_8483)"/>
<path d="M1956.89 913.718C1947.2 913.718 1937.84 912.481 1928.79 910.007C1919.75 907.534 1911.68 902.94 1904.57 896.227C1897.47 889.159 1891.81 878.912 1887.62 865.485C1883.42 852.057 1881.32 834.213 1881.32 811.951L1882.29 684.214H1849.35V640.221C1859.36 639.868 1869.05 636.158 1878.41 629.09C1887.78 622.023 1895.69 612.836 1902.15 601.529C1908.93 590.221 1913.45 578.384 1915.71 566.017H1951.56L1951.08 640.221H2012.6V681.034L1951.08 682.624L1950.59 813.012C1950.59 821.139 1951.24 829.266 1952.53 837.393C1954.15 845.167 1957.05 851.704 1961.25 857.004C1965.45 861.951 1971.59 864.425 1979.66 864.425C1984.18 864.425 1990.32 862.658 1998.07 859.124C2006.14 855.591 2014.7 846.757 2023.74 832.623L2047 856.474C2038.28 870.608 2029.23 881.562 2019.87 889.336C2010.5 897.11 2001.46 902.764 1992.74 906.297C1984.34 909.831 1976.91 911.951 1970.45 912.658C1964 913.364 1959.47 913.718 1956.89 913.718Z" stroke="#428180" stroke-width="2.78732" mask="url(#path-2-outside-2_9113_8483)"/>
<path d="M2061.09 870.785C2070.13 870.785 2076.59 868.842 2080.46 864.955C2084.34 861.068 2086.76 855.591 2087.73 848.524C2089.02 841.103 2089.67 832.799 2089.67 823.612V735.627C2089.67 729.266 2089.83 722.023 2090.15 713.896C2090.48 705.415 2090.96 697.288 2091.61 689.514C2086.44 689.867 2080.3 690.221 2073.2 690.574C2066.42 690.574 2061.25 690.751 2057.7 691.104V650.822C2072.55 650.822 2085.15 649.938 2095.48 648.172C2105.82 646.405 2113.89 644.285 2119.7 641.811C2125.84 639.338 2130.04 637.041 2132.3 634.921H2158.46V819.902C2158.46 824.849 2158.3 831.916 2157.97 841.103C2157.65 849.937 2157.17 858.418 2156.52 866.545C2161.69 865.838 2167.34 865.485 2173.48 865.485C2179.94 865.131 2184.78 864.955 2188.01 864.955V905.237H2061.09V870.785ZM2121.64 593.048C2110.66 593.048 2101.62 588.808 2094.51 580.328C2087.41 571.847 2083.86 561.6 2083.86 549.586C2083.86 537.572 2087.57 527.324 2095 518.844C2102.43 510.363 2111.15 506.123 2121.16 506.123C2131.49 506.123 2140.05 510.363 2146.83 518.844C2153.94 527.324 2157.49 537.572 2157.49 549.586C2157.49 561.6 2154.26 571.847 2147.8 580.328C2141.34 588.808 2132.62 593.048 2121.64 593.048Z" stroke="#428180" stroke-width="2.78732" mask="url(#path-2-outside-2_9113_8483)"/>
<path d="M2306.36 906.827L2229.82 722.906C2226.27 714.072 2223.69 707.359 2222.07 702.765C2220.78 698.171 2219.81 694.284 2219.16 691.104C2218.84 687.571 2218.2 683.684 2217.23 679.443L2199.3 680.504V640.221H2312.66V674.143C2305.88 674.497 2301.36 676.617 2299.1 680.504C2296.84 684.39 2296.03 689.514 2296.67 695.874C2297.32 701.882 2298.77 708.419 2301.03 715.486L2326.23 783.33C2328.81 790.043 2331.39 796.934 2333.98 804.001C2336.56 811.068 2339.14 818.135 2341.73 825.202H2342.21C2344.8 817.782 2347.22 810.361 2349.48 802.941C2352.06 795.52 2354.48 788.1 2356.75 780.68L2377.58 716.016C2380.48 707.182 2383.07 700.115 2385.33 694.814C2387.91 689.514 2390.66 684.037 2393.56 678.383L2363.53 680.504V640.221H2455.57V674.143C2448.14 675.557 2441.52 680.15 2435.71 687.924C2429.9 695.344 2424.89 703.825 2420.69 713.366C2416.49 722.553 2413.1 730.68 2410.52 737.747L2348.51 906.827H2306.36Z" stroke="#428180" stroke-width="2.78732" mask="url(#path-2-outside-2_9113_8483)"/>
<path d="M2586.06 913.718C2562.49 913.718 2541.66 908.064 2523.57 896.757C2505.48 885.096 2491.44 868.842 2481.42 847.994C2471.41 826.792 2466.41 801.881 2466.41 773.259C2466.41 748.524 2471.41 725.38 2481.42 703.825C2491.44 682.27 2505.48 664.956 2523.57 651.882C2541.98 638.454 2563.29 631.741 2587.52 631.741C2601.08 631.741 2614.32 633.861 2627.24 638.101C2640.16 641.988 2651.78 648.878 2662.12 658.772C2672.78 668.666 2681.17 682.094 2687.31 699.055C2693.77 716.016 2696.84 737.217 2696.51 762.659L2537.62 765.839C2537.62 784.92 2539.72 802.058 2543.92 817.252C2548.44 832.446 2555.7 844.46 2565.72 853.294C2575.73 862.128 2589.13 866.545 2605.92 866.545C2612.38 866.545 2619.65 865.308 2627.72 862.835C2636.12 860.361 2644.52 856.297 2652.92 850.644C2661.64 844.637 2669.71 836.686 2677.14 826.792L2698.94 849.054C2687.31 867.075 2674.88 880.856 2661.64 890.396C2648.39 899.583 2635.15 905.767 2621.91 908.947C2608.99 912.128 2597.04 913.718 2586.06 913.718ZM2540.53 728.736H2629.66C2629.34 713.896 2627.4 702.235 2623.85 693.754C2620.62 684.92 2616.1 678.56 2610.28 674.673C2604.47 670.786 2597.69 668.843 2589.94 668.843C2575.73 668.843 2564.59 674.497 2556.51 685.804C2548.44 696.758 2543.11 711.069 2540.53 728.736Z" stroke="#428180" stroke-width="2.78732" mask="url(#path-2-outside-2_9113_8483)"/>
<path d="M2699.43 327.693C2826.99 327.693 2930.39 440.831 2930.39 580.395C2930.39 696.064 2859.36 793.58 2762.42 823.581C2767.34 805.723 2769.98 786.752 2769.98 767.09C2769.98 661.214 2693.32 575.386 2598.75 575.386C2549.58 575.386 2505.25 598.589 2474.02 635.748C2470.39 617.934 2468.47 599.409 2468.47 580.395C2468.47 440.831 2571.87 327.693 2699.43 327.693Z" fill="#B65A30"/>
</svg>
